<svg width="597" height="685" viewBox="0 0 597 685" fill="none" xmlns="http://www.w3.org/2000/svg">
<g opacity="0.2">
<path fill-rule="evenodd" clip-rule="evenodd" d="M298.498 0.531982L308.222 3.96557L308.875 4.20237C382.877 34.4534 537.879 105.789 587.155 165.462L596.405 176.651L592.254 190.563C587.748 205.659 582.233 220.933 576.659 235.673C562.487 273.502 546.418 310.798 528.866 347.206C474.135 461.047 403.809 569.974 318.659 663.51C312.314 670.436 305.613 677.422 298.498 684.17C291.382 677.422 284.682 670.495 278.337 663.51C193.187 569.974 122.861 461.047 68.1297 347.206C50.6372 310.798 34.5085 273.502 20.3365 235.673C14.8219 220.933 9.30734 205.659 4.74149 190.563L0.590714 176.651L9.84101 165.462C59.1759 105.848 214.178 34.5126 288.18 4.20237L288.832 3.96557L298.557 0.531982H298.498Z" fill="#28245F"/>
<path d="M298.5 684.882L298.144 684.526C291.444 678.192 284.684 671.266 277.924 663.866C236.476 618.341 197.221 567.666 161.347 513.262C127.073 461.343 95.5864 405.518 67.5983 347.443C49.5128 309.792 33.3841 272.26 19.8051 235.852C14.4091 221.407 8.77592 205.956 4.21007 190.682L0 176.534L9.42819 165.108C31.0715 138.883 74.8325 107.98 139.466 73.2893C202.439 39.6046 264.286 13.4383 288.004 3.72958L288.657 3.49278L298.559 0L308.462 3.49278L309.114 3.78878C332.773 13.4975 394.62 39.6638 457.534 73.4077C522.167 108.099 565.928 139.001 587.572 165.226L597 176.652L592.79 190.801C588.224 206.015 582.591 221.525 577.195 235.97C563.616 272.319 547.546 309.851 529.402 347.562C501.473 405.637 469.927 461.462 435.653 513.38C399.779 567.785 360.584 618.46 319.076 663.984C312.375 671.384 305.556 678.31 298.856 684.645L298.5 685V684.882ZM1.24523 176.83L5.33671 190.445C9.90256 205.66 15.4765 221.111 20.8725 235.496C34.4514 271.845 50.5209 309.319 68.6064 346.97C126.361 467.027 197.043 573.409 278.695 663.155C285.277 670.378 291.918 677.186 298.441 683.402C304.963 677.186 311.605 670.378 318.187 663.155C399.897 573.409 470.579 467.086 528.275 346.97C546.361 309.319 562.43 271.786 576.009 235.496C581.405 221.052 587.038 205.601 591.545 190.445L595.636 176.83L586.564 165.878C564.98 139.771 521.337 108.987 456.822 74.3549C394.146 40.5518 332.299 14.3855 308.64 4.73598L307.987 4.49918L298.5 1.18399L288.953 4.55838L288.36 4.79518C264.701 14.4447 202.854 40.611 140 74.3549C75.5441 108.927 31.9017 139.711 10.3176 165.818L1.24523 176.77V176.83Z" fill="white"/>
<path fill-rule="evenodd" clip-rule="evenodd" d="M298.5 29.4229C298.5 29.4229 511.257 116.446 566.107 182.809C566.107 182.809 491.156 433.698 298.5 645.218C105.904 433.698 30.894 182.809 30.894 182.809C85.8028 116.446 298.5 29.4229 298.5 29.4229Z" fill="#D8EFFC"/>
<path fill-rule="evenodd" clip-rule="evenodd" d="M298.491 600.225C370.062 516.576 429.893 421.442 477.39 322.578C494.171 287.71 509.588 252.012 523.167 215.782C526.25 207.494 529.393 199.028 532.298 190.504C483.319 145.097 360.871 87.9104 298.491 61.6257C236.111 87.9104 113.663 145.097 64.6839 190.504C67.5895 199.028 70.7322 207.494 73.8156 215.782C87.3946 252.012 102.812 287.71 119.593 322.578C167.089 421.442 226.92 516.576 298.491 600.225ZM298.491 614.61C373.798 528.416 436.415 429.552 485.928 326.663C502.828 291.557 518.364 255.564 532.002 219.097C535.797 208.855 539.651 198.377 543.15 187.899C494.823 139.592 362.887 78.32 298.55 51.4434C234.213 78.32 102.219 139.592 53.9512 187.899C57.3904 198.377 61.2447 208.855 65.099 219.097C78.7373 255.623 94.3323 291.557 111.173 326.663C160.626 429.552 223.303 528.416 298.61 614.61H298.491Z" fill="#28245F"/>
<path d="M298.5 615.381L298.085 614.907C225.743 532.087 162.651 435.118 110.588 326.841C93.0959 290.434 77.5602 254.263 64.4556 219.216C60.7199 209.271 56.8063 198.615 53.3078 188.018L53.1892 187.722L53.4264 187.485C110.826 130.121 279.229 58.9035 298.203 50.9115H298.381H298.559C317.594 58.8443 485.996 130.121 543.336 187.485L543.574 187.722L543.455 188.018C539.956 198.615 536.043 209.271 532.307 219.216C519.203 254.263 503.726 290.434 486.174 326.841C434.112 435.118 371.02 532.087 298.678 614.907L298.263 615.381H298.5ZM54.4937 188.018C57.9329 198.496 61.8465 209.034 65.5229 218.861C78.6275 253.848 94.104 290.019 111.597 326.427C163.54 434.467 226.395 531.14 298.5 613.783C370.605 531.14 433.519 434.407 485.403 326.427C502.896 290.078 518.372 253.848 531.477 218.861C535.153 209.034 539.008 198.496 542.506 188.018C485.226 131.068 318.424 60.3243 298.5 52.0363C278.576 60.3835 111.715 131.068 54.4937 188.018ZM298.5 600.995L298.085 600.522C229.241 520.129 169.055 426.652 119.068 322.816C101.694 286.704 86.2768 250.711 73.2908 215.96C70.326 207.968 67.1239 199.384 64.1591 190.682L64.0405 190.327L64.2777 190.09C108.691 148.946 218.034 94.8969 298.263 61.153H298.441H298.619C378.788 94.9561 488.19 149.005 532.604 190.09L532.841 190.327L532.722 190.682C529.757 199.384 526.555 207.968 523.591 215.96C510.605 250.711 495.187 286.645 477.813 322.816C427.886 426.711 367.64 520.129 298.796 600.522L298.381 600.995H298.5ZM65.345 190.682C68.3099 199.266 71.3933 207.732 74.3581 215.605C87.3441 250.355 102.761 286.23 120.076 322.342C169.885 425.942 229.894 519.122 298.5 599.397C367.106 519.181 427.115 425.942 476.924 322.342C494.298 286.23 509.656 250.296 522.642 215.605C525.607 207.732 528.69 199.266 531.655 190.682C487.242 149.716 378.373 95.9625 298.441 62.2186C218.509 95.9033 109.64 149.716 65.2264 190.682H65.345Z" fill="white"/>
<path fill-rule="evenodd" clip-rule="evenodd" d="M298.503 129.346C211.811 129.346 132.531 193.814 132.531 283.265C132.531 372.716 211.811 437.184 298.503 437.184C385.195 437.184 464.475 372.716 464.475 283.265C464.475 193.814 385.195 129.346 298.503 129.346ZM298.503 147.579C216.911 147.579 150.795 208.318 150.795 283.265C150.795 358.212 216.911 418.951 298.503 418.951C380.095 418.951 446.211 358.212 446.211 283.265C446.211 208.318 380.095 147.579 298.503 147.579Z" fill="#28245F"/>
<path fill-rule="evenodd" clip-rule="evenodd" d="M381.409 138.78C383.722 139.49 386.094 140.615 388.229 141.74C393.625 144.581 398.665 148.252 403.053 152.455C404.594 151.271 406.136 149.14 407.204 147.482C410.228 142.628 411.71 136.944 412.184 131.261C412.54 126.466 412.896 121.671 413.133 116.817C413.133 116.047 413.192 115.218 413.192 114.449C413.192 113.975 413.548 113.561 414.023 113.561L574.835 99.7671C577.326 99.4119 580.35 100.418 582.307 101.898C588.355 106.575 588.414 116.876 587.762 123.743C586.636 135.169 581.833 145.765 574.835 154.764C571.693 158.789 567.779 163.111 563.688 166.189C566.119 166.9 568.965 168.972 570.685 170.866C575.547 176.194 576.259 183.416 575.132 190.283C573.59 199.519 570.863 207.629 564.755 214.851C557.462 223.435 546.492 229.474 536.411 234.15C537.775 235.867 538.961 237.998 539.91 240.011C542.044 244.451 543.29 249.424 543.171 254.397C542.993 260.672 539.435 266.888 535.403 271.565C530.956 276.774 524.908 281.333 518.504 283.937C513.285 286.069 508.008 287.963 502.671 289.68C500.477 290.39 498.283 291.101 496.089 291.693C495.852 291.752 495.674 291.989 495.674 292.225C495.556 292.995 496.623 294.001 497.097 294.475C499.351 296.547 501.545 300.158 502.731 302.941C504.687 307.321 505.518 312.294 503.798 316.852C499.884 327.094 484.586 334.494 474.802 337.809C467.034 340.473 458.495 343.315 450.194 343.315C451.854 344.262 453.574 345.86 454.819 347.34C457.191 350.3 457.962 353.675 455.886 357.049C452.921 361.844 445.153 366.639 440.232 369.303C433.235 373.092 425.17 376.407 417.343 378.006C409.931 379.486 401.926 375.46 395.937 371.375C393.032 369.363 390.245 367.113 387.576 364.745C385.916 363.265 384.374 361.726 382.773 360.246C381.35 358.943 379.393 357.108 378.385 355.451L364.391 380.907L352.828 414.473L371.092 437.561L371.27 437.679C371.27 437.679 371.329 437.738 371.388 437.798L403.29 478.941C403.29 478.941 403.29 478.941 403.349 479.001C405.78 483.085 407.619 489.005 408.271 493.682C409.872 504.93 406.492 514.994 398.546 523.104C390.422 531.333 380.105 535.595 368.542 535.891C363.739 536.01 357.631 535.418 353.066 533.819C352.532 535.891 351.642 538.023 350.753 539.976C348.618 544.712 345.772 549.211 342.392 553.119C337.767 558.506 332.134 562.827 325.67 565.847C317.132 569.813 307.763 571.115 298.394 570.701C298.394 570.701 298.275 570.701 298.216 570.701L297.742 570.582L297.267 570.701C297.267 570.701 297.149 570.701 297.089 570.701C287.72 571.115 278.352 569.813 269.813 565.847C263.35 562.827 257.716 558.506 253.091 553.119C249.711 549.152 246.865 544.712 244.73 539.976C243.841 538.023 242.951 535.891 242.418 533.819C237.852 535.418 231.804 536.01 226.941 535.891C215.378 535.595 205.12 531.333 196.937 523.104C188.932 515.053 185.552 504.93 187.212 493.682C187.865 489.005 189.703 483.085 192.134 479.001C192.134 479.001 192.134 479.001 192.193 478.941L224.095 437.798C224.095 437.798 224.154 437.738 224.214 437.679L224.392 437.561L242.655 414.473L231.092 380.907L217.098 355.451C216.149 357.108 214.133 358.943 212.71 360.246C211.109 361.726 209.567 363.265 207.907 364.745C205.239 367.113 202.511 369.363 199.546 371.375C193.557 375.46 185.611 379.486 178.14 378.006C170.313 376.407 162.248 373.092 155.251 369.303C150.33 366.639 142.562 361.844 139.597 357.049C137.522 353.675 138.233 350.3 140.664 347.34C141.85 345.86 143.629 344.321 145.29 343.315C136.988 343.315 128.449 340.473 120.681 337.809C110.897 334.494 95.5396 327.035 91.6853 316.852C89.9657 312.294 90.7958 307.262 92.7526 302.941C93.9979 300.158 96.1918 296.547 98.3858 294.475C98.8602 294.001 99.9275 292.995 99.809 292.225C99.809 291.989 99.5718 291.752 99.3939 291.693C97.1999 291.101 95.0059 290.39 92.8119 289.68C87.4752 287.963 82.1978 286.009 76.9797 283.937C70.5756 281.333 64.5867 276.774 60.0801 271.565C56.1072 266.888 52.4901 260.672 52.3122 254.397C52.1936 249.424 53.4389 244.51 55.5736 240.011C56.5223 237.998 57.7082 235.867 59.0721 234.15C48.9916 229.414 38.0217 223.435 30.7282 214.851C24.6206 207.629 21.893 199.519 20.3513 190.283C19.2246 183.416 19.9362 176.194 24.7985 170.866C26.5181 168.972 29.3051 166.9 31.7955 166.189C27.7041 163.111 23.7905 158.789 20.6477 154.764C13.6507 145.706 8.84769 135.169 7.72105 123.743C7.06878 116.817 7.12808 106.575 13.1764 101.898C15.1331 100.418 18.1573 99.4119 20.6477 99.7671L181.461 113.561C181.935 113.561 182.291 113.975 182.291 114.449C182.291 115.218 182.291 116.047 182.35 116.817C182.528 121.612 182.943 126.466 183.299 131.261C183.714 136.944 185.256 142.628 188.28 147.482C189.288 149.14 190.889 151.271 192.431 152.455C196.818 148.192 201.859 144.581 207.255 141.74C209.389 140.615 211.761 139.49 214.074 138.78C224.807 116.461 242.003 99.7079 265.603 91.4199C272.718 88.9335 280.19 87.2759 287.72 86.6247C290.745 86.3287 293.947 86.1511 297.03 86.3879H297.564H298.097C301.181 86.1511 304.324 86.3879 307.407 86.6247C314.938 87.2759 322.409 88.9335 329.525 91.4199C353.125 99.7079 370.262 116.461 381.054 138.78H381.409Z" fill="#222161"/>
<path d="M301.896 571.348C300.769 571.348 299.702 571.348 298.516 571.289C298.397 571.289 298.338 571.289 298.279 571.289H297.923H297.567C297.449 571.289 297.389 571.289 297.33 571.289C287.131 571.763 277.881 570.105 269.816 566.376C263.353 563.356 257.66 559.035 252.917 553.529C249.537 549.563 246.69 545.123 244.496 540.209C243.785 538.611 242.895 536.598 242.302 534.526C238.211 535.888 232.578 536.598 227.182 536.48C215.441 536.184 204.946 531.744 196.822 523.574C188.698 515.345 185.259 505.045 186.919 493.737C187.69 488.469 189.647 482.667 191.96 478.878C191.96 478.878 192.019 478.76 192.078 478.76L223.98 437.616C223.98 437.616 224.098 437.498 224.158 437.439L224.276 437.32L242.302 414.528L230.858 381.258L217.279 356.572C216.153 358.111 214.492 359.65 213.306 360.716C212.654 361.308 212.061 361.9 211.409 362.492C210.46 363.38 209.511 364.327 208.503 365.215C205.598 367.82 202.811 370.01 200.083 371.904C191.782 377.588 184.488 379.837 178.321 378.594C169.308 376.759 160.829 372.852 155.314 369.892C150.748 367.405 142.565 362.492 139.482 357.46C137.466 354.145 137.822 350.533 140.549 347.159C141.439 346.034 142.625 344.909 143.87 343.962C135.924 343.607 127.919 340.884 120.803 338.457C109.003 334.431 95.0686 326.735 91.4515 317.145C89.4354 311.817 90.9178 306.43 92.5188 302.818C93.6455 300.214 95.8394 296.425 98.3299 294.175C99.6344 292.991 99.6344 292.518 99.5751 292.399C99.5751 292.399 99.5751 292.34 99.5158 292.34C97.2033 291.689 94.8907 290.978 92.9339 290.327C87.5972 288.61 82.2605 286.657 77.0424 284.526C70.8755 282.039 64.6493 277.481 59.9649 272.035C57.1186 268.719 52.2563 261.971 52.0784 254.571C51.9598 249.835 53.0865 244.743 55.399 239.948C56.4071 237.817 57.4744 235.982 58.6011 234.502C49.4694 230.18 38.203 224.142 30.6723 215.321C25.1577 208.868 21.9556 201.172 20.1767 190.517C18.8129 182.288 20.4139 175.421 24.7426 170.685C26.225 169.086 28.6562 167.192 31.0281 166.185C26.7587 162.811 23.023 158.43 20.5325 155.233C13.0611 145.584 8.55457 134.75 7.48723 123.917C6.41989 112.846 8.31738 105.328 13.1204 101.599C15.3144 99.8817 18.5164 98.9937 21.0069 99.3489L181.76 113.142C182.531 113.202 183.065 113.794 183.065 114.563C183.065 115.155 183.065 115.747 183.065 116.28V116.872C183.302 121.49 183.599 125.93 184.014 131.317C184.488 137.414 186.148 142.92 188.876 147.301C189.469 148.248 190.892 150.438 192.552 151.859C196.94 147.656 201.862 144.163 207.139 141.381C208.978 140.434 211.409 139.19 213.84 138.421C225.047 115.333 242.895 98.9345 265.547 91.0018C272.781 88.4562 280.252 86.8578 287.842 86.1474C290.689 85.9106 294.009 85.6738 297.211 85.9106C297.211 85.9106 297.271 85.9106 297.33 85.9106H297.745H298.219C298.219 85.9106 298.219 85.9106 298.338 85.9106C301.599 85.6738 304.92 85.9106 307.707 86.1474C315.238 86.7986 322.768 88.4562 330.002 91.0018C352.654 98.9345 370.502 115.333 381.709 138.421C384.14 139.19 386.572 140.374 388.41 141.381C393.687 144.163 398.609 147.656 402.997 151.859C404.598 150.438 406.08 148.248 406.673 147.301C409.401 142.92 411.061 137.414 411.536 131.317C411.951 125.989 412.306 121.549 412.484 116.872V116.28C412.484 115.688 412.544 115.155 412.544 114.563C412.544 113.794 413.137 113.202 413.848 113.142L574.661 99.3489C577.092 98.9937 580.294 99.8817 582.488 101.599C587.291 105.328 589.189 112.846 588.121 123.917C587.054 134.75 582.547 145.584 575.076 155.233C572.645 158.371 568.85 162.811 564.581 166.185C566.952 167.133 569.384 169.086 570.866 170.685C575.254 175.421 576.796 182.288 575.432 190.517C573.653 201.172 570.451 208.868 564.936 215.321C557.465 224.142 546.199 230.18 537.008 234.502C538.075 235.923 539.142 237.758 540.21 239.948C542.522 244.743 543.649 249.775 543.53 254.571C543.352 261.971 538.49 268.719 535.644 272.035C530.959 277.481 524.733 282.039 518.566 284.526C513.407 286.598 508.071 288.551 502.675 290.327C500.718 290.978 498.405 291.689 496.093 292.34C496.093 292.34 496.093 292.34 496.093 292.399C496.093 292.458 496.093 292.991 497.338 294.175C499.769 296.425 501.963 300.273 503.149 302.818C504.75 306.43 506.232 311.876 504.216 317.145C500.599 326.676 486.665 334.372 474.865 338.457C467.749 340.884 459.744 343.607 451.798 343.962C453.043 344.909 454.229 346.034 455.119 347.159C457.846 350.593 458.261 354.145 456.186 357.46C453.103 362.492 444.92 367.405 440.354 369.892C434.839 372.852 426.36 376.818 417.347 378.594C411.18 379.837 403.827 377.588 395.585 371.904C392.857 370.01 390.07 367.82 387.165 365.215C386.156 364.327 385.208 363.38 384.259 362.492C383.607 361.9 383.014 361.308 382.362 360.716C381.176 359.65 379.515 358.052 378.389 356.572L364.81 381.258L353.365 414.528L371.392 437.32L371.51 437.439C371.51 437.439 371.629 437.557 371.688 437.616L403.59 478.76C403.59 478.76 403.649 478.819 403.708 478.878C406.021 482.667 407.978 488.528 408.749 493.737C410.409 505.045 406.97 515.405 398.846 523.574C390.782 531.744 380.286 536.243 368.486 536.48C363.09 536.598 357.516 535.888 353.365 534.526C352.772 536.598 351.883 538.67 351.171 540.209C348.977 545.064 346.131 549.563 342.751 553.529C338.008 559.094 332.315 563.416 325.852 566.376C318.736 569.691 310.612 571.348 301.718 571.348H301.896ZM297.923 570.046L298.516 570.164C298.516 570.164 298.516 570.164 298.575 570.164C308.596 570.638 317.728 568.98 325.555 565.369C331.841 562.468 337.415 558.206 342.04 552.76C345.36 548.852 348.147 544.472 350.282 539.736C351.053 538.078 352.002 535.828 352.535 533.638L352.654 533.105L353.188 533.283C357.931 534.941 364.217 535.473 368.486 535.355C379.99 535.059 390.189 530.737 398.075 522.745C405.962 514.813 409.282 504.749 407.681 493.797C406.97 488.706 405.013 483.022 402.819 479.293L370.917 438.09L370.68 437.912L352.239 414.587L363.92 380.666L378.389 354.381L378.863 355.21C379.812 356.809 381.828 358.703 383.132 359.887C383.785 360.479 384.437 361.071 385.03 361.663C385.979 362.551 386.927 363.498 387.935 364.327C390.841 366.932 393.509 369.063 396.237 370.898C404.301 376.404 411.358 378.594 417.228 377.41C426.123 375.634 434.483 371.727 439.998 368.767C444.505 366.34 452.51 361.544 455.474 356.749C457.313 353.789 456.957 350.711 454.466 347.633C453.28 346.153 451.561 344.673 450.019 343.725L448.359 342.719H450.316C458.676 342.719 467.215 339.818 474.746 337.213C486.309 333.247 499.947 325.729 503.446 316.553C505.343 311.58 503.92 306.43 502.378 302.996C501.252 300.51 499.176 296.839 496.864 294.708C495.678 293.642 495.144 292.754 495.263 291.985C495.322 291.57 495.678 291.156 496.093 291.038C498.405 290.386 500.659 289.676 502.675 289.025C508.011 287.308 513.289 285.354 518.448 283.282C524.496 280.855 530.544 276.356 535.11 271.028C537.897 267.772 542.581 261.319 542.759 254.215C542.878 249.657 541.751 244.743 539.557 240.067C538.431 237.699 537.245 235.745 536.118 234.324L535.703 233.792L536.296 233.495C545.428 229.233 556.931 223.195 564.462 214.315C569.799 207.98 573.001 200.521 574.72 190.043C575.61 184.537 575.61 176.782 570.392 171.099C568.85 169.441 566.122 167.31 563.632 166.6L562.624 166.304L563.454 165.653C567.96 162.278 571.933 157.601 574.483 154.286C581.836 144.814 586.283 134.158 587.291 123.502C588.299 112.965 586.52 105.565 582.073 102.131C580.116 100.592 577.211 99.7633 575.017 100.059L414.145 113.853C414.145 113.853 413.789 114.03 413.789 114.208C413.789 114.8 413.789 115.392 413.789 115.984V116.576C413.552 121.253 413.255 125.693 412.84 131.021C412.366 137.296 410.646 142.979 407.8 147.478C407.148 148.544 405.428 151.149 403.53 152.569L403.175 152.865L402.819 152.569C398.431 148.307 393.45 144.755 388.113 141.914C386.216 140.907 383.785 139.723 381.353 138.954H381.116L380.998 138.658C369.968 115.747 352.239 99.4673 329.765 91.5938C322.65 89.1074 315.238 87.4498 307.766 86.7986C304.979 86.5618 301.718 86.325 298.575 86.5618H297.982H297.389C294.187 86.325 290.926 86.5618 288.139 86.7986C280.668 87.4498 273.255 89.1074 266.14 91.5938C243.666 99.4673 225.996 115.747 214.907 138.658L214.789 138.894H214.552C212.12 139.723 209.689 140.907 207.792 141.914C202.455 144.696 197.533 148.307 193.086 152.569L192.73 152.865L192.375 152.569C190.477 151.089 188.757 148.485 188.105 147.478C185.318 142.979 183.539 137.237 183.065 131.021C182.65 125.693 182.294 121.194 182.116 116.576V115.984C182.116 115.392 182.057 114.8 182.057 114.208C182.057 114.03 181.879 113.853 181.701 113.853L20.8883 100.059C18.6943 99.7633 15.7888 100.592 13.832 102.131C9.38473 105.565 7.54653 112.965 8.61387 123.502C9.62191 134.158 14.0692 144.814 21.422 154.286C23.9717 157.601 28.0039 162.219 32.4512 165.653L33.2813 166.304L32.2733 166.6C29.7828 167.31 27.0552 169.441 25.5135 171.099C20.2953 176.782 20.2953 184.537 21.1848 190.043C22.9044 200.521 26.1064 208.04 31.4431 214.315C38.9738 223.195 50.4181 229.233 59.6091 233.495L60.2021 233.792L59.787 234.324C58.6011 235.804 57.4744 237.699 56.3478 240.067C54.1538 244.743 53.0272 249.598 53.1458 254.215C53.3236 261.319 58.0081 267.772 60.795 271.028C65.3609 276.356 71.4685 280.796 77.4574 283.282C82.6163 285.354 87.8937 287.308 93.2304 289.025C95.1872 289.676 97.4997 290.386 99.753 291.038C100.168 291.156 100.524 291.57 100.583 291.985C100.702 292.695 100.168 293.583 98.9822 294.708C96.6696 296.839 94.5349 300.51 93.4676 302.996C91.9258 306.43 90.5027 311.58 92.4002 316.553C95.8987 325.729 109.537 333.247 121.1 337.213C128.631 339.759 137.169 342.719 145.53 342.719H147.487L145.827 343.725C144.285 344.673 142.565 346.153 141.379 347.633C138.889 350.711 138.533 353.789 140.371 356.749C143.336 361.604 151.341 366.34 155.848 368.767C161.303 371.727 169.664 375.575 178.618 377.41C184.488 378.594 191.544 376.404 199.609 370.898C202.336 369.063 205.005 366.872 207.91 364.327C208.918 363.439 209.867 362.551 210.816 361.663C211.468 361.071 212.061 360.479 212.713 359.887C214.018 358.644 216.034 356.809 216.983 355.21L217.457 354.381L231.926 380.784L243.548 414.647L225.047 438.031L224.869 438.149L192.968 479.293C190.714 483.022 188.817 488.706 188.046 493.797C186.445 504.808 189.766 514.813 197.652 522.745C205.538 530.737 215.797 535.059 227.241 535.355C231.51 535.473 237.737 534.941 242.54 533.283L243.073 533.105L243.192 533.638C243.785 535.828 244.734 538.078 245.445 539.736C247.58 544.472 250.367 548.912 253.687 552.76C258.313 558.206 263.887 562.409 270.172 565.369C278.058 569.04 287.131 570.638 297.152 570.164C297.152 570.164 297.152 570.164 297.211 570.164L297.804 570.046H297.923Z" fill="white"/>
<path fill-rule="evenodd" clip-rule="evenodd" d="M134.379 122.907C117.361 121.368 100.343 119.828 83.3245 118.349C71.1686 117.283 58.9535 116.277 46.7977 115.27C42.5283 114.915 38.2589 114.619 33.9896 114.323C32.6257 114.264 31.3212 114.145 29.9574 114.086C29.2458 114.086 28.5936 114.027 27.882 114.086C23.2568 114.441 21.5372 117.224 22.8418 121.545C25.5101 130.425 29.2458 138.417 34.5232 146.054C37.9032 151.027 42.0539 155.585 46.5605 159.552C47.9836 160.795 52.8459 164.702 54.5655 164.702C55.0399 164.702 55.455 164.583 55.8701 164.524C56.8781 164.347 57.8269 164.169 58.8349 163.991C62.0962 163.399 65.3576 162.807 68.6189 162.215C78.1657 160.499 87.7124 158.723 97.2592 156.947C110.72 154.46 124.18 151.974 137.581 149.488C138.055 149.428 138.352 148.955 138.293 148.481L135.15 123.617C135.15 123.203 134.735 122.848 134.32 122.848L134.379 122.907Z" fill="#D8EFFC"/>
<path fill-rule="evenodd" clip-rule="evenodd" d="M292.765 234.561C292.528 233.318 292.231 232.075 291.994 230.832C290.986 226.096 289.919 221.419 288.733 216.742C285.353 203.481 281.202 190.162 275.45 177.73C271.952 170.093 266.437 158.608 259.974 153.28C255.289 149.491 250.664 149.314 245.031 150.735C239.22 152.215 234.476 156.299 232.045 161.805C229.08 168.554 230.147 176.013 233.29 182.466C241.117 198.568 275.509 226.569 291.342 235.627C291.697 235.805 292.112 235.805 292.409 235.627C292.705 235.39 292.883 235.035 292.824 234.621L292.765 234.561Z" fill="#D8EFFC"/>
<path fill-rule="evenodd" clip-rule="evenodd" d="M304.561 235.624C320.393 226.566 354.785 198.565 362.612 182.462C365.755 176.01 366.822 168.55 363.858 161.802C361.426 156.355 356.683 152.211 350.872 150.731C345.238 149.311 340.613 149.429 335.929 153.277C329.406 158.605 323.951 170.149 320.452 177.726C314.701 190.218 310.55 203.478 307.17 216.739C305.984 221.416 304.917 226.093 303.909 230.829C303.671 232.072 303.375 233.315 303.138 234.558C303.078 234.973 303.197 235.328 303.553 235.565C303.849 235.801 304.264 235.801 304.62 235.565L304.561 235.624Z" fill="#D8EFFC"/>
<path fill-rule="evenodd" clip-rule="evenodd" d="M297.915 110.359C293.349 110.122 288.605 110.418 284.099 110.951C274.018 112.075 263.938 114.503 254.569 118.41C254.213 118.528 254.035 118.824 253.976 119.179C253.976 119.534 254.035 119.83 254.332 120.067C258.364 123.56 262.159 127.349 265.776 131.197C272.358 138.242 279.829 147.358 283.268 156.416C286.53 165.059 289.376 173.821 291.748 182.701C293.883 190.811 295.602 198.981 297.025 207.209C297.085 207.683 297.5 208.038 298.033 208.038C298.567 208.038 298.923 207.683 299.041 207.209C300.465 198.981 302.184 190.811 304.319 182.701C306.631 173.761 309.537 165 312.798 156.416C316.238 147.358 323.709 138.242 330.291 131.197C333.908 127.349 337.703 123.56 341.735 120.067C342.032 119.83 342.15 119.475 342.091 119.179C342.091 118.824 341.794 118.528 341.498 118.41C332.07 114.562 322.049 112.075 311.968 110.951C307.462 110.477 302.718 110.122 298.152 110.359H297.915Z" fill="#D8EFFC"/>
<path fill-rule="evenodd" clip-rule="evenodd" d="M332.545 419.616C331.004 433.765 330.411 448.151 330.944 462.418C331.181 468.811 331.596 475.264 332.545 481.658C333.198 486.157 334.087 491.071 335.925 495.214C338.653 501.549 343.219 507.114 349.386 510.429C354.189 513.034 360.118 514.158 365.396 512.382C370.91 510.547 374.231 506.048 375.417 500.483C377.255 491.959 374.231 481.895 370.851 474.08C368.005 467.568 364.447 461.411 360.652 455.373C356.679 449.098 352.469 443 348.14 437.021C343.693 430.924 339.186 424.944 334.383 419.143C334.146 418.847 333.731 418.728 333.316 418.788C332.901 418.906 332.664 419.202 332.605 419.616H332.545Z" fill="#D8EFFC"/>
<path fill-rule="evenodd" clip-rule="evenodd" d="M297.977 547.493C313.335 546.96 320.688 539.56 322.941 527.897C324.898 517.419 322.704 506.526 321.399 496.048C320.628 489.95 318.731 483.853 316.537 477.992C314.284 472.013 311.615 466.093 308.65 460.351C305.626 454.431 302.424 448.57 298.866 442.887C298.689 442.591 298.333 442.472 297.977 442.472C297.621 442.472 297.265 442.65 297.088 442.887C293.53 448.57 290.328 454.431 287.304 460.351C284.339 466.152 281.67 472.013 279.417 477.992C277.223 483.853 275.326 489.95 274.555 496.048C273.191 506.526 270.997 517.419 273.013 527.897C275.207 539.56 282.56 546.96 297.977 547.493C297.977 547.493 297.977 547.493 298.036 547.493H297.977Z" fill="#D8EFFC"/>
<path fill-rule="evenodd" clip-rule="evenodd" d="M261.51 419.145C256.766 424.946 252.2 430.985 247.753 437.023C243.365 443.002 239.155 449.1 235.241 455.375C231.446 461.354 227.889 467.57 225.042 474.082C221.662 481.896 218.579 491.96 220.476 500.485C221.662 506.05 224.983 510.549 230.498 512.384C235.775 514.16 241.705 513.035 246.508 510.431C252.615 507.116 257.241 501.551 259.968 495.216C261.747 491.072 262.637 486.159 263.348 481.66C264.297 475.325 264.712 468.873 264.949 462.42C265.483 448.212 264.949 433.826 263.348 419.618C263.348 419.204 263.052 418.908 262.637 418.79C262.221 418.671 261.866 418.79 261.569 419.145H261.51Z" fill="#D8EFFC"/>
<path fill-rule="evenodd" clip-rule="evenodd" d="M254.153 159.906C247.512 159.906 242.175 165.233 242.175 171.864C242.175 178.494 247.512 183.822 254.153 183.822C260.794 183.822 266.131 178.494 266.131 171.864C266.131 165.233 260.794 159.906 254.153 159.906Z" fill="#222161"/>
<path fill-rule="evenodd" clip-rule="evenodd" d="M341.673 159.906C348.314 159.906 353.651 165.233 353.651 171.864C353.651 178.494 348.314 183.822 341.673 183.822C335.032 183.822 329.695 178.494 329.695 171.864C329.695 165.233 335.032 159.906 341.673 159.906Z" fill="#222161"/>
<path fill-rule="evenodd" clip-rule="evenodd" d="M150.687 125.22C150.687 125.872 150.687 126.582 150.687 127.233C150.687 157.484 169.899 184.479 198.54 194.366C199.014 194.543 199.548 194.307 199.666 193.833L205.418 177.494C205.418 177.494 205.477 177.02 205.418 176.783C205.299 176.547 205.122 176.428 204.884 176.31C184.605 170.567 170.611 152.038 170.611 131.022C170.611 129.601 170.67 128.24 170.789 126.878C170.789 126.641 170.789 126.404 170.551 126.227C170.374 126.049 170.196 125.931 169.959 125.931L151.754 124.332C151.754 124.332 151.28 124.332 151.043 124.569C150.865 124.747 150.746 124.984 150.746 125.22H150.687ZM152.525 180.039C151.517 176.428 149.145 170.627 146.181 168.318C143.927 166.542 141.2 166.246 138.413 166.364C134.084 166.483 129.755 167.43 125.545 168.14C119.497 169.206 113.389 170.153 107.282 171.159C97.3793 172.758 87.536 174.356 77.6334 175.955C64.4695 178.086 51.3057 180.158 38.1418 182.289C37.786 182.289 37.5488 182.585 37.4302 182.881C36.6001 185.367 36.4222 188.742 36.6001 191.406C37.193 198.865 40.9287 205.081 46.4433 210.054C52.4916 215.441 59.4293 219.881 66.8414 223.137C69.9249 224.498 73.2455 225.801 76.5068 226.511C76.5068 226.511 76.5068 226.511 76.5661 226.511C78.4636 226.748 80.8948 226.334 82.6144 225.564C87.7139 223.196 92.6355 220.591 97.4979 217.868C103.428 214.553 109.298 211.178 115.168 207.686C125.96 201.233 136.693 194.603 147.129 187.499C149.383 185.959 152.703 183.177 152.585 180.217C152.585 180.158 152.585 180.099 152.585 180.039H152.525ZM163.377 195.135L72.8304 248.415C71.6445 249.125 70.3992 250.487 69.747 251.73C68.0274 254.868 69.2133 257.887 71.4073 260.433C75.3209 264.932 83.5038 269.313 88.8405 272.036C92.2205 273.753 95.719 275.351 99.2175 276.713C101.649 277.66 104.258 278.725 106.867 279.258C109.061 279.673 111.848 280.324 114.042 280.028C115.702 279.85 116.769 279.14 118.074 278.193C120.979 276.061 123.885 274.049 126.79 272.036C132.72 267.833 138.65 263.629 144.58 259.367C151.517 254.394 158.396 249.303 165.215 244.212C171.085 239.772 176.956 235.332 182.589 230.655C186.621 227.281 194.804 220.295 196.523 215.441C197.472 212.718 196.286 211.297 194.27 209.698C193.559 209.166 192.788 208.751 192.017 208.337C190.712 207.626 189.408 206.975 188.103 206.324C184.723 204.607 181.284 203.009 177.786 201.41C173.279 199.339 168.713 197.267 164.207 195.195C163.91 195.076 163.614 195.076 163.377 195.195V195.135ZM193.855 238.943C183.419 246.817 173.042 254.809 162.724 262.801C154.541 269.194 146.358 275.647 138.235 282.159C134.736 285.001 131.297 287.842 127.917 290.684C125.367 292.874 122.818 295.005 120.446 297.314C117.007 300.629 109.535 307.733 109.298 312.647C109.061 316.85 114.16 319.1 117.422 320.461C120.327 321.645 123.114 323.066 126.02 324.25C129.4 325.671 132.839 326.855 136.397 327.565C146.181 329.637 155.549 328.216 164.8 324.664C165.63 324.487 166.638 323.954 167.349 323.48C169.721 322.06 171.856 319.988 173.694 317.916C180.751 309.746 187.866 301.636 194.982 293.525C194.982 293.525 194.982 293.466 195.041 293.407C197.354 289.796 198.895 284.349 198.895 280.028C198.895 274.641 198.717 269.313 198.48 263.985C198.243 258.183 197.947 252.441 197.532 246.639C197.413 245.041 197.116 239.18 195.753 238.41C195.634 238.351 195.515 238.292 195.397 238.292C194.922 238.292 194.389 238.588 193.974 238.825C193.974 238.825 193.974 238.825 193.914 238.825L193.855 238.943ZM158.633 350.357C157.21 351.659 159.107 354.323 160.056 355.448C166.045 362.493 173.576 366.459 182.885 363.795C188.874 362.079 194.27 357.639 198.54 353.258C201.623 350.061 204.232 346.568 206.841 343.016C207.375 342.306 208.442 341.063 208.561 340.175C208.679 339.227 207.908 337.215 207.612 336.267C206.13 331.532 204.884 324.546 205.24 319.632C205.418 317.56 205.062 315.311 204.588 313.298C204.351 312.292 203.817 310.634 203.283 309.805C203.105 309.568 202.928 309.45 202.631 309.391C202.335 309.391 202.097 309.391 201.92 309.628L158.692 350.298C158.692 350.298 158.692 350.298 158.633 350.298V350.357ZM437.209 350.357C438.632 351.659 436.735 354.323 435.786 355.448C429.797 362.493 422.266 366.459 412.957 363.795C406.968 362.079 401.572 357.639 397.302 353.258C394.219 350.061 391.61 346.568 389.001 343.016C388.467 342.306 387.4 341.063 387.281 340.175C387.163 339.227 387.934 337.215 388.23 336.267C389.712 331.532 390.958 324.546 390.602 319.632C390.424 317.56 390.78 315.311 391.254 313.298C391.491 312.292 392.025 310.634 392.559 309.805C392.737 309.568 392.914 309.45 393.211 309.391C393.507 309.391 393.745 309.391 393.922 309.628L437.15 350.298C437.15 350.298 437.15 350.298 437.209 350.298V350.357ZM401.987 238.943C412.423 246.817 422.8 254.809 433.118 262.801C441.301 269.194 449.484 275.647 457.607 282.159C461.106 285.001 464.545 287.842 467.925 290.684C470.475 292.874 473.024 295.005 475.396 297.314C478.836 300.629 486.307 307.733 486.544 312.647C486.781 316.85 481.682 319.1 478.42 320.461C475.515 321.645 472.728 323.066 469.822 324.25C466.442 325.671 463.003 326.855 459.445 327.565C449.661 329.637 440.293 328.216 431.042 324.664C430.212 324.487 429.204 323.954 428.493 323.48C426.121 322.06 423.986 319.988 422.148 317.916C415.091 309.746 407.976 301.636 400.86 293.525C400.86 293.525 400.86 293.466 400.801 293.407C398.488 289.796 396.947 284.349 396.947 280.028C396.947 274.641 397.125 269.313 397.362 263.985C397.599 258.183 397.895 252.441 398.31 246.639C398.429 245.041 398.726 239.18 400.089 238.41C400.208 238.351 400.327 238.292 400.445 238.292C400.919 238.292 401.453 238.588 401.868 238.825C401.868 238.825 401.868 238.825 401.928 238.825L401.987 238.943ZM461.402 122.852C478.42 121.313 495.439 119.774 512.457 118.294C524.613 117.228 536.828 116.222 548.984 115.216C553.253 114.86 557.522 114.564 561.792 114.268C563.156 114.209 564.46 114.091 565.824 114.032C566.535 114.032 567.188 113.972 567.899 114.032C572.524 114.387 574.244 117.169 572.939 121.491C570.271 130.371 566.535 138.363 561.258 146C557.878 150.972 553.727 155.531 549.221 159.497C547.798 160.74 542.935 164.647 541.216 164.647C540.741 164.647 540.326 164.529 539.911 164.47C538.903 164.292 537.954 164.115 536.946 163.937C533.685 163.345 530.424 162.753 527.162 162.161C517.616 160.444 508.069 158.668 498.522 156.892C485.062 154.406 471.601 151.92 458.2 149.433C457.726 149.374 457.429 148.9 457.489 148.427L460.631 123.563C460.631 123.148 461.046 122.793 461.462 122.793L461.402 122.852ZM443.257 179.98C444.265 176.369 446.637 170.567 449.602 168.259C451.855 166.483 454.583 166.187 457.37 166.305C461.699 166.423 466.027 167.371 470.237 168.081C476.286 169.147 482.393 170.094 488.501 171.1C498.403 172.699 508.247 174.297 518.149 175.895C531.313 178.027 544.477 180.099 557.641 182.23C557.997 182.23 558.234 182.526 558.353 182.822C559.183 185.308 559.361 188.683 559.183 191.347C558.59 198.806 554.854 205.022 549.339 209.994C543.291 215.382 536.353 219.822 528.941 223.078C525.858 224.439 522.537 225.742 519.276 226.452C519.276 226.452 519.276 226.452 519.217 226.452C517.319 226.689 514.888 226.274 513.168 225.505C508.069 223.137 503.147 220.532 498.285 217.809C492.355 214.494 486.485 211.119 480.614 207.626C469.822 201.174 459.09 194.543 448.653 187.439C446.4 185.9 443.08 183.118 443.198 180.158C443.198 180.099 443.198 180.039 443.198 179.98H443.257ZM432.406 195.076L522.952 248.356C524.138 249.066 525.383 250.428 526.036 251.671C527.755 254.809 526.569 257.828 524.435 260.373C520.521 264.873 512.338 269.253 507.001 271.977C503.622 273.693 500.123 275.292 496.625 276.653C494.193 277.601 491.584 278.666 488.975 279.199C486.781 279.613 483.994 280.265 481.8 279.969C480.14 279.791 479.073 279.081 477.768 278.133C474.863 276.002 471.957 273.989 469.051 271.977C463.122 267.773 457.192 263.57 451.262 259.308C444.325 254.335 437.446 249.244 430.627 244.153C424.757 239.713 418.886 235.273 413.253 230.596C409.221 227.222 401.038 220.236 399.319 215.382C398.37 212.658 399.556 211.238 401.572 209.639C402.283 209.106 403.054 208.692 403.825 208.278C405.13 207.567 406.434 206.916 407.739 206.265C411.119 204.548 414.558 202.95 418.056 201.351C422.563 199.279 427.129 197.207 431.635 195.135C431.932 195.017 432.228 195.017 432.465 195.135L432.406 195.076ZM445.036 125.102C445.036 125.753 445.036 126.464 445.036 127.115C445.036 157.366 425.824 184.361 397.184 194.247C396.709 194.425 396.176 194.188 396.057 193.715L390.305 177.375C390.305 177.375 390.246 176.902 390.305 176.665C390.424 176.428 390.602 176.31 390.839 176.191C411.119 170.449 425.113 151.92 425.113 130.904C425.113 129.483 425.053 128.121 424.935 126.76C424.935 126.523 424.935 126.286 425.172 126.108C425.35 125.931 425.528 125.812 425.765 125.812L443.969 124.214C443.969 124.214 444.443 124.214 444.681 124.451C444.858 124.628 444.977 124.865 444.977 125.102H445.036Z" fill="#D8EFFC"/>
<path fill-rule="evenodd" clip-rule="evenodd" d="M108.877 120.606C108.877 120.606 101.287 143.753 94.2303 157.606C85.6916 159.204 77.2122 160.743 68.6734 162.282C65.4121 162.874 62.1508 163.466 58.8895 164.058C57.8814 164.236 56.9327 164.414 55.9246 164.591C55.5096 164.65 55.0352 164.769 54.6201 164.769C52.9005 164.769 48.0382 160.862 46.615 159.618C42.0492 155.711 37.9577 151.094 34.5778 146.121C29.3004 138.484 25.624 130.433 22.8963 121.612C21.5918 117.231 23.2521 114.449 27.9366 114.153C28.6481 114.153 29.3004 114.153 30.0119 114.153C31.3758 114.212 32.7396 114.271 34.0441 114.39C38.3135 114.686 42.5829 114.982 46.8522 115.337C59.0081 116.284 71.2232 117.35 83.379 118.415C91.9178 119.126 100.397 119.895 108.936 120.665L108.877 120.606ZM129.334 167.492C129.512 172.524 128.03 187.442 109.292 211.122C105.378 213.431 101.465 215.68 97.4917 217.871C92.6293 220.594 87.6484 223.199 82.6082 225.567C80.8886 226.396 78.4574 226.751 76.5599 226.514C76.5599 226.514 76.5599 226.514 76.5006 226.514C73.2393 225.744 69.9187 224.442 66.8352 223.14C59.4231 219.884 52.4261 215.503 46.4371 210.057C40.9225 205.143 37.1868 198.868 36.5939 191.409C36.416 188.804 36.5939 185.429 37.424 182.884C37.5426 182.529 37.7798 182.292 38.1356 182.292C51.2995 180.22 64.4634 178.089 77.6273 175.957C87.5298 174.359 97.3731 172.761 107.276 171.162C113.383 170.156 119.431 169.209 125.539 168.143C126.844 167.906 128.089 167.67 129.393 167.433L129.334 167.492ZM163.311 195.197H164.201C164.201 195.197 166.928 199.282 174.281 202.065C181.634 204.847 174.815 222.607 171.198 228.231C168.885 231.842 157.5 245.991 149.732 255.581C148.013 256.824 146.293 258.067 144.573 259.311C138.644 263.573 132.714 267.776 126.784 271.979C123.879 274.051 120.914 276.064 118.068 278.136C116.763 279.083 115.636 279.794 114.035 279.971C111.841 280.208 109.055 279.616 106.861 279.202C104.252 278.669 101.642 277.663 99.2113 276.656C95.6535 275.235 92.2143 273.637 88.8343 271.979C83.4976 269.315 75.2554 264.935 71.4011 260.376C69.2071 257.831 68.0805 254.811 69.7408 251.674C70.393 250.431 71.6383 249.128 72.8242 248.359L163.311 195.079V195.197ZM176.178 252.443C176.178 252.443 183.65 259.37 184.065 265.349C184.539 271.328 185.132 284.115 178.135 294.594C171.138 305.072 168.885 316.734 169.122 322.358C168.529 322.832 167.936 323.246 167.284 323.602C166.572 324.016 165.564 324.608 164.734 324.786C155.484 328.338 146.115 329.758 136.331 327.686C132.773 326.917 129.334 325.733 125.954 324.371C123.049 323.187 120.262 321.826 117.356 320.582C114.154 319.221 108.995 317.03 109.232 312.768C109.47 307.854 116.941 300.75 120.38 297.435C122.811 295.127 125.302 292.936 127.852 290.805C131.232 287.904 134.73 285.063 138.169 282.28C146.234 275.709 154.417 269.315 162.659 262.922C167.106 259.429 171.613 255.995 176.119 252.503L176.178 252.443ZM184.895 325.733L191.003 359.891C188.512 361.608 185.785 363.029 182.938 363.857C173.629 366.521 166.098 362.496 160.109 355.51C159.16 354.385 157.263 351.721 158.686 350.419C158.686 350.419 158.686 350.419 158.745 350.419L184.895 325.851V325.733ZM487.012 120.606C487.012 120.606 494.602 143.753 501.658 157.606C510.197 159.204 518.677 160.743 527.215 162.282C530.477 162.874 533.738 163.466 536.999 164.058C538.007 164.236 538.956 164.414 539.964 164.591C540.379 164.65 540.854 164.769 541.269 164.769C542.988 164.769 547.851 160.862 549.274 159.618C553.84 155.711 557.931 151.094 561.311 146.121C566.588 138.484 570.265 130.433 572.993 121.612C574.297 117.231 572.637 114.449 567.952 114.153C567.241 114.153 566.588 114.153 565.877 114.153C564.513 114.212 563.149 114.271 561.845 114.39C557.575 114.686 553.306 114.982 549.037 115.337C536.881 116.284 524.666 117.35 512.51 118.415C503.971 119.126 495.492 119.895 486.953 120.665L487.012 120.606ZM466.555 167.492C466.377 172.524 467.859 187.442 486.597 211.122C490.511 213.431 494.424 215.68 498.397 217.871C503.26 220.594 508.24 223.199 513.281 225.567C515 226.396 517.431 226.751 519.329 226.514C519.329 226.514 519.329 226.514 519.388 226.514C522.65 225.744 525.97 224.442 529.054 223.14C536.466 219.884 543.463 215.503 549.452 210.057C554.966 205.143 558.702 198.868 559.295 191.409C559.473 188.804 559.295 185.429 558.465 182.884C558.346 182.529 558.109 182.292 557.753 182.292C544.589 180.22 531.425 178.089 518.262 175.957C508.359 174.359 498.516 172.761 488.613 171.162C482.506 170.156 476.457 169.209 470.35 168.143C469.045 167.906 467.8 167.67 466.496 167.433L466.555 167.492ZM432.578 195.197H431.688C431.688 195.197 428.961 199.282 421.608 202.065C414.255 204.847 421.074 222.607 424.691 228.231C427.004 231.842 438.389 245.991 446.157 255.581C447.876 256.824 449.596 258.067 451.316 259.311C457.245 263.573 463.175 267.776 469.105 271.979C472.01 274.051 474.975 276.064 477.821 278.136C479.126 279.083 480.252 279.794 481.853 279.971C484.047 280.208 486.834 279.616 489.028 279.202C491.578 278.669 494.246 277.663 496.678 276.656C500.235 275.235 503.675 273.637 507.055 271.979C512.391 269.315 520.633 264.935 524.488 260.376C526.682 257.831 527.808 254.811 526.089 251.674C525.436 250.431 524.191 249.128 523.005 248.359L432.518 195.079L432.578 195.197ZM419.71 252.443C419.71 252.443 412.239 259.37 411.824 265.349C411.35 271.328 410.757 284.115 417.754 294.594C424.751 305.072 427.004 316.734 426.767 322.358C427.36 322.832 427.953 323.246 428.605 323.602C429.316 324.016 430.324 324.608 431.155 324.786C440.405 328.338 449.774 329.758 459.558 327.686C463.116 326.917 466.555 325.733 469.935 324.371C472.84 323.187 475.627 321.826 478.533 320.582C481.735 319.221 486.894 317.03 486.656 312.768C486.419 307.854 478.948 300.75 475.509 297.435C473.077 295.127 470.587 292.936 468.037 290.805C464.657 287.904 461.159 285.063 457.72 282.28C449.655 275.709 441.472 269.315 433.23 262.922C428.783 259.429 424.276 255.995 419.77 252.503L419.71 252.443ZM410.994 325.733L404.886 359.891C407.377 361.608 410.104 363.029 412.951 363.857C422.26 366.521 429.791 362.496 435.78 355.51C436.729 354.385 438.626 351.721 437.203 350.419C437.203 350.419 437.203 350.419 437.144 350.419L410.994 325.851V325.733Z" fill="#B4E0D9"/>
<path d="M331.194 378.538C328.525 372.5 325.086 367.054 321.706 361.785C320.58 360.009 319.394 358.115 318.267 356.279C316.132 352.787 313.76 348.998 311.448 345.327C308.72 341.006 305.933 336.566 303.443 332.422L298.758 324.608L294.074 332.422C291.88 336.092 289.686 339.94 287.551 343.729C285.179 347.932 282.689 352.254 280.317 356.22C279.19 358.055 278.004 359.891 276.878 361.726C273.498 366.995 270.059 372.441 267.39 378.479C260.868 393.338 264.07 407.132 276.7 418.321C280.376 414.177 281.029 408.079 278.123 403.402C274.743 397.956 274.209 392.095 276.403 385.583H322.24C324.434 392.154 323.9 397.956 320.52 403.402C317.615 408.079 318.267 414.177 321.943 418.321C334.574 407.132 337.776 393.338 331.253 378.479L331.194 378.538ZM289.627 361.963C292.117 357.878 294.608 353.438 297.039 349.175C297.632 348.11 298.284 347.044 298.877 345.919C300.004 347.695 301.071 349.412 302.198 351.188C304.451 354.799 306.823 358.529 308.957 361.963C310.143 363.857 311.329 365.811 312.515 367.646C314.057 370.014 315.48 372.382 316.903 374.691H281.74C283.104 372.382 284.586 370.014 286.128 367.646C287.314 365.811 288.5 363.916 289.686 361.963H289.627Z" fill="#D8EFFC"/>
<path d="M344.833 218.045C340.268 223.196 339.734 230.655 343.292 236.515C347.798 243.975 347.976 252.026 343.944 261.202C341.157 267.595 337.362 273.515 333.389 279.79C331.966 282.04 330.484 284.349 329.061 286.717C326.511 290.92 323.664 295.419 320.878 299.859C319.573 301.99 318.209 304.122 316.845 306.253C316.074 304.95 315.363 303.648 314.592 302.346C312.102 297.965 309.611 293.525 307.002 289.262C307.476 288.493 307.951 287.723 308.425 287.013C312.517 280.619 316.727 273.989 319.929 266.648C320.996 264.221 321.826 261.794 322.479 259.426C314.118 259.426 306.468 264.043 302.673 271.443C301.428 273.87 300.183 276.12 299.175 277.659C298.167 276.061 296.922 273.811 295.676 271.443C291.822 264.043 284.173 259.426 275.871 259.426C276.524 261.794 277.354 264.221 278.421 266.648C281.623 273.989 285.833 280.619 289.925 287.013C290.399 287.723 290.873 288.493 291.348 289.262C289.213 292.755 286.9 296.366 284.647 299.918C283.343 302.05 281.979 304.181 280.615 306.312C279.844 305.01 279.133 303.707 278.362 302.405C275.397 297.195 272.373 291.808 269.349 286.835C267.926 284.526 266.443 282.158 265.02 279.909C261.047 273.634 257.252 267.714 254.465 261.32C250.433 252.144 250.611 244.093 255.117 236.634C258.675 230.773 258.142 223.314 253.576 218.164C238.218 231.779 234.304 248.592 242.25 266.648C245.452 273.989 249.662 280.619 253.754 287.013C255.177 289.203 256.6 291.453 257.964 293.702C260.929 298.557 263.893 303.826 266.799 308.917C269.408 313.475 272.076 318.211 274.745 322.651L280.437 332.182L286.13 322.651C289.094 317.678 292.534 312.232 295.854 306.963C296.862 305.306 297.93 303.648 298.997 301.99C300.302 304.299 301.606 306.608 302.911 308.858C305.52 313.416 308.188 318.152 310.856 322.592L316.549 332.123L322.241 322.592C325.206 317.619 328.645 312.173 331.966 306.904C334.753 302.464 337.659 297.906 340.268 293.584C341.631 291.334 343.055 289.085 344.478 286.894C348.569 280.501 352.779 273.871 355.981 266.53C363.927 248.474 360.013 231.72 344.656 218.045H344.833Z" fill="#D8EFFC"/>
</g>
</svg>
