<svg width="277" height="95" viewBox="0 0 277 95" fill="none" xmlns="http://www.w3.org/2000/svg">
<path fill-rule="evenodd" clip-rule="evenodd" d="M41.3192 0.0737915L42.6653 0.549982L42.7556 0.582823C52.9993 4.77823 74.4552 14.6715 81.2762 22.9474L82.5566 24.4991L81.9821 26.4285C81.3582 28.5221 80.5949 30.6403 79.8233 32.6846C77.8616 37.9309 75.6372 43.1034 73.2076 48.1526C65.6316 63.9408 55.8968 79.0475 44.11 92.0196C43.2317 92.9802 42.3042 93.949 41.3192 94.885C40.3342 93.949 39.4067 92.9884 38.5285 92.0196C26.7416 79.0475 17.0069 63.9408 9.4308 48.1526C7.00941 43.1034 4.77681 37.9309 2.81508 32.6846C2.05173 30.6403 1.28838 28.5221 0.656353 26.4285L0.0817871 24.4991L1.36225 22.9474C8.19137 14.6797 29.6473 4.78644 39.891 0.582823L39.9813 0.549982L41.3274 0.0737915H41.3192Z" fill="#28245F"/>
<path d="M41.3195 94.9836L41.2702 94.9343C40.3427 94.0558 39.407 93.0952 38.4713 92.069C32.7338 85.7553 27.3001 78.7274 22.3342 71.1823C17.5899 63.9819 13.2314 56.2397 9.35722 48.1855C6.85375 42.9639 4.62115 37.7586 2.7415 32.7094C1.99456 30.7061 1.2148 28.5632 0.582774 26.445L0 24.4828L1.30509 22.8982C4.30104 19.2611 10.3586 14.9754 19.3054 10.1642C28.0224 5.49261 36.5834 1.86371 39.8667 0.517241L39.957 0.484401L41.3277 0L42.6985 0.484401L42.7887 0.525452C46.0638 1.87192 54.6248 5.50082 63.3336 10.1806C72.2804 14.9918 78.338 19.2775 81.3339 22.9146L82.639 24.4992L82.0562 26.4614C81.4242 28.5714 80.6444 30.7225 79.8975 32.7258C78.0178 37.7668 75.7935 42.9721 73.2818 48.202C69.4158 56.2562 65.0491 63.9984 60.3048 71.1987C55.3389 78.7438 49.9134 85.7718 44.1677 92.0854C43.2402 93.1117 42.2963 94.0722 41.3687 94.9507L41.3195 95V94.9836ZM0.17237 24.5238L0.738728 26.4121C1.37075 28.5222 2.14231 30.665 2.88925 32.6601C4.7689 37.7011 6.99329 42.8982 9.49675 48.1199C17.4914 64.7701 27.2755 79.5238 38.578 91.9704C39.4891 92.9721 40.4084 93.9163 41.3113 94.7783C42.2142 93.9163 43.1335 92.9721 44.0446 91.9704C55.3553 79.5238 65.1394 64.7783 73.1258 48.1199C75.6293 42.8982 77.8537 37.6929 79.7333 32.6601C80.4803 30.6568 81.26 28.514 81.8839 26.4121L82.4502 24.5238L81.1944 23.0049C78.2066 19.3842 72.1655 15.1149 63.2351 10.312C54.5591 5.62397 45.9981 1.99507 42.7231 0.656814L42.6328 0.623974L41.3195 0.164204L39.998 0.632184L39.9159 0.665025C36.6409 2.00328 28.0799 5.63218 19.3793 10.312C10.4571 15.1067 4.41595 19.376 1.42821 22.9967L0.17237 24.5156V24.5238Z" fill="white"/>
<path fill-rule="evenodd" clip-rule="evenodd" d="M41.3195 4.08057C41.3195 4.08057 70.7701 16.1495 78.3626 25.3531C78.3626 25.3531 67.9876 60.1479 41.3195 89.4829C14.6597 60.1479 4.27643 25.3531 4.27643 25.3531C11.8771 16.1495 41.3195 4.08057 41.3195 4.08057Z" fill="#D8EFFC"/>
<path fill-rule="evenodd" clip-rule="evenodd" d="M41.3183 83.2429C51.2254 71.6419 59.5074 58.4482 66.0821 44.7372C68.405 39.9014 70.5391 34.9506 72.4187 29.926C72.8455 28.7766 73.2806 27.6025 73.6828 26.4202C66.9029 20.123 49.9532 12.192 41.3183 8.54667C32.6834 12.192 15.7337 20.123 8.9538 26.4202C9.356 27.6025 9.79103 28.7766 10.2178 29.926C12.0975 34.9506 14.2316 39.9014 16.5545 44.7372C23.1292 58.4482 31.4111 71.6419 41.3183 83.2429ZM41.3183 85.238C51.7426 73.284 60.4103 59.573 67.264 45.3037C69.6034 40.435 71.7539 35.4432 73.6417 30.3858C74.167 28.9654 74.7006 27.5122 75.1848 26.059C68.4953 19.3595 50.2323 10.8619 41.3265 7.13452C32.4207 10.8619 14.1495 19.3595 7.46814 26.059C7.94421 27.5122 8.47773 28.9654 9.01126 30.3858C10.8991 35.4514 13.0578 40.435 15.3889 45.3037C22.2345 59.573 30.9104 73.284 41.3347 85.238H41.3183Z" fill="#28245F"/>
<path d="M41.3195 85.3448L41.2621 85.2791C31.2482 73.7931 22.5148 60.3448 15.3081 45.3284C12.8867 40.2791 10.7362 35.2627 8.92221 30.4023C8.4051 29.023 7.86336 27.5451 7.37909 26.0755L7.36267 26.0345L7.3955 26.0016C15.3409 18.046 38.6519 8.1691 41.2785 7.06073H41.3031H41.3277C43.9625 8.16089 67.2735 18.046 75.2107 26.0016L75.2435 26.0345L75.2271 26.0755C74.7428 27.5451 74.2011 29.023 73.684 30.4023C71.87 35.2627 69.7277 40.2791 67.2981 45.3284C60.0914 60.3448 51.358 73.7931 41.3441 85.2791L41.2867 85.3448H41.3195ZM7.54325 26.0755C8.01932 27.5287 8.56105 28.9901 9.06995 30.353C10.8839 35.2052 13.0262 40.2217 15.4476 45.2709C22.6379 60.2545 31.3385 73.6617 41.3195 85.1231C51.3006 73.6617 60.0093 60.2463 67.1914 45.2709C69.6128 40.2299 71.7551 35.2052 73.5691 30.353C74.078 28.9901 74.6115 27.5287 75.0958 26.0755C67.1668 18.1773 44.0774 8.36615 41.3195 7.21672C38.5616 8.37436 15.4641 18.1773 7.54325 26.0755ZM41.3195 83.3497L41.2621 83.2841C31.7325 72.1346 23.4013 59.1708 16.4819 44.7701C14.0769 39.7619 11.9428 34.7701 10.1452 29.9507C9.73481 28.8423 9.29157 27.6519 8.88117 26.445L8.86475 26.3957L8.89758 26.3629C15.0454 20.6568 30.1811 13.1609 41.2867 8.48109H41.3113H41.3359C52.4333 13.1691 67.5772 20.665 73.725 26.3629L73.7579 26.3957L73.7415 26.445C73.3311 27.6519 72.8878 28.8423 72.4774 29.9507C70.6798 34.7701 68.5457 39.7537 66.1408 44.7701C59.2296 59.179 50.8901 72.1346 41.3606 83.2841L41.3031 83.3497H41.3195ZM9.04533 26.445C9.45573 27.6354 9.88255 28.8095 10.293 29.9015C12.0905 34.7208 14.2246 39.6962 16.6214 44.7044C23.5162 59.0722 31.8228 71.9951 41.3195 83.1281C50.8163 72.0033 59.1229 59.0722 66.0176 44.7044C68.4226 39.6962 70.5485 34.7126 72.3461 29.9015C72.7565 28.8095 73.1833 27.6354 73.5937 26.445C67.4459 20.7635 52.3758 13.3087 41.3113 8.62887C30.2468 13.3005 15.1768 20.7635 9.02891 26.445H9.04533Z" fill="white"/>
<path fill-rule="evenodd" clip-rule="evenodd" d="M41.3199 17.9384C29.3197 17.9384 18.3455 26.8793 18.3455 39.2849C18.3455 51.6905 29.3197 60.6314 41.3199 60.6314C53.3201 60.6314 64.2943 51.6905 64.2943 39.2849C64.2943 26.8793 53.3201 17.9384 41.3199 17.9384ZM41.3199 20.4672C30.0256 20.4672 20.8735 28.8908 20.8735 39.2849C20.8735 49.679 30.0256 58.1026 41.3199 58.1026C52.6142 58.1026 61.7662 49.679 61.7662 39.2849C61.7662 28.8908 52.6142 20.4672 41.3199 20.4672Z" fill="#28245F"/>
<path fill-rule="evenodd" clip-rule="evenodd" d="M52.7961 19.2468C53.1162 19.3453 53.4446 19.5013 53.7401 19.6573C54.487 20.0514 55.1847 20.5604 55.7921 21.1434C56.0055 20.9792 56.2189 20.6836 56.3666 20.4537C56.7853 19.7805 56.9905 18.9923 57.0561 18.2041C57.1054 17.5391 57.1546 16.8741 57.1875 16.2008C57.1875 16.0941 57.1957 15.9792 57.1957 15.8724C57.1957 15.8067 57.2449 15.7493 57.3106 15.7493L79.5709 13.8363C79.9156 13.787 80.3343 13.9266 80.6051 14.1319C81.4423 14.7805 81.4506 16.209 81.3603 17.1614C81.2043 18.746 80.5395 20.2156 79.5709 21.4636C79.1359 22.0218 78.5941 22.6212 78.0278 23.0481C78.3643 23.1466 78.7583 23.434 78.9963 23.6967C79.6694 24.4356 79.7679 25.4373 79.6119 26.3897C79.3985 27.6704 79.021 28.7952 78.1755 29.7969C77.1659 30.9874 75.6474 31.8248 74.2521 32.4734C74.4408 32.7115 74.605 33.0071 74.7363 33.2862C75.0318 33.902 75.2042 34.5916 75.1878 35.2813C75.1632 36.1516 74.6707 37.0136 74.1125 37.6622C73.4969 38.3847 72.6597 39.0169 71.7732 39.3782C71.0509 39.6737 70.3204 39.9365 69.5817 40.1746C69.278 40.2731 68.9743 40.3716 68.6706 40.4537C68.6377 40.4619 68.6131 40.4948 68.6131 40.5276C68.5967 40.6343 68.7444 40.7739 68.8101 40.8396C69.122 41.1269 69.4257 41.6278 69.5899 42.0136C69.8607 42.6212 69.9756 43.3108 69.7376 43.943C69.1959 45.3634 67.0782 46.3897 65.7239 46.8494C64.6486 47.2189 63.4666 47.613 62.3175 47.613C62.5473 47.7443 62.7854 47.966 62.9577 48.1713C63.2861 48.5818 63.3928 49.0498 63.1055 49.5177C62.6951 50.1828 61.6198 50.8478 60.9385 51.2172C59.97 51.7427 58.8537 52.2025 57.7702 52.4241C56.7442 52.6294 55.6361 52.0711 54.8071 51.5046C54.4049 51.2255 54.0191 50.9135 53.6498 50.5851C53.4199 50.3798 53.2065 50.1663 52.9849 49.9611C52.7879 49.7805 52.5171 49.526 52.3775 49.2961L50.4404 52.8264L48.8398 57.4816L51.3679 60.6836L51.3925 60.7C51.3925 60.7 51.4008 60.7082 51.409 60.7164L55.8249 66.4225C55.8249 66.4225 55.8249 66.4225 55.8331 66.4307C56.1697 66.9972 56.4241 67.8182 56.5144 68.4668C56.736 70.0268 56.2681 71.4225 55.1683 72.5473C54.0438 73.6885 52.6155 74.2796 51.015 74.3207C50.3501 74.3371 49.5047 74.255 48.8727 74.0333C48.7988 74.3207 48.6757 74.6163 48.5525 74.8872C48.2571 75.544 47.8631 76.168 47.3952 76.7099C46.755 77.457 45.9752 78.0563 45.0805 78.4751C43.8986 79.0251 42.6017 79.2058 41.3048 79.1483C41.3048 79.1483 41.2884 79.1483 41.2802 79.1483L41.2145 79.1319L41.1489 79.1483C41.1489 79.1483 41.1324 79.1483 41.1242 79.1483C39.8274 79.2058 38.5305 79.0251 37.3485 78.4751C36.4538 78.0563 35.6741 77.457 35.0338 76.7099C34.566 76.1598 34.172 75.544 33.8765 74.8872C33.7534 74.6163 33.6302 74.3207 33.5564 74.0333C32.9244 74.255 32.0871 74.3371 31.4141 74.3207C29.8135 74.2796 28.3935 73.6885 27.2608 72.5473C26.1527 71.4307 25.6848 70.0268 25.9146 68.4668C26.0049 67.8182 26.2594 66.9972 26.5959 66.4307C26.5959 66.4307 26.5959 66.4307 26.6041 66.4225L31.0201 60.7164C31.0201 60.7164 31.0283 60.7082 31.0365 60.7L31.0611 60.6836L33.5892 57.4816L31.9886 52.8264L30.0515 49.2961C29.9202 49.526 29.6411 49.7805 29.4441 49.9611C29.2225 50.1663 29.0091 50.3798 28.7793 50.5851C28.4099 50.9135 28.0323 51.2255 27.6219 51.5046C26.7929 52.0711 25.693 52.6294 24.6588 52.4241C23.5753 52.2025 22.459 51.7427 21.4905 51.2172C20.8092 50.8478 19.734 50.1828 19.3236 49.5177C19.0363 49.0498 19.1348 48.5818 19.4713 48.1713C19.6355 47.966 19.8817 47.7526 20.1115 47.613C18.9624 47.613 17.7804 47.2189 16.7052 46.8494C15.3508 46.3897 13.2249 45.3552 12.6914 43.943C12.4534 43.3108 12.5683 42.613 12.8392 42.0136C13.0115 41.6278 13.3152 41.1269 13.6189 40.8396C13.6846 40.7739 13.8323 40.6343 13.8159 40.5276C13.8159 40.4948 13.7831 40.4619 13.7585 40.4537C13.4548 40.3716 13.1511 40.2731 12.8474 40.1746C12.1086 39.9365 11.3781 39.6655 10.6558 39.3782C9.76935 39.0169 8.94033 38.3847 8.31651 37.6622C7.76657 37.0136 7.26588 36.1516 7.24126 35.2813C7.22484 34.5916 7.39721 33.9102 7.6927 33.2862C7.82403 33.0071 7.98819 32.7115 8.17698 32.4734C6.7816 31.8166 5.26311 30.9874 4.25351 29.7969C3.40808 28.7952 3.03051 27.6704 2.8171 26.3897C2.66114 25.4373 2.75964 24.4356 3.4327 23.6967C3.67074 23.434 4.05652 23.1466 4.40126 23.0481C3.8349 22.6212 3.29317 22.0218 2.85814 21.4636C1.88958 20.2074 1.22473 18.746 1.06878 17.1614C0.978486 16.2008 0.986694 14.7805 1.82392 14.1319C2.09479 13.9266 2.5134 13.787 2.85814 13.8363L25.1185 15.7493C25.1841 15.7493 25.2334 15.8067 25.2334 15.8724C25.2334 15.9792 25.2334 16.0941 25.2416 16.2008C25.2662 16.8659 25.3237 17.5391 25.3729 18.2041C25.4304 18.9923 25.6438 19.7805 26.0624 20.4537C26.2019 20.6836 26.4235 20.9792 26.637 21.1434C27.2444 20.5522 27.942 20.0514 28.689 19.6573C28.9845 19.5013 29.3128 19.3453 29.6329 19.2468C31.1186 16.1516 33.4989 13.8281 36.7657 12.6787C37.7507 12.3338 38.7849 12.1039 39.8274 12.0136C40.246 11.9726 40.6892 11.948 41.116 11.9808H41.1899H41.2638C41.6906 11.948 42.1256 11.9808 42.5524 12.0136C43.5949 12.1039 44.6291 12.3338 45.6141 12.6787C48.8809 13.8281 51.253 16.1516 52.7469 19.2468H52.7961Z" fill="#447EF7"/>
<path d="M41.7895 79.2381C41.6336 79.2381 41.4858 79.2381 41.3217 79.2299C41.3053 79.2299 41.2971 79.2299 41.2889 79.2299H41.2396H41.1904C41.1739 79.2299 41.1657 79.2299 41.1575 79.2299C39.7457 79.2956 38.4653 79.0657 37.349 78.5484C36.4543 78.1297 35.6663 77.5304 35.0097 76.7668C34.5418 76.2167 34.1478 75.601 33.8441 74.9195C33.7456 74.6979 33.6225 74.4187 33.5404 74.1314C32.9741 74.3202 32.1943 74.4187 31.4474 74.4023C29.8222 74.3612 28.3693 73.7455 27.2448 72.6125C26.1203 71.4713 25.6442 70.0427 25.8741 68.4745C25.9808 67.7438 26.2516 66.9392 26.5718 66.4138C26.5718 66.4138 26.58 66.3974 26.5882 66.3974L31.0041 60.6913C31.0041 60.6913 31.0205 60.6749 31.0287 60.6667L31.0452 60.6502L33.5404 57.4893L31.9563 52.8752L30.0766 49.4516C29.9207 49.665 29.6908 49.8785 29.5267 50.0263C29.4364 50.1084 29.3543 50.1905 29.264 50.2726C29.1327 50.3957 29.0013 50.5271 28.8618 50.6502C28.4596 51.0115 28.0738 51.3153 27.6963 51.578C26.5471 52.3662 25.5375 52.6782 24.6839 52.5057C23.4363 52.2512 22.2625 51.7094 21.4992 51.2988C20.8671 50.954 19.7344 50.2726 19.3076 49.5747C19.0285 49.1149 19.0778 48.6141 19.4553 48.1461C19.5785 47.9901 19.7426 47.8341 19.915 47.7028C18.8151 47.6535 17.707 47.2759 16.7221 46.9392C15.0886 46.3809 13.1597 45.3136 12.659 43.9836C12.38 43.2447 12.5852 42.4975 12.8068 41.9967C12.9627 41.6355 13.2664 41.11 13.6112 40.798C13.7918 40.6338 13.7918 40.5681 13.7836 40.5517C13.7836 40.5517 13.7836 40.5435 13.7753 40.5435C13.4552 40.4532 13.1351 40.3547 12.8642 40.2644C12.1255 40.0263 11.3868 39.7553 10.6645 39.4598C9.81084 39.1149 8.94899 38.4828 8.30055 37.7274C7.90657 37.2676 7.2335 36.3317 7.20888 35.3054C7.19246 34.6486 7.34842 33.9425 7.66853 33.2775C7.80807 32.9819 7.95581 32.7274 8.11177 32.5222C6.84772 31.9228 5.28819 31.0854 4.24576 29.8621C3.48241 28.9672 3.03917 27.8998 2.79293 26.422C2.60414 25.2808 2.82576 24.3284 3.42495 23.6716C3.63015 23.4499 3.96669 23.1872 4.29501 23.0476C3.70403 22.5796 3.18692 21.9721 2.84218 21.5287C1.80796 20.1905 1.18414 18.688 1.0364 17.1855C0.888654 15.6502 1.15131 14.6075 1.81617 14.0903C2.11987 13.8522 2.5631 13.7291 2.90784 13.7783L25.16 15.6913C25.2667 15.6995 25.3405 15.7816 25.3405 15.8883C25.3405 15.9704 25.3405 16.0525 25.3405 16.1264V16.2085C25.3734 16.8489 25.4144 17.4647 25.4719 18.2118C25.5375 19.0575 25.7674 19.821 26.1449 20.4286C26.227 20.5599 26.424 20.8637 26.6538 21.0607C27.2612 20.4778 27.9425 19.9934 28.673 19.6075C28.9275 19.4762 29.264 19.3038 29.6005 19.197C31.1519 15.9951 33.6225 13.7208 36.758 12.6207C37.7594 12.2676 38.7936 12.046 39.8442 11.9474C40.2382 11.9146 40.6979 11.8818 41.1411 11.9146C41.1411 11.9146 41.1493 11.9146 41.1575 11.9146H41.215H41.2806C41.2806 11.9146 41.2806 11.9146 41.2971 11.9146C41.7485 11.8818 42.2082 11.9146 42.5939 11.9474C43.6364 12.0378 44.6788 12.2676 45.6802 12.6207C48.8157 13.7208 51.2863 15.9951 52.8376 19.197C53.1742 19.3038 53.5107 19.468 53.7651 19.6075C54.4957 19.9934 55.1769 20.4778 55.7843 21.0607C56.0059 20.8637 56.2111 20.5599 56.2932 20.4286C56.6708 19.821 56.9006 19.0575 56.9663 18.2118C57.0238 17.4729 57.073 16.8571 57.0976 16.2085V16.1264C57.0976 16.0443 57.1058 15.9704 57.1058 15.8883C57.1058 15.7816 57.1879 15.6995 57.2864 15.6913L79.5467 13.7783C79.8833 13.7291 80.3265 13.8522 80.6302 14.0903C81.2951 14.6075 81.5577 15.6502 81.41 17.1855C81.2622 18.688 80.6384 20.1905 79.6042 21.5287C79.2677 21.9639 78.7423 22.5796 78.1514 23.0476C78.4797 23.179 78.8162 23.4499 79.0214 23.6716C79.6288 24.3284 79.8422 25.2808 79.6534 26.422C79.4072 27.8998 78.964 28.9672 78.2006 29.8621C77.1664 31.0854 75.6069 31.9228 74.3346 32.5222C74.4824 32.7192 74.6301 32.9737 74.7778 33.2775C75.098 33.9425 75.2539 34.6404 75.2375 35.3054C75.2129 36.3317 74.5398 37.2676 74.1458 37.7274C73.4974 38.4828 72.6355 39.1149 71.7819 39.4598C71.0678 39.7471 70.3291 40.0181 69.5821 40.2644C69.3113 40.3547 68.9911 40.4532 68.671 40.5435C68.671 40.5435 68.671 40.5435 68.671 40.5517C68.671 40.5599 68.671 40.6338 68.8434 40.798C69.1799 41.11 69.4836 41.6437 69.6478 41.9967C69.8694 42.4975 70.0746 43.2529 69.7955 43.9836C69.2948 45.3054 67.3659 46.3727 65.7325 46.9392C64.7476 47.2759 63.6395 47.6535 62.5396 47.7028C62.712 47.8341 62.8761 47.9901 62.9992 48.1461C63.3768 48.6223 63.4343 49.1149 63.147 49.5747C62.7202 50.2726 61.5874 50.954 60.9554 51.2988C60.1921 51.7094 59.0183 52.2594 57.7707 52.5057C56.917 52.6782 55.8992 52.3662 54.7583 51.578C54.3807 51.3153 53.995 51.0115 53.5928 50.6502C53.4532 50.5271 53.3219 50.3957 53.1906 50.2726C53.1003 50.1905 53.0182 50.1084 52.9279 50.0263C52.7638 49.8785 52.5339 49.6568 52.378 49.4516L50.4983 52.8752L48.9142 57.4893L51.4094 60.6502L51.4258 60.6667C51.4258 60.6667 51.4423 60.6831 51.4505 60.6913L55.8664 66.3974C55.8664 66.3974 55.8746 66.4056 55.8828 66.4138C56.2029 66.9392 56.4738 67.7521 56.5805 68.4745C56.8103 70.0427 56.3343 71.4795 55.2098 72.6125C54.0935 73.7455 52.6406 74.3695 51.0072 74.4023C50.2603 74.4187 49.4887 74.3202 48.9142 74.1314C48.8321 74.4187 48.709 74.7061 48.6105 74.9195C48.3068 75.5928 47.9128 76.2167 47.4449 76.7668C46.7883 77.5386 46.0003 78.1379 45.1056 78.5484C44.1206 79.0082 42.9961 79.2381 41.7649 79.2381H41.7895ZM41.2396 79.0575L41.3217 79.0739C41.3217 79.0739 41.3217 79.0739 41.3299 79.0739C42.7171 79.1396 43.9811 78.9097 45.0646 78.4089C45.9346 78.0066 46.7062 77.4154 47.3464 76.6601C47.8061 76.1182 48.1919 75.5107 48.4873 74.8539C48.594 74.624 48.7254 74.312 48.7992 74.0082L48.8157 73.9343L48.8895 73.9589C49.5462 74.1888 50.4162 74.2627 51.0072 74.2463C52.5996 74.2053 54.0114 73.6059 55.1031 72.4975C56.1947 71.3974 56.6544 70.0016 56.4328 68.4828C56.3343 67.7767 56.0634 66.9885 55.7597 66.4713L51.3438 60.757L51.3109 60.7323L48.7582 57.4975L50.3752 52.7931L52.378 49.1478L52.4436 49.2627C52.575 49.4844 52.854 49.7471 53.0346 49.9113C53.1249 49.9934 53.2152 50.0755 53.2973 50.1576C53.4286 50.2808 53.5599 50.4121 53.6995 50.5271C54.1017 50.8883 54.471 51.1839 54.8486 51.4384C55.9649 52.202 56.9417 52.5057 57.7543 52.3415C58.9855 52.0952 60.1428 51.5534 60.9062 51.1429C61.53 50.8062 62.6381 50.1412 63.0485 49.4762C63.3029 49.0657 63.2537 48.6387 62.9089 48.2118C62.7448 48.0066 62.5067 47.8013 62.2933 47.6699L62.0635 47.5304H62.3344C63.4917 47.5304 64.6737 47.1281 65.7161 46.7668C67.3167 46.2167 69.2045 45.1741 69.6888 43.9015C69.9515 43.2118 69.7545 42.4975 69.5411 42.0213C69.3851 41.6765 69.0978 41.1675 68.7777 40.8719C68.6136 40.7241 68.5397 40.601 68.5561 40.4942C68.5643 40.4368 68.6136 40.3793 68.671 40.3629C68.9911 40.2726 69.303 40.174 69.5821 40.0837C70.3209 39.8456 71.0514 39.5747 71.7655 39.2873C72.6027 38.9507 73.4399 38.3268 74.0719 37.5878C74.4577 37.1363 75.1062 36.2414 75.1308 35.2561C75.1472 34.624 74.9913 33.9425 74.6876 33.2939C74.5316 32.9655 74.3674 32.6946 74.2115 32.4975L74.154 32.4236L74.2361 32.3826C75.5002 31.7915 77.0925 30.954 78.1349 29.7225C78.8737 28.844 79.3169 27.8095 79.5549 26.3563C79.6781 25.5928 79.6781 24.5172 78.9558 23.7291C78.7423 23.4992 78.3648 23.2036 78.02 23.1051L77.8805 23.064L77.9954 22.9737C78.6192 22.5057 79.1692 21.8571 79.5221 21.3974C80.5399 20.0837 81.1555 18.6059 81.2951 17.1281C81.4346 15.6667 81.1884 14.6404 80.5727 14.1642C80.3019 13.9507 79.8997 13.8358 79.596 13.8768L57.3275 15.7898C57.3275 15.7898 57.2782 15.8144 57.2782 15.8391C57.2782 15.9212 57.2782 16.0033 57.2782 16.0854V16.1675C57.2454 16.8161 57.2043 17.4318 57.1469 18.1708C57.0812 19.041 56.8432 19.8292 56.4492 20.4532C56.3589 20.601 56.1209 20.9622 55.8582 21.1593L55.809 21.2003L55.7597 21.1593C55.1523 20.5681 54.4628 20.0755 53.7241 19.6814C53.4614 19.5419 53.1249 19.3777 52.7884 19.2709H52.7555L52.7391 19.2299C51.2124 16.0525 48.7582 13.7947 45.6473 12.7028C44.6624 12.358 43.6364 12.1281 42.6021 12.0378C42.2164 12.0049 41.7649 11.9721 41.3299 12.0049H41.2478H41.1657C40.7225 11.9721 40.271 12.0049 39.8853 12.0378C38.8511 12.1281 37.825 12.358 36.8401 12.7028C33.7292 13.7947 31.2832 16.0525 29.7483 19.2299L29.7319 19.2627H29.699C29.3625 19.3777 29.026 19.5419 28.7633 19.6814C28.0246 20.0673 27.3433 20.5681 26.7277 21.1593L26.6785 21.2003L26.6292 21.1593C26.3666 20.954 26.1285 20.5928 26.0382 20.4532C25.6524 19.8292 25.4062 19.0328 25.3405 18.1708C25.2831 17.4318 25.2338 16.8079 25.2092 16.1675V16.0854C25.2092 16.0033 25.201 15.9212 25.201 15.8391C25.201 15.8144 25.1764 15.7898 25.1518 15.7898L2.89143 13.8768C2.58773 13.8358 2.18553 13.9507 1.91466 14.1642C1.29906 14.6404 1.04461 15.6667 1.19235 17.1281C1.33189 18.6059 1.9475 20.0837 2.9653 21.3974C3.31825 21.8571 3.8764 22.4975 4.492 22.9737L4.60692 23.064L4.46738 23.1051C4.12264 23.2036 3.74507 23.4992 3.53166 23.7291C2.80935 24.5172 2.80935 25.5928 2.93247 26.3563C3.1705 27.8095 3.61374 28.8522 4.35247 29.7225C5.39489 30.954 6.97905 31.7915 8.25131 32.3826L8.33339 32.4236L8.27593 32.4975C8.11177 32.7028 7.95581 32.9655 7.79986 33.2939C7.49616 33.9425 7.34021 34.6158 7.35662 35.2561C7.38125 36.2414 8.02969 37.1363 8.41547 37.5878C9.04749 38.3268 9.89292 38.9425 10.7219 39.2873C11.436 39.5747 12.1666 39.8456 12.9053 40.0837C13.1762 40.174 13.4963 40.2726 13.8082 40.3629C13.8656 40.3793 13.9149 40.4368 13.9231 40.4942C13.9395 40.5928 13.8656 40.7159 13.7015 40.8719C13.3814 41.1675 13.0859 41.6765 12.9381 42.0213C12.7247 42.4975 12.5277 43.2118 12.7904 43.9015C13.2747 45.1741 15.1625 46.2167 16.7631 46.7668C17.8055 47.1199 18.9875 47.5304 20.1448 47.5304H20.4157L20.1859 47.6699C19.9725 47.8013 19.7344 48.0066 19.5703 48.2118C19.2255 48.6387 19.1763 49.0657 19.4307 49.4762C19.8411 50.1494 20.9492 50.8062 21.573 51.1429C22.3282 51.5534 23.4855 52.087 24.7249 52.3415C25.5375 52.5057 26.5143 52.202 27.6306 51.4384C28.0082 51.1839 28.3775 50.8801 28.7797 50.5271C28.9193 50.4039 29.0506 50.2808 29.1819 50.1576C29.2722 50.0755 29.3543 49.9934 29.4446 49.9113C29.6252 49.7389 29.9042 49.4844 30.0356 49.2627L30.1012 49.1478L32.104 52.8095L33.7128 57.5057L31.1519 60.7488L31.1272 60.7652L26.7113 66.4713C26.3994 66.9885 26.1367 67.7767 26.03 68.4828C25.8084 70.0099 26.2681 71.3974 27.3597 72.4975C28.4514 73.6059 29.8714 74.2053 31.4556 74.2463C32.0465 74.2627 32.9084 74.1888 33.5733 73.9589L33.6471 73.9343L33.6635 74.0082C33.7456 74.312 33.877 74.624 33.9754 74.8539C34.2709 75.5107 34.6567 76.1264 35.1164 76.6601C35.7566 77.4154 36.5282 77.9984 37.3982 78.4089C38.4899 78.9179 39.7457 79.1396 41.1329 79.0739C41.1329 79.0739 41.1329 79.0739 41.1411 79.0739L41.2232 79.0575H41.2396Z" fill="white"/>
<path fill-rule="evenodd" clip-rule="evenodd" d="M18.6013 17.0455C16.2455 16.832 13.8898 16.6186 11.5341 16.4133C9.85145 16.2655 8.16058 16.126 6.47793 15.9864C5.88694 15.9371 5.29596 15.8961 4.70498 15.855C4.51619 15.8468 4.33562 15.8304 4.14683 15.8222C4.04833 15.8222 3.95804 15.814 3.85955 15.8222C3.21932 15.8715 2.98128 16.2573 3.16186 16.8567C3.53122 18.0882 4.04833 19.1966 4.77885 20.2557C5.24671 20.9453 5.82128 21.5775 6.44509 22.1276C6.64209 22.3 7.31515 22.8419 7.55318 22.8419C7.61885 22.8419 7.67631 22.8255 7.73376 22.8173C7.8733 22.7926 8.00463 22.768 8.14417 22.7434C8.59561 22.6613 9.04706 22.5792 9.4985 22.4971C10.82 22.259 12.1415 22.0127 13.463 21.7664C15.3262 21.4215 17.1895 21.0767 19.0445 20.7319C19.1102 20.7237 19.1512 20.658 19.143 20.5923L18.708 17.144C18.708 17.0866 18.6505 17.0373 18.5931 17.0373L18.6013 17.0455Z" fill="#D8EFFC"/>
<path fill-rule="evenodd" clip-rule="evenodd" d="M40.5256 32.5304C40.4928 32.358 40.4517 32.1856 40.4189 32.0132C40.2794 31.3564 40.1316 30.7078 39.9675 30.0592C39.4996 28.2201 38.925 26.3728 38.1289 24.6486C37.6446 23.5895 36.8812 21.9968 35.9865 21.2578C35.3381 20.7324 34.6979 20.7078 33.9181 20.9048C33.1137 21.1101 32.4571 21.6766 32.1205 22.4401C31.7101 23.3761 31.8579 24.4105 32.2929 25.3055C33.3764 27.5386 38.1371 31.422 40.3286 32.6782C40.3779 32.7028 40.4353 32.7028 40.4764 32.6782C40.5174 32.6454 40.542 32.5961 40.5338 32.5386L40.5256 32.5304Z" fill="#D8EFFC"/>
<path fill-rule="evenodd" clip-rule="evenodd" d="M42.1585 32.6778C44.35 31.4216 49.1107 27.5382 50.1942 25.305C50.6292 24.4101 50.777 23.3756 50.3666 22.4397C50.03 21.6843 49.3734 21.1096 48.569 20.9044C47.7892 20.7073 47.149 20.7237 46.5006 21.2574C45.5977 21.9963 44.8425 23.5973 44.3582 24.6482C43.5621 26.3806 42.9875 28.2196 42.5196 30.0587C42.3555 30.7073 42.2077 31.3559 42.0682 32.0128C42.0354 32.1852 41.9943 32.3576 41.9615 32.53C41.9533 32.5875 41.9697 32.6367 42.0189 32.6696C42.06 32.7024 42.1174 32.7024 42.1667 32.6696L42.1585 32.6778Z" fill="#D8EFFC"/>
<path fill-rule="evenodd" clip-rule="evenodd" d="M41.2385 15.3052C40.6065 15.2724 39.9498 15.3134 39.326 15.3873C37.9306 15.5433 36.5353 15.8799 35.2384 16.4218C35.1891 16.4382 35.1645 16.4793 35.1563 16.5285C35.1563 16.5778 35.1645 16.6188 35.2056 16.6517C35.7637 17.1361 36.289 17.6615 36.7897 18.1952C37.7008 19.1722 38.735 20.4366 39.2111 21.6927C39.6625 22.8914 40.0565 24.1065 40.3849 25.338C40.6804 26.4628 40.9184 27.5958 41.1154 28.7371C41.1236 28.8027 41.181 28.852 41.2549 28.852C41.3288 28.852 41.378 28.8027 41.3945 28.7371C41.5914 27.5958 41.8295 26.4628 42.125 25.338C42.4451 24.0983 42.8473 22.8832 43.2987 21.6927C43.7748 20.4366 44.809 19.1722 45.7201 18.1952C46.2208 17.6615 46.7461 17.1361 47.3043 16.6517C47.3453 16.6188 47.3617 16.5696 47.3535 16.5285C47.3535 16.4793 47.3125 16.4382 47.2714 16.4218C45.9664 15.8881 44.5792 15.5433 43.1838 15.3873C42.56 15.3216 41.9034 15.2724 41.2713 15.3052H41.2385Z" fill="#D8EFFC"/>
<path fill-rule="evenodd" clip-rule="evenodd" d="M46.0322 58.195C45.8188 60.1572 45.7367 62.1523 45.8106 64.131C45.8434 65.0177 45.9009 65.9126 46.0322 66.7993C46.1225 67.4232 46.2456 68.1047 46.5001 68.6794C46.8776 69.5579 47.5097 70.3296 48.3633 70.7894C49.0281 71.1507 49.849 71.3067 50.5795 71.0604C51.3428 70.8058 51.8025 70.1819 51.9666 69.4101C52.2211 68.2278 51.8025 66.8321 51.3346 65.7484C50.9406 64.8452 50.4481 63.9914 49.9228 63.1539C49.3729 62.2837 48.7901 61.438 48.1909 60.6088C47.5753 59.7631 46.9515 58.9339 46.2866 58.1293C46.2538 58.0883 46.1964 58.0718 46.1389 58.0801C46.0814 58.0965 46.0486 58.1375 46.0404 58.195H46.0322Z" fill="#D8EFFC"/>
<path fill-rule="evenodd" clip-rule="evenodd" d="M41.2471 75.9296C43.373 75.8557 44.3908 74.8294 44.7027 73.212C44.9736 71.7588 44.6699 70.2482 44.4893 68.795C44.3826 67.9493 44.1199 67.1037 43.8162 66.2909C43.5043 65.4616 43.135 64.6406 42.7245 63.8442C42.3059 63.0232 41.8627 62.2104 41.3702 61.4222C41.3456 61.3812 41.2963 61.3647 41.2471 61.3647C41.1978 61.3647 41.1486 61.3894 41.124 61.4222C40.6315 62.2104 40.1882 63.0232 39.7696 63.8442C39.3592 64.6488 38.9899 65.4616 38.678 66.2909C38.3743 67.1037 38.1116 67.9493 38.0049 68.795C37.8161 70.2482 37.5124 71.7588 37.7915 73.212C38.0952 74.8294 39.113 75.8557 41.2471 75.9296C41.2471 75.9296 41.2471 75.9296 41.2553 75.9296H41.2471Z" fill="#D8EFFC"/>
<path fill-rule="evenodd" clip-rule="evenodd" d="M36.1992 58.1296C35.5426 58.9342 34.9106 59.7716 34.295 60.6091C33.6876 61.4383 33.1048 62.2839 32.563 63.1542C32.0377 63.9834 31.5452 64.8455 31.1513 65.7486C30.6834 66.8324 30.2566 68.2281 30.5192 69.4104C30.6834 70.1821 31.143 70.8061 31.9064 71.0606C32.6369 71.3069 33.4577 71.1509 34.1226 70.7897C34.968 70.3299 35.6082 69.5582 35.9858 68.6797C36.2321 68.1049 36.3552 67.4235 36.4537 66.7995C36.585 65.921 36.6425 65.0261 36.6753 64.1312C36.7492 62.1608 36.6753 60.1657 36.4537 58.1953C36.4537 58.1378 36.4126 58.0967 36.3552 58.0803C36.2977 58.0639 36.2485 58.0803 36.2074 58.1296H36.1992Z" fill="#D8EFFC"/>
<path fill-rule="evenodd" clip-rule="evenodd" d="M35.1809 22.1767C34.2616 22.1767 33.5228 22.9156 33.5228 23.8352C33.5228 24.7547 34.2616 25.4936 35.1809 25.4936C36.1002 25.4936 36.8389 24.7547 36.8389 23.8352C36.8389 22.9156 36.1002 22.1767 35.1809 22.1767Z" fill="#447EF7"/>
<path fill-rule="evenodd" clip-rule="evenodd" d="M47.2957 22.1767C48.215 22.1767 48.9537 22.9156 48.9537 23.8352C48.9537 24.7547 48.215 25.4936 47.2957 25.4936C46.3764 25.4936 45.6376 24.7547 45.6376 23.8352C45.6376 22.9156 46.3764 22.1767 47.2957 22.1767Z" fill="#447EF7"/>
<path fill-rule="evenodd" clip-rule="evenodd" d="M20.8587 17.3663C20.8587 17.4567 20.8587 17.5552 20.8587 17.6455C20.8587 21.8409 23.5181 25.5847 27.4826 26.9558C27.5483 26.9805 27.6222 26.9476 27.6386 26.8819L28.4348 24.6159C28.4348 24.6159 28.443 24.5503 28.4348 24.5174C28.4184 24.4846 28.3937 24.4682 28.3609 24.4517C25.5537 23.6553 23.6166 21.0856 23.6166 18.1709C23.6166 17.9739 23.6248 17.7851 23.6413 17.5962C23.6413 17.5634 23.6413 17.5306 23.6084 17.5059C23.5838 17.4813 23.5592 17.4649 23.5263 17.4649L21.0065 17.2432C21.0065 17.2432 20.9408 17.2432 20.908 17.276C20.8833 17.3007 20.8669 17.3335 20.8669 17.3663H20.8587ZM21.1132 24.969C20.9736 24.4682 20.6453 23.6636 20.2349 23.3434C19.923 23.0971 19.5454 23.056 19.1596 23.0724C18.5604 23.0888 17.9613 23.2202 17.3785 23.3187C16.5413 23.4665 15.6958 23.5979 14.8504 23.7374C13.4796 23.9591 12.1171 24.1808 10.7463 24.4025C8.92415 24.698 7.10196 24.9854 5.27976 25.281C5.23052 25.281 5.19768 25.322 5.18127 25.3631C5.06635 25.7079 5.04173 26.1759 5.06635 26.5453C5.14844 27.5798 5.66554 28.4419 6.4289 29.1315C7.26612 29.8787 8.22647 30.4944 9.25248 30.946C9.6793 31.1348 10.139 31.3154 10.5904 31.414C10.5904 31.414 10.5904 31.414 10.5986 31.414C10.8613 31.4468 11.1978 31.3893 11.4358 31.2826C12.1417 30.9542 12.823 30.5929 13.4961 30.2153C14.3169 29.7555 15.1295 29.2875 15.9421 28.8031C17.4359 27.9082 18.9216 26.9887 20.3662 26.0035C20.6781 25.79 21.1378 25.4041 21.1214 24.9936C21.1214 24.9854 21.1214 24.9772 21.1214 24.969H21.1132ZM22.6152 27.0626L10.0815 34.4517C9.91733 34.5503 9.74496 34.7391 9.65467 34.9115C9.41664 35.3466 9.5808 35.7654 9.8845 36.1184C10.4262 36.7424 11.559 37.3499 12.2977 37.7276C12.7655 37.9657 13.2498 38.1874 13.7341 38.3762C14.0706 38.5076 14.4318 38.6553 14.7929 38.7292C15.0966 38.7867 15.4824 38.877 15.7861 38.836C16.0159 38.8113 16.1637 38.7128 16.3443 38.5815C16.7465 38.2859 17.1487 38.0067 17.5509 37.7276C18.3717 37.1447 19.1925 36.5618 20.0133 35.9706C20.9736 35.281 21.9258 34.5749 22.8697 33.8688C23.6823 33.253 24.4949 32.6373 25.2747 31.9887C25.8328 31.5207 26.9655 30.5519 27.2036 29.8787C27.3349 29.501 27.1707 29.3039 26.8917 29.0823C26.7932 29.0084 26.6865 28.9509 26.5797 28.8934C26.3992 28.7949 26.2186 28.7046 26.038 28.6143C25.5702 28.3762 25.0941 28.1545 24.6098 27.9329C23.986 27.6455 23.354 27.3581 22.7302 27.0708C22.6891 27.0544 22.6481 27.0544 22.6152 27.0708V27.0626ZM26.8342 33.1381C25.3896 34.2301 23.9532 35.3384 22.525 36.4468C21.3922 37.3335 20.2595 38.2284 19.135 39.1315C18.6507 39.5256 18.1747 39.9197 17.7068 40.3138C17.3539 40.6176 17.0009 40.9131 16.6726 41.2333C16.1965 41.6931 15.1623 42.6783 15.1295 43.3598C15.0966 43.9427 15.8025 44.2547 16.254 44.4435C16.6562 44.6077 17.042 44.8048 17.4441 44.969C17.912 45.166 18.3881 45.3302 18.8806 45.4288C20.2349 45.7161 21.5318 45.5191 22.8122 45.0265C22.9272 45.0018 23.0667 44.9279 23.1652 44.8622C23.4935 44.6652 23.789 44.3778 24.0434 44.0905C25.0202 42.9575 26.0052 41.8327 26.9902 40.7079C26.9902 40.7079 26.9902 40.6997 26.9984 40.6915C27.3185 40.1907 27.5319 39.4353 27.5319 38.836C27.5319 38.0888 27.5073 37.3499 27.4744 36.611C27.4416 35.8064 27.4006 35.01 27.3431 34.2054C27.3267 33.9838 27.2856 33.1709 27.0969 33.0642C27.0804 33.056 27.064 33.0478 27.0476 33.0478C26.9819 33.0478 26.9081 33.0888 26.8506 33.1217C26.8506 33.1217 26.8506 33.1217 26.8424 33.1217L26.8342 33.1381ZM21.9586 48.5897C21.7616 48.7703 22.0243 49.1398 22.1556 49.2957C22.9846 50.2728 24.027 50.8228 25.3157 50.4534C26.1447 50.2153 26.8917 49.5995 27.4826 48.992C27.9095 48.5486 28.2706 48.0642 28.6318 47.5716C28.7056 47.4731 28.8534 47.3007 28.8698 47.1775C28.8862 47.0462 28.7795 46.767 28.7385 46.6356C28.5333 45.9788 28.3609 45.01 28.4101 44.3286C28.4348 44.0412 28.3855 43.7292 28.3199 43.4501C28.287 43.3105 28.2132 43.0806 28.1393 42.9657C28.1147 42.9329 28.09 42.9164 28.049 42.9082C28.008 42.9082 27.9751 42.9082 27.9505 42.9411L21.9668 48.5815C21.9668 48.5815 21.9668 48.5815 21.9586 48.5815V48.5897ZM60.5202 48.5897C60.7172 48.7703 60.4545 49.1398 60.3232 49.2957C59.4942 50.2728 58.4517 50.8228 57.1631 50.4534C56.3341 50.2153 55.5871 49.5995 54.9961 48.992C54.5693 48.5486 54.2082 48.0642 53.847 47.5716C53.7731 47.4731 53.6254 47.3007 53.609 47.1775C53.5926 47.0462 53.6993 46.767 53.7403 46.6356C53.9455 45.9788 54.1179 45.01 54.0686 44.3286C54.044 44.0412 54.0933 43.7292 54.1589 43.4501C54.1917 43.3105 54.2656 43.0806 54.3395 42.9657C54.3641 42.9329 54.3887 42.9164 54.4298 42.9082C54.4708 42.9082 54.5037 42.9082 54.5283 42.9411L60.512 48.5815C60.512 48.5815 60.512 48.5815 60.5202 48.5815V48.5897ZM55.6446 33.1381C57.0892 34.2301 58.5256 35.3384 59.9538 36.4468C61.0865 37.3335 62.2193 38.2284 63.3438 39.1315C63.828 39.5256 64.3041 39.9197 64.772 40.3138C65.1249 40.6176 65.4779 40.9131 65.8062 41.2333C66.2823 41.6931 67.3165 42.6783 67.3493 43.3598C67.3821 43.9427 66.6762 44.2547 66.2248 44.4435C65.8226 44.6077 65.4368 44.8048 65.0346 44.969C64.5668 45.166 64.0907 45.3302 63.5982 45.4288C62.2439 45.7161 60.947 45.5191 59.6665 45.0265C59.5516 45.0018 59.4121 44.9279 59.3136 44.8622C58.9853 44.6652 58.6898 44.3778 58.4353 44.0905C57.4586 42.9575 56.4736 41.8327 55.4886 40.7079C55.4886 40.7079 55.4886 40.6997 55.4804 40.6915C55.1603 40.1907 54.9469 39.4353 54.9469 38.836C54.9469 38.0888 54.9715 37.3499 55.0043 36.611C55.0372 35.8064 55.0782 35.01 55.1357 34.2054C55.1521 33.9838 55.1931 33.1709 55.3819 33.0642C55.3983 33.056 55.4148 33.0478 55.4312 33.0478C55.4968 33.0478 55.5707 33.0888 55.6282 33.1217C55.6282 33.1217 55.6282 33.1217 55.6364 33.1217L55.6446 33.1381ZM63.8691 17.0379C66.2248 16.8245 68.5805 16.611 70.9362 16.4058C72.6189 16.258 74.3098 16.1184 75.9924 15.9788C76.5834 15.9296 77.1744 15.8885 77.7654 15.8475C77.9542 15.8393 78.1347 15.8228 78.3235 15.8146C78.422 15.8146 78.5123 15.8064 78.6108 15.8146C79.251 15.8639 79.4891 16.2498 79.3085 16.8491C78.9391 18.0806 78.422 19.189 77.6915 20.2481C77.2236 20.9378 76.6491 21.57 76.0253 22.12C75.8283 22.2925 75.1552 22.8343 74.9172 22.8343C74.8515 22.8343 74.794 22.8179 74.7366 22.8097C74.5971 22.7851 74.4657 22.7604 74.3262 22.7358C73.8747 22.6537 73.4233 22.5716 72.9718 22.4895C71.6503 22.2514 70.3288 22.0051 69.0073 21.7588C67.1441 21.414 65.2809 21.0691 63.4258 20.7243C63.3602 20.7161 63.3191 20.6504 63.3273 20.5847L63.7624 17.1365C63.7624 17.079 63.8198 17.0297 63.8773 17.0297L63.8691 17.0379ZM61.3574 24.9608C61.4969 24.4599 61.8253 23.6553 62.2357 23.3351C62.5476 23.0888 62.9252 23.0478 63.3109 23.0642C63.9101 23.0806 64.5093 23.212 65.0921 23.3105C65.9293 23.4583 66.7747 23.5897 67.6202 23.7292C68.9909 23.9509 70.3535 24.1726 71.7242 24.3943C73.5464 24.6898 75.3686 24.9772 77.1908 25.2728C77.2401 25.2728 77.2729 25.3138 77.2893 25.3549C77.4042 25.6997 77.4288 26.1677 77.4042 26.5371C77.3221 27.5716 76.805 28.4337 76.0417 29.1233C75.2044 29.8705 74.2441 30.4862 73.2181 30.9378C72.7913 31.1266 72.3316 31.3072 71.8802 31.4058C71.8802 31.4058 71.8802 31.4058 71.872 31.4058C71.6093 31.4386 71.2728 31.3811 71.0347 31.2744C70.3288 30.946 69.6476 30.5847 68.9745 30.2071C68.1537 29.7473 67.3411 29.2793 66.5285 28.7949C65.0346 27.9 63.549 26.9805 62.1043 25.9952C61.7924 25.7818 61.3328 25.3959 61.3492 24.9854C61.3492 24.9772 61.3492 24.969 61.3492 24.9608H61.3574ZM59.8553 27.0544L72.3891 34.4435C72.5532 34.542 72.7256 34.7309 72.8159 34.9033C73.0539 35.3384 72.8898 35.7572 72.5943 36.1102C72.0525 36.7342 70.9198 37.3417 70.1811 37.7194C69.7132 37.9575 69.229 38.1792 68.7447 38.368C68.4082 38.4994 68.047 38.6471 67.6858 38.721C67.3821 38.7785 66.9964 38.8688 66.6927 38.8278C66.4628 38.8031 66.3151 38.7046 66.1345 38.5732C65.7323 38.2777 65.3301 37.9985 64.9279 37.7194C64.1071 37.1365 63.2863 36.5535 62.4655 35.9624C61.5052 35.2728 60.553 34.5667 59.6091 33.8606C58.7965 33.2448 57.9839 32.6291 57.2041 31.9805C56.646 31.5125 55.5133 30.5437 55.2752 29.8705C55.1439 29.4928 55.308 29.2957 55.5871 29.0741C55.6856 29.0002 55.7923 28.9427 55.899 28.8852C56.0796 28.7867 56.2602 28.6964 56.4408 28.6061C56.9086 28.368 57.3847 28.1463 57.869 27.9246C58.4928 27.6373 59.1248 27.3499 59.7486 27.0626C59.7897 27.0462 59.8307 27.0462 59.8635 27.0626L59.8553 27.0544ZM61.6037 17.3499C61.6037 17.4402 61.6037 17.5388 61.6037 17.6291C61.6037 21.8245 58.9442 25.5683 54.9797 26.9394C54.9141 26.9641 54.8402 26.9312 54.8238 26.8655L54.0276 24.5995C54.0276 24.5995 54.0194 24.5338 54.0276 24.501C54.044 24.4682 54.0686 24.4517 54.1015 24.4353C56.9086 23.6389 58.8457 21.0691 58.8457 18.1545C58.8457 17.9575 58.8375 17.7686 58.8211 17.5798C58.8211 17.547 58.8211 17.5141 58.8539 17.4895C58.8786 17.4649 58.9032 17.4484 58.936 17.4484L61.4559 17.2268C61.4559 17.2268 61.5216 17.2268 61.5544 17.2596C61.579 17.2842 61.5954 17.3171 61.5954 17.3499H61.6037Z" fill="#D8EFFC"/>
<path fill-rule="evenodd" clip-rule="evenodd" d="M15.0712 16.7263C15.0712 16.7263 14.0205 19.9365 13.0438 21.8577C11.8618 22.0794 10.688 22.2928 9.50607 22.5063C9.05462 22.5884 8.60318 22.6705 8.15174 22.7526C8.0122 22.7772 7.88087 22.8019 7.74133 22.8265C7.68387 22.8347 7.61821 22.8511 7.56075 22.8511C7.32272 22.8511 6.64966 22.3093 6.45266 22.1368C5.82064 21.595 5.25428 20.9546 4.78642 20.2649C4.0559 19.2058 3.547 18.0892 3.16943 16.8659C2.98885 16.2584 3.21868 15.8725 3.86712 15.8314C3.96561 15.8314 4.0559 15.8314 4.1544 15.8314C4.34318 15.8396 4.53197 15.8478 4.71255 15.8643C5.30353 15.9053 5.89451 15.9464 6.48549 15.9956C8.16815 16.127 9.85902 16.2748 11.5417 16.4226C12.7236 16.5211 13.8974 16.6278 15.0794 16.7345L15.0712 16.7263ZM17.9029 23.2288C17.9276 23.9267 17.7224 25.9956 15.1286 29.2797C14.5869 29.5999 14.0451 29.9119 13.4952 30.2157C12.8221 30.5933 12.1327 30.9546 11.435 31.283C11.1969 31.3979 10.8604 31.4472 10.5977 31.4143C10.5977 31.4143 10.5977 31.4143 10.5895 31.4143C10.1381 31.3076 9.67844 31.127 9.25162 30.9464C8.22561 30.4948 7.25705 29.8872 6.42804 29.1319C5.66469 28.4505 5.14758 27.5802 5.0655 26.5457C5.04087 26.1845 5.0655 25.7165 5.18041 25.3634C5.19682 25.3142 5.22966 25.2813 5.27891 25.2813C7.1011 24.994 8.9233 24.6984 10.7455 24.4028C12.1162 24.1812 13.4788 23.9595 14.8495 23.7378C15.695 23.5983 16.5322 23.4669 17.3776 23.3191C17.5582 23.2863 17.7306 23.2534 17.9111 23.2206L17.9029 23.2288ZM22.6062 27.0712H22.7293C22.7293 27.0712 23.1069 27.6377 24.1247 28.0235C25.1425 28.4094 24.1985 30.8725 23.6978 31.6524C23.3777 32.1533 21.8018 34.1155 20.7265 35.4455C20.4885 35.618 20.2505 35.7904 20.0124 35.9628C19.1916 36.5539 18.3708 37.1368 17.55 37.7198C17.1478 38.0071 16.7374 38.2863 16.3434 38.5736C16.1628 38.705 16.0069 38.8035 15.7853 38.8281C15.4816 38.861 15.0958 38.7789 14.7921 38.7214C14.4309 38.6475 14.0698 38.5079 13.7332 38.3684C13.2407 38.1713 12.7647 37.9496 12.2968 37.7198C11.5581 37.3503 10.4172 36.7428 9.88364 36.1106C9.57994 35.7575 9.42399 35.3388 9.65382 34.9037C9.7441 34.7313 9.91647 34.5506 10.0806 34.4439L22.6062 27.0547V27.0712ZM24.3873 35.0104C24.3873 35.0104 25.4215 35.971 25.479 36.8002C25.5447 37.6295 25.6267 39.4028 24.6582 40.8561C23.6896 42.3093 23.3777 43.9267 23.4106 44.7066C23.3285 44.7723 23.2464 44.8298 23.1561 44.879C23.0576 44.9365 22.9181 45.0186 22.8032 45.0432C21.5227 45.5359 20.2258 45.7329 18.8715 45.4455C18.379 45.3388 17.9029 45.1746 17.4351 44.9858C17.0329 44.8216 16.6471 44.6327 16.2449 44.4603C15.8017 44.2715 15.0876 43.9677 15.1204 43.3766C15.1532 42.6951 16.1875 41.7099 16.6635 41.2501C17.0001 40.9299 17.3448 40.6262 17.6977 40.3306C18.1656 39.9283 18.6499 39.5342 19.1259 39.1483C20.2422 38.237 21.375 37.3503 22.5159 36.4636C23.1315 35.9792 23.7553 35.503 24.3791 35.0186L24.3873 35.0104ZM25.5939 45.1746L26.4393 49.9119C26.0946 50.15 25.717 50.347 25.323 50.462C24.0344 50.8314 22.992 50.2731 22.1629 49.3043C22.0316 49.1483 21.7689 48.7789 21.9659 48.5983C21.9659 48.5983 21.9659 48.5983 21.9742 48.5983L25.5939 45.191V45.1746ZM67.4141 16.7263C67.4141 16.7263 68.4647 19.9365 69.4415 21.8577C70.6235 22.0794 71.7972 22.2928 72.9792 22.5063C73.4306 22.5884 73.8821 22.6705 74.3335 22.7526C74.4731 22.7772 74.6044 22.8019 74.7439 22.8265C74.8014 22.8347 74.867 22.8511 74.9245 22.8511C75.1625 22.8511 75.8356 22.3093 76.0326 22.1368C76.6646 21.595 77.231 20.9546 77.6988 20.2649C78.4294 19.2058 78.9383 18.0892 79.3158 16.8659C79.4964 16.2584 79.2666 15.8725 78.6181 15.8314C78.5196 15.8314 78.4294 15.8314 78.3309 15.8314C78.1421 15.8396 77.9533 15.8478 77.7727 15.8643C77.1817 15.9053 76.5907 15.9464 75.9998 15.9956C74.3171 16.127 72.6262 16.2748 70.9436 16.4226C69.7616 16.5211 68.5879 16.6278 67.4059 16.7345L67.4141 16.7263ZM64.5823 23.2288C64.5577 23.9267 64.7629 25.9956 67.3567 29.2797C67.8984 29.5999 68.4401 29.9119 68.9901 30.2157C69.6631 30.5933 70.3526 30.9546 71.0503 31.283C71.2883 31.3979 71.6249 31.4472 71.8875 31.4143C71.8875 31.4143 71.8875 31.4143 71.8957 31.4143C72.3472 31.3076 72.8068 31.127 73.2336 30.9464C74.2597 30.4948 75.2282 29.8872 76.0572 29.1319C76.8206 28.4505 77.3377 27.5802 77.4198 26.5457C77.4444 26.1845 77.4198 25.7165 77.3048 25.3634C77.2884 25.3142 77.2556 25.2813 77.2064 25.2813C75.3842 24.994 73.562 24.6984 71.7398 24.4028C70.369 24.1812 69.0065 23.9595 67.6357 23.7378C66.7903 23.5983 65.9531 23.4669 65.1076 23.3191C64.9271 23.2863 64.7547 23.2534 64.5741 23.2206L64.5823 23.2288ZM59.8791 27.0712H59.756C59.756 27.0712 59.3784 27.6377 58.3606 28.0235C57.3428 28.4094 58.2867 30.8725 58.7874 31.6524C59.1075 32.1533 60.6835 34.1155 61.7587 35.4455C61.9968 35.618 62.2348 35.7904 62.4728 35.9628C63.2936 36.5539 64.1145 37.1368 64.9353 37.7198C65.3375 38.0071 65.7479 38.2863 66.1419 38.5736C66.3224 38.705 66.4784 38.8035 66.7 38.8281C67.0037 38.861 67.3895 38.7789 67.6932 38.7214C68.0461 38.6475 68.4155 38.5079 68.752 38.3684C69.2445 38.1713 69.7206 37.9496 70.1884 37.7198C70.9272 37.3503 72.0681 36.7428 72.6016 36.1106C72.9053 35.7575 73.0613 35.3388 72.8232 34.9037C72.7329 34.7313 72.5606 34.5506 72.3964 34.4439L59.8709 27.0547L59.8791 27.0712ZM58.0979 35.0104C58.0979 35.0104 57.0637 35.971 57.0063 36.8002C56.9406 37.6295 56.8585 39.4028 57.8271 40.8561C58.7956 42.3093 59.1075 43.9267 59.0747 44.7066C59.1568 44.7723 59.2389 44.8298 59.3291 44.879C59.4276 44.9365 59.5672 45.0186 59.6821 45.0432C60.9626 45.5359 62.2594 45.7329 63.6138 45.4455C64.1062 45.3388 64.5823 45.1746 65.0502 44.9858C65.4524 44.8216 65.8382 44.6327 66.2404 44.4603C66.6836 44.2715 67.3977 43.9677 67.3649 43.3766C67.332 42.6951 66.2978 41.7099 65.8217 41.2501C65.4852 40.9299 65.1405 40.6262 64.7875 40.3306C64.3197 39.9283 63.8354 39.5342 63.3593 39.1483C62.243 38.237 61.1103 37.3503 59.9694 36.4636C59.3538 35.9792 58.73 35.503 58.1061 35.0186L58.0979 35.0104ZM56.8913 45.1746L56.0459 49.9119C56.3906 50.15 56.7682 50.347 57.1622 50.462C58.4509 50.8314 59.4933 50.2731 60.3223 49.3043C60.4537 49.1483 60.7163 48.7789 60.5193 48.5983C60.5193 48.5983 60.5193 48.5983 60.5111 48.5983L56.8913 45.191V45.1746Z" fill="#B4E0D9"/>
<path d="M45.8452 52.4981C45.4758 51.6606 44.9997 50.9053 44.5319 50.1746C44.3759 49.9283 44.2117 49.6656 44.0558 49.4111C43.7603 48.9267 43.432 48.4012 43.1119 47.8922C42.7343 47.2928 42.3485 46.6771 42.0038 46.1024L41.3553 45.0186L40.7069 46.1024C40.4032 46.6114 40.0995 47.1451 39.804 47.6705C39.4757 48.2534 39.1309 48.8528 38.8026 49.4028C38.6467 49.6574 38.4825 49.9119 38.3265 50.1664C37.8587 50.8971 37.3826 51.6524 37.0133 52.4899C36.1104 54.5506 36.5536 56.4636 38.3019 58.0153C38.8108 57.4406 38.9011 56.595 38.4989 55.9464C38.0311 55.191 37.9572 54.3782 38.2609 53.4751H44.6057C44.9094 54.3864 44.8356 55.191 44.3677 55.9464C43.9655 56.595 44.0558 57.4406 44.5647 58.0153C46.313 56.4636 46.7562 54.5506 45.8534 52.4899L45.8452 52.4981ZM40.0913 50.1992C40.436 49.6327 40.7808 49.017 41.1173 48.4258C41.1994 48.2781 41.2897 48.1303 41.3717 47.9743C41.5277 48.2206 41.6754 48.4587 41.8314 48.705C42.1433 49.2058 42.4716 49.723 42.7671 50.1992C42.9313 50.462 43.0954 50.7329 43.2596 50.9874C43.473 51.3158 43.67 51.6442 43.867 51.9644H38.9996C39.1884 51.6442 39.3936 51.3158 39.607 50.9874C39.7712 50.7329 39.9353 50.4702 40.0995 50.1992H40.0913Z" fill="#D8EFFC"/>
<path d="M47.7332 30.2399C47.1012 30.9542 47.0273 31.9886 47.5198 32.8014C48.1436 33.8359 48.1682 34.9525 47.6101 36.2251C47.2243 37.1118 46.699 37.9328 46.149 38.8031C45.952 39.1151 45.7468 39.4353 45.5498 39.7637C45.1969 40.3466 44.8029 40.9706 44.4171 41.5863C44.2365 41.8819 44.0478 42.1775 43.859 42.473C43.7523 42.2924 43.6538 42.1118 43.5471 41.9312C43.2023 41.3236 42.8576 40.7078 42.4964 40.1167C42.5621 40.01 42.6278 39.9033 42.6934 39.8047C43.2598 38.918 43.8426 37.9985 44.2858 36.9804C44.4335 36.6438 44.5485 36.3072 44.6387 35.9788C43.4814 35.9788 42.4226 36.6192 41.8972 37.6454C41.7249 37.9821 41.5525 38.2941 41.413 38.5075C41.2734 38.2858 41.1011 37.9739 40.9287 37.6454C40.3952 36.6192 39.3363 35.9788 38.1872 35.9788C38.2775 36.3072 38.3924 36.6438 38.5401 36.9804C38.9834 37.9985 39.5661 38.918 40.1325 39.8047C40.1982 39.9033 40.2638 40.01 40.3295 40.1167C40.034 40.6011 39.7139 41.1019 39.402 41.5945C39.2214 41.8901 39.0326 42.1857 38.8438 42.4812C38.7371 42.3006 38.6386 42.12 38.5319 41.9394C38.1215 41.2169 37.7029 40.4698 37.2843 39.7801C37.0873 39.4599 36.8821 39.1315 36.6851 38.8195C36.1352 37.9492 35.6098 37.1282 35.2241 36.2415C34.6659 34.9689 34.6905 33.8523 35.3144 32.8179C35.8068 32.0051 35.733 30.9706 35.1009 30.2563C32.9751 32.1446 32.4333 34.4763 33.5332 36.9804C33.9764 37.9985 34.5592 38.918 35.1256 39.8047C35.3226 40.1085 35.5196 40.4205 35.7083 40.7325C36.1188 41.4057 36.5292 42.1364 36.9314 42.8425C37.2925 43.4747 37.6619 44.1315 38.0312 44.7473L38.8192 46.0691L39.6072 44.7473C40.0176 44.0576 40.4937 43.3023 40.9533 42.5716C41.0929 42.3417 41.2406 42.1118 41.3883 41.8819C41.5689 42.2021 41.7495 42.5223 41.9301 42.8343C42.2912 43.4665 42.6606 44.1233 43.03 44.739L43.8179 46.0609L44.6059 44.739C45.0163 44.0494 45.4924 43.2941 45.952 42.5633C46.3378 41.9476 46.74 41.3154 47.1012 40.7161C47.29 40.4041 47.4869 40.0921 47.6839 39.7883C48.2503 38.9016 48.8331 37.9821 49.2763 36.964C50.3762 34.4599 49.8345 32.1364 47.7086 30.2399H47.7332Z" fill="#D8EFFC"/>
<path d="M124.304 38.0704C122.958 37.4382 121.899 36.5022 121.103 35.2707C120.315 34.0392 119.913 32.5449 119.913 30.788C119.913 29.5646 120.126 28.2428 120.545 26.8142C121.464 23.7518 122.859 21.5515 124.723 20.1968C126.586 18.8422 128.58 18.1607 130.698 18.1607C131.839 18.1607 132.849 18.3331 133.735 18.6779C134.613 19.0228 135.426 19.5236 136.165 20.1804L136.977 19.54C137.519 19.1131 137.97 18.8175 138.348 18.6533C138.717 18.4891 139.136 18.407 139.596 18.407C140.096 18.407 140.499 18.522 140.794 18.7436C141.098 18.9653 141.245 19.2937 141.245 19.7206C141.245 19.9423 141.204 20.1722 141.122 20.3939L139.44 25.164C139.259 25.7141 139.046 26.0999 138.791 26.3298C138.537 26.5597 138.167 26.6665 137.667 26.6665C137.166 26.6665 136.723 26.4776 136.386 26.1C136.058 25.7223 135.68 25.0737 135.262 24.1541C134.777 23.1935 134.392 22.5614 134.088 22.2576C133.784 21.9538 133.349 21.7978 132.767 21.7978C131.946 21.7978 131.158 22.3151 130.394 23.3413C129.631 24.3676 128.942 25.9193 128.318 27.9719C127.801 29.7042 127.538 31.1492 127.538 32.3151C127.538 33.3331 127.727 34.0967 128.113 34.5893C128.49 35.0901 129.007 35.3364 129.647 35.3364C130.591 35.3364 131.363 35.1229 131.979 34.696C132.586 34.2691 133.218 33.6862 133.858 32.9554C134.26 32.5039 134.581 32.1755 134.835 31.962C135.081 31.7486 135.352 31.6418 135.631 31.6418C135.992 31.6418 136.37 31.8224 136.772 32.1919C137.174 32.5614 137.363 32.9226 137.347 33.2921C137.363 33.7436 137.01 34.4333 136.28 35.3692C135.549 36.3052 134.539 37.1509 133.243 37.8898C131.954 38.6369 130.485 39.0064 128.843 39.0064C127.201 39.0064 125.65 38.6944 124.304 38.0622V38.0704Z" fill="white"/>
<path d="M156.824 24.3343C158.113 25.4591 158.761 26.9205 158.761 28.735C158.761 29.3507 158.679 30.0322 158.523 30.7875C158.146 32.4624 157.432 33.9238 156.389 35.1799C155.347 36.4361 154.075 37.4049 152.556 38.0864C151.046 38.7678 149.404 39.1126 147.648 39.1126C144.865 39.1126 142.805 38.5461 141.475 37.4131C140.145 36.2801 139.481 34.7777 139.481 32.9057C139.481 32.2735 139.563 31.5675 139.719 30.7957C140.096 29.2029 140.827 27.7908 141.894 26.5593C142.961 25.3277 144.274 24.3671 145.825 23.6857C147.377 23.0043 149.035 22.6594 150.8 22.6594C153.525 22.6594 155.527 23.2177 156.824 24.3425V24.3343ZM149.371 26.5182C148.903 27.2818 148.345 28.7267 147.705 30.845C147.065 32.9632 146.745 34.4575 146.745 35.3113C146.745 35.7629 146.819 36.0584 146.958 36.2144C147.098 36.3704 147.286 36.4443 147.533 36.4443C147.951 36.4854 148.386 36.1159 148.838 35.3442C149.289 34.5724 149.856 33.0617 150.537 30.8203C151.161 28.8417 151.464 27.4049 151.464 26.51C151.464 26.0831 151.399 25.7875 151.267 25.6233C151.136 25.4591 150.955 25.377 150.709 25.377C150.291 25.377 149.839 25.7629 149.371 26.5264V26.5182Z" fill="white"/>
<path d="M170.434 16.9041C170.984 17.3557 171.263 17.9632 171.263 18.735C171.263 19.1865 171.189 19.6217 171.05 20.0486L166.33 35.6479C166.273 35.8942 166.24 36.1077 166.24 36.2883C166.24 36.5511 166.289 36.7645 166.388 36.9123C166.486 37.0601 166.626 37.2161 166.806 37.3557C166.946 37.4952 167.044 37.6184 167.11 37.7087C167.167 37.799 167.184 37.914 167.143 38.0617C167.044 38.3245 166.839 38.5215 166.544 38.6447C166.24 38.7678 165.78 38.8253 165.165 38.8253H158.319C157.802 38.8253 157.416 38.735 157.178 38.5626C156.94 38.3901 156.858 38.1603 156.94 37.8729C157.022 37.6266 157.227 37.4131 157.572 37.2325C157.876 37.0683 158.122 36.8795 158.327 36.6496C158.524 36.4279 158.697 36.0667 158.836 35.5823L163.4 20.3195C163.457 20.1389 163.49 19.9829 163.49 19.8598C163.49 19.6381 163.433 19.4493 163.326 19.3097C163.219 19.1701 163.072 19.0223 162.891 18.8828C162.694 18.7186 162.546 18.579 162.456 18.4558C162.366 18.3327 162.349 18.1685 162.407 17.9632C162.53 17.4952 163.162 17.0847 164.303 16.7399C165.444 16.3951 166.634 16.2227 167.881 16.2227C169.047 16.2227 169.901 16.4443 170.451 16.8959L170.434 16.9041Z" fill="white"/>
<path d="M181.425 16.9041C181.975 17.3557 182.254 17.9632 182.254 18.735C182.254 19.1865 182.181 19.6217 182.041 20.0486L177.321 35.6479C177.264 35.8942 177.231 36.1077 177.231 36.2883C177.231 36.5511 177.28 36.7645 177.379 36.9123C177.477 37.0601 177.617 37.2161 177.797 37.3557C177.937 37.4952 178.035 37.6184 178.101 37.7087C178.159 37.799 178.175 37.914 178.134 38.0617C178.035 38.3245 177.83 38.5215 177.535 38.6447C177.231 38.7678 176.771 38.8253 176.156 38.8253H169.31C168.793 38.8253 168.407 38.735 168.169 38.5626C167.931 38.3901 167.849 38.1603 167.931 37.8729C168.013 37.6266 168.219 37.4131 168.563 37.2325C168.867 37.0683 169.113 36.8795 169.318 36.6496C169.515 36.4279 169.688 36.0667 169.827 35.5823L174.391 20.3195C174.449 20.1389 174.481 19.9829 174.481 19.8598C174.481 19.6381 174.424 19.4493 174.317 19.3097C174.21 19.1701 174.063 19.0223 173.882 18.8828C173.685 18.7186 173.537 18.579 173.447 18.4558C173.357 18.3327 173.34 18.1685 173.398 17.9632C173.521 17.4952 174.153 17.0847 175.294 16.7399C176.435 16.3951 177.625 16.2227 178.873 16.2227C180.038 16.2227 180.892 16.4443 181.442 16.8959L181.425 16.9041Z" fill="white"/>
<path d="M195.987 23.7432C197.128 24.5724 197.702 25.6233 197.702 26.9123C197.702 27.2982 197.661 27.6595 197.579 27.9797C197.276 29.3261 196.438 30.2867 195.068 30.8697C193.697 31.4526 192.08 31.7399 190.217 31.7399C189.273 31.7399 188.394 31.6825 187.574 31.5593C187.557 32.6184 187.836 33.3655 188.411 33.7925C188.994 34.2194 189.806 34.4329 190.84 34.4329C191.325 34.4329 191.784 34.3754 192.219 34.2605C192.663 34.1455 193.221 33.9813 193.902 33.7596C194.46 33.5544 194.846 33.4559 195.043 33.4559C195.265 33.4559 195.371 33.5872 195.371 33.8499C195.388 34.5642 195.133 35.3114 194.592 36.0995C194.05 36.8877 193.245 37.5527 192.187 38.1028C191.128 38.6529 189.847 38.9321 188.337 38.9321C186.113 38.9321 184.29 38.3656 182.87 37.2161C181.45 36.0749 180.736 34.4165 180.736 32.2325C180.736 31.6168 180.818 30.9107 180.974 30.0897C181.475 27.5856 182.575 25.689 184.266 24.4165C185.957 23.1439 188.017 22.5035 190.438 22.5035C192.983 22.5035 194.821 22.914 195.962 23.7432H195.987ZM188.115 29.7531C188.953 29.7531 189.601 29.359 190.036 28.5626C190.479 27.7662 190.685 26.8795 190.668 25.9025C190.652 25.3278 190.488 25.0486 190.184 25.0486C189.962 25.0486 189.7 25.2293 189.404 25.5823C189.109 25.9353 188.805 26.4772 188.518 27.1915C188.23 27.9058 187.984 28.7514 187.779 29.7284C187.861 29.7531 187.968 29.7613 188.107 29.7613L188.115 29.7531Z" fill="white"/>
<path d="M217.18 18.0775C217.787 18.3567 218.288 18.7261 218.682 19.2105C219.076 19.6867 219.264 20.204 219.264 20.7541C219.264 21.9609 218.46 22.5603 216.86 22.5603C216.4 22.5603 216.047 22.5274 215.792 22.4536C215.546 22.3797 215.243 22.2647 214.906 22.1005C214.849 22.2401 214.816 22.4453 214.816 22.7163C214.816 23.0447 214.873 23.4306 214.98 23.8821C215.087 24.3337 215.226 24.7524 215.382 25.1383C215.801 25.7705 216.014 26.5258 216.014 27.4043C216.014 27.7902 215.965 28.2582 215.866 28.8082C215.628 29.8674 215.103 30.8362 214.29 31.7146C213.478 32.5931 212.435 33.2828 211.163 33.7754C209.891 34.2762 208.495 34.5225 206.969 34.5225C205.803 34.5225 204.72 34.4404 203.694 34.2762C203.39 34.5389 203.242 34.8674 203.242 35.2532C203.242 35.516 203.365 35.7376 203.603 35.91C203.841 36.0825 204.244 36.1728 204.802 36.1728H209.308C210.851 36.1728 212.05 36.4437 212.911 36.9856C213.773 37.5274 214.2 38.2992 214.2 39.2926C214.2 39.6621 214.143 40.0398 214.02 40.4256C213.781 41.222 213.232 41.9609 212.378 42.6424C211.524 43.3238 210.326 43.8821 208.791 44.3091C207.248 44.736 205.376 44.9495 203.177 44.9495C201.215 44.9495 199.549 44.777 198.186 44.4322C196.824 44.0874 195.806 43.6112 195.133 43.0119C194.46 42.4125 194.123 41.7393 194.123 41.0086C194.123 40.8444 194.164 40.5981 194.246 40.2779C194.427 39.6867 194.829 39.2023 195.461 38.8247C196.093 38.447 197.127 38.2007 198.572 38.0775C198.088 37.6096 197.85 37.0513 197.85 36.3944C197.85 36.1728 197.882 35.9347 197.94 35.6884C198.26 34.6293 199.204 33.8411 200.763 33.332C199.261 32.4946 198.506 31.2713 198.506 29.6621C198.506 29.2105 198.564 28.7426 198.687 28.2582C198.925 27.199 199.458 26.2385 200.279 25.3682C201.1 24.4979 202.151 23.8164 203.431 23.3074C204.712 22.7984 206.115 22.5439 207.634 22.5439C210.014 22.5439 211.894 22.8641 213.248 23.488C212.944 23.0201 212.714 22.511 212.542 21.9774C212.37 21.4355 212.288 20.9429 212.288 20.4913C212.288 19.7196 212.534 19.0545 213.026 18.5045C213.519 17.9544 214.266 17.6752 215.267 17.6752C215.907 17.6752 216.531 17.8148 217.147 18.0857L217.18 18.0775ZM202.807 39.2598C202.249 39.2598 201.732 39.227 201.272 39.1695C201.034 39.4733 200.911 39.8838 200.911 40.3928C200.928 40.9018 201.133 41.2713 201.527 41.493C201.921 41.7146 202.52 41.8296 203.341 41.8296C204.342 41.8296 205.155 41.6736 205.787 41.3698C206.419 41.066 206.731 40.6227 206.731 40.0562C206.731 39.8099 206.64 39.621 206.46 39.4733C206.279 39.3337 206.017 39.2598 205.68 39.2598H202.799H202.807ZM209.267 26.1399C209.267 25.4503 208.98 25.0972 208.397 25.0972C207.896 25.0972 207.461 25.3435 207.092 25.8444C206.723 26.3452 206.345 27.2319 205.967 28.5209C205.647 29.58 205.491 30.3846 205.491 30.9347C205.491 31.6079 205.77 31.9445 206.329 31.9445C206.829 31.9445 207.272 31.69 207.65 31.181C208.028 30.6719 208.413 29.7853 208.791 28.5209C209.111 27.4782 209.275 26.69 209.275 26.1317L209.267 26.1399Z" fill="white"/>
<path d="M231.88 23.7432C233.021 24.5724 233.596 25.6233 233.596 26.9123C233.596 27.2982 233.555 27.6595 233.473 27.9797C233.169 29.3261 232.332 30.2867 230.961 30.8697C229.59 31.4526 227.973 31.7399 226.11 31.7399C225.166 31.7399 224.288 31.6825 223.467 31.5593C223.451 32.6184 223.73 33.3655 224.313 33.7925C224.895 34.2194 225.708 34.4329 226.742 34.4329C227.226 34.4329 227.686 34.3754 228.121 34.2605C228.564 34.1455 229.122 33.9813 229.804 33.7596C230.362 33.5544 230.748 33.4559 230.945 33.4559C231.166 33.4559 231.273 33.5872 231.273 33.8499C231.289 34.5642 231.035 35.3114 230.493 36.0995C229.951 36.8877 229.155 37.5527 228.088 38.1028C227.029 38.6529 225.749 38.9321 224.247 38.9321C222.022 38.9321 220.2 38.3656 218.78 37.2161C217.36 36.0749 216.646 34.4165 216.646 32.2325C216.646 31.6168 216.728 30.9107 216.884 30.0897C217.385 27.5856 218.485 25.689 220.176 24.4165C221.867 23.1439 223.927 22.5035 226.348 22.5035C228.893 22.5035 230.731 22.914 231.872 23.7432H231.88ZM224.009 29.7531C224.846 29.7531 225.494 29.359 225.93 28.5626C226.373 27.7662 226.578 26.8795 226.562 25.9025C226.537 25.3278 226.381 25.0486 226.077 25.0486C225.856 25.0486 225.593 25.2293 225.298 25.5823C224.994 25.9353 224.698 26.4772 224.411 27.1915C224.124 27.9058 223.877 28.7514 223.672 29.7284C223.754 29.7531 223.861 29.7613 224.001 29.7613L224.009 29.7531Z" fill="white"/>
<path d="M109.251 55.3607C109.481 55.492 109.596 55.6809 109.596 55.9272C109.596 56.0257 109.563 56.1653 109.506 56.3213C109.448 56.5019 109.358 56.6415 109.251 56.7318C109.144 56.8221 108.972 56.937 108.759 57.0848C108.438 57.2654 108.184 57.4707 107.995 57.7006C107.806 57.9223 107.642 58.2753 107.503 58.7433L103.834 71.896C103.752 72.1587 103.711 72.4132 103.711 72.6595C103.711 72.8812 103.743 73.07 103.817 73.226C103.883 73.382 103.982 73.5544 104.105 73.7597C104.187 73.8582 104.252 73.9649 104.318 74.0799C104.375 74.1948 104.408 74.3098 104.408 74.4329C104.408 74.474 104.392 74.5725 104.351 74.7367C104.269 74.9994 104.088 75.1965 103.793 75.3196C103.505 75.4428 103.087 75.5002 102.545 75.5002H95.4861C95.0675 75.5002 94.7392 75.4264 94.5094 75.2868C94.2795 75.1472 94.1646 74.9502 94.1646 74.7039C94.1646 74.5807 94.1975 74.4493 94.2549 74.3098C94.3124 74.1702 94.4027 74.0388 94.5094 73.9239C94.6161 73.809 94.7228 73.7268 94.8131 73.6776C94.9034 73.6283 94.969 73.5791 95.0101 73.538C95.3302 73.3574 95.5928 73.1521 95.7898 72.9305C95.9868 72.7088 96.1592 72.3557 96.2987 71.8878L98.5806 63.6283L90.7993 73.4477C90.1591 74.2441 89.642 74.786 89.2562 75.0815C88.8622 75.3771 88.419 75.5249 87.9183 75.5249C87.4176 75.5249 87.0646 75.3689 86.7938 75.0487C86.5229 74.7367 86.2767 74.1948 86.055 73.4395L83.2315 63.9896L81.0071 71.9124C80.925 72.1751 80.8839 72.4296 80.8839 72.6759C80.8839 72.9223 80.9168 73.1275 80.9907 73.2917C81.0645 73.4559 81.163 73.6283 81.3026 73.809C81.4831 74.0717 81.5734 74.2851 81.5734 74.4493C81.5734 74.4904 81.557 74.5889 81.516 74.7531C81.4339 75.0405 81.2533 75.2375 80.9742 75.3525C80.6952 75.4674 80.2766 75.5249 79.7102 75.5249H77.2149C76.7963 75.5249 76.468 75.451 76.2382 75.3114C76.0084 75.1718 75.8934 74.9748 75.8934 74.7285C75.8934 74.6053 75.9263 74.474 75.9837 74.3344C76.0658 74.1127 76.1971 73.9403 76.3777 73.8172C76.5583 73.694 76.665 73.6201 76.706 73.6037C77.0262 73.3984 77.2888 73.1932 77.4858 72.9797C77.6828 72.7663 77.8552 72.4132 77.9947 71.9206L81.6637 58.7104L81.1794 57.093C81.0809 56.7892 81.0317 56.4937 81.0317 56.2063C81.0317 55.8369 81.1466 55.5741 81.3764 55.4099C81.6063 55.2457 81.9592 55.1636 82.4435 55.1636H87.0975C87.6967 55.1636 88.1399 55.295 88.4354 55.5577C88.7227 55.8204 88.9607 56.2802 89.1413 56.937L92.1454 67.093L100.288 56.7892C100.805 56.1406 101.322 55.7055 101.823 55.492C102.323 55.2786 102.988 55.1718 103.809 55.1718H108.283C108.701 55.1718 109.029 55.2375 109.259 55.3689L109.251 55.3607Z" fill="white"/>
<path d="M123.361 60.6551C124.74 61.5253 125.438 62.839 125.438 64.6124C125.438 65.2856 125.315 66.0491 125.077 66.903L123.845 71.123C123.829 71.2051 123.812 71.3037 123.812 71.4268C123.812 71.7552 123.944 71.9194 124.206 71.9194C124.445 71.9194 124.65 71.8127 124.822 71.5992C124.994 71.3858 125.109 71.279 125.167 71.279C125.265 71.279 125.356 71.3529 125.421 71.4925C125.495 71.6321 125.528 71.7963 125.528 71.9851C125.544 72.5352 125.339 73.0935 124.912 73.6682C124.486 74.2429 123.903 74.7109 123.189 75.0721C122.466 75.4416 121.678 75.6222 120.817 75.6222C119.774 75.6222 118.879 75.4252 118.141 75.0393C117.402 74.6534 116.893 74.0787 116.606 73.3234C116.007 74.0541 115.292 74.6206 114.472 75.0229C113.651 75.417 112.773 75.6222 111.829 75.6222C110.77 75.6222 109.875 75.417 109.153 74.9982C108.431 74.5795 107.897 74.0376 107.544 73.3808C107.191 72.7158 107.019 72.0179 107.019 71.2872C107.019 70.9588 107.052 70.6468 107.109 70.3431C107.429 68.9391 108.127 67.88 109.194 67.1657C110.261 66.4514 111.541 66.0984 113.027 66.0984C114.685 66.0984 116.319 66.3611 117.927 66.8948L118.682 64.8751C118.945 64.0212 119.076 63.3562 119.076 62.8882C119.06 62.3956 118.896 62.0344 118.592 61.7881C118.288 61.5418 117.829 61.4186 117.213 61.4186C117.336 61.747 117.394 62.0836 117.394 62.4285C117.394 63.1838 117.115 63.8324 116.557 64.3825C115.998 64.9326 115.194 65.2117 114.152 65.2117C113.167 65.2117 112.403 64.99 111.853 64.5549C111.303 64.1197 111.024 63.5697 111.024 62.9211C111.024 61.903 111.582 61.0574 112.707 60.3841C113.831 59.7109 115.539 59.3743 117.845 59.3743C120.152 59.3743 121.99 59.8094 123.369 60.6715L123.361 60.6551ZM114.784 69.2757C114.431 69.7109 114.258 70.1871 114.258 70.6961C114.258 71.0245 114.332 71.2872 114.48 71.4925C114.628 71.6978 114.841 71.7963 115.128 71.7963C115.391 71.7963 115.67 71.6895 115.982 71.4761C116.294 71.2626 116.515 70.9424 116.655 70.5155L117.287 68.7092C116.942 68.6518 116.565 68.6189 116.146 68.6189C115.588 68.6189 115.128 68.8406 114.775 69.2757H114.784Z" fill="white"/>
<path d="M140.952 59.5402C142.167 59.8439 143.094 60.2709 143.743 60.8209C144.391 61.371 144.72 61.995 144.72 62.6847C144.72 63.3743 144.44 63.9819 143.89 64.4252C143.341 64.8768 142.577 65.0984 141.592 65.0984C140.607 65.0984 139.745 64.8439 139.056 64.3349C138.366 63.8259 138.022 63.1855 138.022 62.4055C138.022 62.1428 138.063 61.8883 138.145 61.642C137.784 61.5434 137.464 61.486 137.184 61.486C136.684 61.486 136.265 61.6091 135.937 61.8554C135.609 62.1017 135.453 62.4466 135.469 62.8981C135.469 63.4318 135.732 63.8751 136.249 64.2446C136.766 64.614 137.611 65.0738 138.769 65.6239C139.77 66.0755 140.599 66.486 141.247 66.8636C141.896 67.2413 142.446 67.7175 142.897 68.284C143.349 68.8587 143.57 69.5319 143.57 70.3037C143.57 70.4679 143.529 70.7717 143.447 71.2232C143.127 72.5861 142.232 73.6699 140.771 74.4663C139.31 75.2626 137.39 75.6567 135.001 75.6567C132.317 75.6567 130.191 75.2873 128.615 74.5566C127.039 73.8259 126.26 72.816 126.26 71.527C126.26 70.6485 126.522 69.9917 127.039 69.5402C127.556 69.0886 128.254 68.8669 129.116 68.8669C130.117 68.8669 130.971 69.1871 131.685 69.8111C132.399 70.4433 132.752 71.2479 132.752 72.2249C132.752 72.4876 132.719 72.7668 132.662 73.0541C133.146 73.1773 133.606 73.2347 134.041 73.2347C134.558 73.2347 134.993 73.0952 135.329 72.8078C135.666 72.5205 135.838 72.1264 135.838 71.6173C135.822 71.1494 135.584 70.7471 135.149 70.4104C134.706 70.0738 134.008 69.6715 133.048 69.2035C132.145 68.7766 131.406 68.3743 130.823 67.9966C130.24 67.619 129.748 67.1428 129.338 66.5763C128.927 66.0098 128.722 65.3365 128.722 64.5566C128.722 62.8817 129.411 61.5516 130.782 60.5664C132.153 59.5812 134.098 59.0804 136.626 59.0804C138.284 59.0804 139.729 59.2364 140.936 59.5402H140.952Z" fill="white"/>
<path d="M158.885 59.9991C159.098 60.1633 159.197 60.3849 159.197 60.6723C159.197 60.7544 159.18 60.894 159.139 61.0992C158.876 61.9941 158.277 62.4457 157.333 62.4457H155.593L153.344 69.9991C153.246 70.3028 153.196 70.623 153.196 70.9432C153.196 71.3127 153.295 71.5672 153.5 71.7068C153.697 71.8463 153.984 71.9202 154.337 71.9202C154.658 71.9202 155.06 71.8792 155.536 71.7971C155.774 71.7396 155.987 71.7068 156.168 71.7068C156.307 71.7068 156.414 71.756 156.48 71.8463C156.545 71.9367 156.586 72.0516 156.586 72.1994C156.603 72.6099 156.307 73.1025 155.7 73.6854C155.093 74.2684 154.264 74.7692 153.221 75.1879C152.179 75.6066 151.03 75.8119 149.766 75.8119C148.403 75.8119 147.311 75.4999 146.49 74.8677C145.67 74.2355 145.259 73.3652 145.259 72.2651C145.259 71.756 145.341 71.2634 145.497 70.7954L147.418 64.7363C147.516 64.3915 147.566 64.1124 147.566 63.9071C147.566 63.4966 147.467 63.1518 147.278 62.8644C147.09 62.5771 146.819 62.2815 146.482 61.9777C146.179 61.6904 145.973 61.4523 145.85 61.2552C145.727 61.0582 145.703 60.8283 145.76 60.5656C145.842 60.3028 146.014 60.0976 146.269 59.9498C146.532 59.8102 146.942 59.7363 147.5 59.7363H149.183L151.079 57.8069C151.744 57.1337 152.343 56.6657 152.893 56.403C153.443 56.1403 154.157 56.0089 155.043 56.0089C156.307 56.0089 156.939 56.5015 156.939 57.4785C156.939 57.7823 156.898 58.0697 156.816 58.3324L156.398 59.7363H157.99C158.368 59.7363 158.663 59.8184 158.876 59.9826L158.885 59.9991Z" fill="white"/>
<path d="M173.201 60.4418C174.342 61.271 174.917 62.3219 174.917 63.6109C174.917 63.9968 174.876 64.358 174.794 64.6782C174.49 66.0247 173.661 66.9853 172.282 67.5682C170.911 68.1511 169.294 68.4385 167.431 68.4385C166.487 68.4385 165.609 68.381 164.788 68.2579C164.772 69.317 165.051 70.0641 165.625 70.491C166.208 70.918 167.021 71.1314 168.055 71.1314C168.539 71.1314 168.999 71.0739 169.434 70.959C169.877 70.8441 170.435 70.6799 171.117 70.4582C171.675 70.2529 172.061 70.1544 172.258 70.1544C172.479 70.1544 172.586 70.2858 172.586 70.5485C172.602 71.2628 172.348 72.0099 171.806 72.7981C171.264 73.5863 170.46 74.2513 169.401 74.8014C168.342 75.3515 167.062 75.6306 165.552 75.6306C163.327 75.6306 161.505 75.0641 160.085 73.9147C158.665 72.7735 157.951 71.115 157.951 68.9311C157.951 68.3153 158.033 67.6092 158.189 66.7882C158.69 64.2841 159.789 62.3876 161.48 61.115C163.171 59.8424 165.231 59.202 167.653 59.202C170.197 59.202 172.036 59.6125 173.177 60.4418H173.201ZM165.33 66.4516C166.167 66.4516 166.816 66.0575 167.251 65.2611C167.694 64.4648 167.899 63.5781 167.883 62.601C167.866 62.0263 167.702 61.7472 167.398 61.7472C167.177 61.7472 166.914 61.9278 166.619 62.2808C166.323 62.6339 166.019 63.1758 165.732 63.89C165.445 64.6043 165.199 65.45 164.993 66.427C165.075 66.4516 165.182 66.4598 165.322 66.4598L165.33 66.4516Z" fill="white"/>
<path d="M191.75 60.393C192.423 61.0827 192.76 61.9448 192.76 62.9628C192.76 63.3487 192.719 63.71 192.637 64.0301C192.44 64.8676 192.054 65.508 191.496 65.9595C190.938 66.4111 190.265 66.6328 189.485 66.6328C188.705 66.6328 188.147 66.4522 187.761 66.0827C187.367 65.7132 187.022 65.2288 186.727 64.6131C186.563 64.2682 186.415 64.0137 186.276 63.8495C186.136 63.6853 185.972 63.6032 185.791 63.6032C185.594 63.6032 185.414 63.6853 185.266 63.8495C185.118 64.0137 184.979 64.3011 184.864 64.7034L182.549 72.3471C182.508 72.4456 182.492 72.6016 182.492 72.8068C182.492 73.0696 182.565 73.2912 182.713 73.4637C182.861 73.6361 183.066 73.8085 183.329 73.9645C183.567 74.1287 183.731 74.26 183.813 74.3586C183.895 74.4571 183.92 74.5967 183.903 74.7526C183.862 75.0154 183.715 75.2124 183.468 75.3356C183.222 75.4587 182.795 75.5162 182.188 75.5162H174.497C173.98 75.5162 173.602 75.4259 173.372 75.2535C173.143 75.0811 173.06 74.8512 173.118 74.5638C173.2 74.3175 173.405 74.104 173.75 73.9234C174.054 73.7592 174.3 73.5704 174.505 73.3405C174.702 73.1188 174.874 72.7576 175.014 72.2732L177.69 63.4308C177.731 63.3323 177.747 63.1845 177.747 63.0039C177.747 62.7822 177.706 62.6098 177.616 62.4866C177.526 62.3635 177.378 62.2075 177.181 62.0269C176.984 61.8627 176.836 61.7231 176.762 61.5999C176.68 61.4768 176.672 61.3126 176.73 61.1073C176.853 60.6393 177.485 60.2288 178.626 59.8676C179.767 59.5145 180.957 59.3339 182.204 59.3339C183.025 59.3339 183.706 59.5228 184.248 59.9004C184.79 60.2781 185.143 60.8118 185.299 61.5096C186.259 60.0646 187.523 59.3421 189.083 59.3421C190.207 59.3421 191.102 59.687 191.775 60.3848L191.75 60.393Z" fill="white"/>
<path d="M220.273 71.3125C220.231 71.3946 220.215 71.5178 220.215 71.682C220.215 71.8215 220.248 71.9365 220.322 72.0186C220.396 72.1007 220.486 72.1417 220.609 72.1417C220.847 72.1417 221.052 72.035 221.225 71.8215C221.397 71.6081 221.512 71.5013 221.569 71.5013C221.668 71.5013 221.75 71.567 221.807 71.6984C221.865 71.8298 221.898 71.9858 221.898 72.1746C221.914 72.7657 221.725 73.3404 221.323 73.8987C220.921 74.457 220.338 74.9168 219.567 75.278C218.795 75.6311 217.868 75.8117 216.792 75.8117C215.471 75.8117 214.42 75.4997 213.64 74.8757C212.861 74.2518 212.458 73.4225 212.442 72.3798C212.442 71.6245 212.623 70.7789 212.984 69.8429L214.634 65.4422C214.732 65.1795 214.781 64.966 214.781 64.8018C214.781 64.5391 214.699 64.3256 214.527 64.1779C214.354 64.0219 214.149 63.948 213.911 63.948C213.567 63.948 213.222 64.104 212.861 64.4077C212.499 64.7115 212.179 65.1959 211.9 65.8445L210.25 71.3207C210.209 71.4028 210.193 71.526 210.193 71.6902C210.193 71.8298 210.226 71.9447 210.3 72.0268C210.365 72.1089 210.464 72.15 210.587 72.15C210.825 72.15 211.03 72.0432 211.203 71.8298C211.375 71.6163 211.49 71.5096 211.547 71.5096C211.646 71.5096 211.728 71.5752 211.785 71.7066C211.843 71.838 211.876 71.994 211.876 72.1828C211.892 72.7739 211.703 73.3486 211.301 73.9069C210.899 74.4652 210.316 74.925 209.545 75.2862C208.773 75.6393 207.845 75.8199 206.762 75.8199C205.44 75.8199 204.39 75.5079 203.61 74.8839C202.83 74.26 202.428 73.4307 202.412 72.388C202.412 71.6327 202.592 70.7871 202.953 69.8511L204.603 65.4504C204.702 65.1877 204.751 64.9743 204.751 64.8101C204.751 64.5473 204.669 64.3339 204.497 64.1861C204.324 64.0301 204.119 63.9562 203.881 63.9562C203.536 63.9562 203.191 64.104 202.83 64.3995C202.469 64.6951 202.174 65.1713 201.927 65.8199L199.941 72.3634C199.859 72.5851 199.818 72.7986 199.818 73.0038C199.818 73.2501 199.867 73.4472 199.966 73.6032C200.064 73.7591 200.204 73.9151 200.384 74.0793C200.524 74.2025 200.622 74.3174 200.688 74.416C200.745 74.5145 200.754 74.6376 200.721 74.7854C200.639 75.0481 200.45 75.2452 200.146 75.3683C199.843 75.4915 199.375 75.549 198.734 75.549H191.889C191.372 75.549 190.994 75.4587 190.764 75.2862C190.535 75.1138 190.453 74.8839 190.51 74.5966C190.592 74.3503 190.797 74.1368 191.142 73.9562C191.446 73.792 191.692 73.6032 191.897 73.3733C192.094 73.1516 192.267 72.7903 192.406 72.3059L195.082 63.4636C195.123 63.3651 195.139 63.2173 195.139 63.0367C195.139 62.815 195.098 62.6426 195.008 62.5194C194.918 62.3963 194.77 62.2403 194.573 62.0596C194.376 61.8954 194.228 61.7559 194.154 61.6327C194.072 61.5096 194.064 61.3454 194.122 61.1401C194.245 60.6721 194.877 60.2616 196.018 59.9004C197.159 59.5473 198.349 59.3667 199.588 59.3667C200.573 59.3667 201.345 59.6458 201.919 60.1959C202.494 60.746 202.765 61.5013 202.748 62.4619C203.569 61.2961 204.431 60.4915 205.35 60.0481C206.261 59.5966 207.246 59.3749 208.305 59.3749C209.471 59.3749 210.415 59.7197 211.145 60.4012C211.876 61.0826 212.278 61.9775 212.36 63.0777C213.222 61.6902 214.141 60.7296 215.126 60.1877C216.111 59.6458 217.178 59.3749 218.344 59.3749C219.567 59.3749 220.552 59.7526 221.307 60.5079C222.062 61.2633 222.431 62.2403 222.431 63.4472C222.431 64.0793 222.333 64.7033 222.128 65.3109L220.297 71.3371L220.273 71.3125Z" fill="white"/>
<path d="M233.645 60.0243C234.186 60.4759 234.457 61.0834 234.457 61.8634C234.457 62.3314 234.391 62.783 234.244 63.2099L231.478 72.356C231.42 72.6023 231.387 72.8158 231.387 72.9964C231.387 73.2591 231.437 73.4726 231.535 73.6204C231.634 73.7682 231.773 73.9242 231.954 74.0637C232.093 74.2033 232.192 74.3265 232.257 74.4168C232.315 74.5071 232.323 74.622 232.29 74.7698C232.192 75.0325 231.987 75.2296 231.691 75.3527C231.387 75.4759 230.928 75.5334 230.312 75.5334H223.467C222.949 75.5334 222.564 75.4431 222.326 75.2706C222.088 75.0982 222.005 74.8683 222.088 74.581C222.17 74.3347 222.375 74.1212 222.72 73.9406C223.023 73.7764 223.27 73.5876 223.475 73.3577C223.672 73.136 223.844 72.7747 223.984 72.2903L226.594 63.448C226.651 63.2674 226.684 63.1114 226.684 62.9882C226.684 62.7665 226.635 62.5859 226.536 62.4545C226.438 62.3232 226.282 62.1836 226.085 62.044C225.888 61.8798 225.74 61.7403 225.666 61.6171C225.592 61.494 225.576 61.3297 225.633 61.1245C225.757 60.6565 226.389 60.246 227.53 59.8848C228.67 59.5317 229.861 59.3511 231.108 59.3511C232.274 59.3511 233.119 59.5728 233.661 60.0243H233.645ZM235.056 53.3741C235.573 53.8913 235.836 54.5317 235.836 55.2871C235.836 55.8207 235.705 56.338 235.434 56.847C235.163 57.356 234.785 57.7665 234.293 58.0867C233.8 58.4069 233.259 58.5629 232.66 58.5629C231.896 58.5629 231.264 58.3002 230.755 57.783C230.246 57.2657 229.976 56.6171 229.959 55.8371C229.959 55.3281 230.09 54.8273 230.353 54.3265C230.616 53.8256 230.985 53.4151 231.461 53.0867C231.937 52.7583 232.495 52.5941 233.111 52.5941C233.891 52.5941 234.539 52.8568 235.065 53.3741H235.056Z" fill="white"/>
<path d="M252.778 71.3126C252.737 71.3947 252.72 71.5178 252.72 71.682C252.72 71.8216 252.753 71.9366 252.827 72.0187C252.901 72.1008 252.991 72.1418 253.114 72.1418C253.352 72.1418 253.557 72.0351 253.73 71.8216C253.902 71.6081 254.017 71.5014 254.074 71.5014C254.173 71.5014 254.255 71.5671 254.312 71.6985C254.37 71.8298 254.403 71.9858 254.403 72.1746C254.419 72.7658 254.23 73.3405 253.828 73.8988C253.426 74.4571 252.843 74.9168 252.072 75.2781C251.3 75.6311 250.373 75.8118 249.289 75.8118C247.968 75.8118 246.917 75.4998 246.137 74.8758C245.357 74.2518 244.955 73.4226 244.939 72.3799C244.939 71.6246 245.119 70.7789 245.481 69.843L247.13 65.4423C247.229 65.1796 247.278 64.9661 247.278 64.8019C247.278 64.5392 247.196 64.3257 247.024 64.1779C246.851 64.0219 246.646 63.948 246.408 63.948C245.965 63.948 245.546 64.1533 245.144 64.572C244.742 64.9907 244.455 65.508 244.274 66.1155L242.411 72.3553C242.329 72.5769 242.288 72.7904 242.288 72.9957C242.288 73.242 242.337 73.439 242.435 73.595C242.534 73.751 242.673 73.907 242.854 74.0712C242.994 74.1944 243.092 74.3093 243.158 74.4078C243.215 74.5063 243.223 74.6295 243.191 74.7773C243.108 75.04 242.92 75.237 242.616 75.3602C242.312 75.4833 241.844 75.5408 241.204 75.5408H234.359C233.842 75.5408 233.464 75.4505 233.234 75.2781C233.004 75.1057 232.922 74.8758 232.98 74.5884C233.062 74.3421 233.267 74.1287 233.612 73.948C233.915 73.7838 234.162 73.595 234.367 73.3651C234.564 73.1434 234.736 72.7822 234.876 72.2978L237.552 63.4554C237.593 63.3569 237.609 63.2091 237.609 63.0285C237.609 62.8068 237.56 62.6344 237.469 62.5113C237.379 62.3881 237.231 62.2321 237.034 62.0515C236.837 61.8873 236.69 61.7477 236.616 61.6246C236.534 61.5014 236.526 61.3372 236.583 61.1319C236.706 60.664 237.338 60.2535 238.479 59.8922C239.62 59.5392 240.81 59.3586 242.058 59.3586C243.059 59.3586 243.847 59.6377 244.43 60.196C245.013 60.7543 245.275 61.5342 245.21 62.5359C246.031 61.3372 246.901 60.4998 247.82 60.04C248.739 59.5802 249.741 59.3503 250.824 59.3503C252.047 59.3503 253.032 59.728 253.787 60.4833C254.542 61.2387 254.912 62.2157 254.912 63.4226C254.912 64.0548 254.813 64.6787 254.608 65.2863L252.778 71.3126Z" fill="white"/>
<path d="M272.428 71.4597C272.428 71.5992 272.469 71.7142 272.551 71.7963C272.633 71.8784 272.732 71.9194 272.855 71.9194C273.093 71.9194 273.298 71.8127 273.471 71.5992C273.643 71.3858 273.758 71.279 273.815 71.279C273.914 71.279 273.996 71.3529 274.053 71.4925C274.111 71.6321 274.144 71.7963 274.144 71.9851C274.16 72.5352 273.955 73.0935 273.528 73.6682C273.093 74.2429 272.518 74.7109 271.804 75.0722C271.082 75.4416 270.302 75.6222 269.457 75.6222C268.455 75.6222 267.585 75.4252 266.847 75.0393C266.108 74.6534 265.591 74.1444 265.312 73.5122C264.77 74.2265 264.146 74.7602 263.448 75.105C262.751 75.4498 262.004 75.6222 261.224 75.6222C260.305 75.6222 259.443 75.3841 258.655 74.9162C257.867 74.4482 257.235 73.7831 256.759 72.9129C256.291 72.0426 256.053 71.0656 256.053 69.9654C256.053 68.1099 256.398 66.3611 257.087 64.7191C257.777 63.0771 258.745 61.7552 259.985 60.7454C261.224 59.7355 262.636 59.2347 264.22 59.2347C265.082 59.2347 265.821 59.3332 266.428 59.5385C267.035 59.7437 267.594 60.0475 268.094 60.458L269.112 57.0344C269.169 56.8538 269.202 56.6978 269.202 56.5746C269.202 56.3529 269.145 56.1641 269.038 56.0245C268.931 55.885 268.784 55.7372 268.603 55.5976C268.406 55.4334 268.258 55.2938 268.168 55.1707C268.078 55.0475 268.061 54.8833 268.127 54.6781C268.25 54.2101 268.882 53.7996 270.023 53.4547C271.164 53.1099 272.354 52.9375 273.602 52.9375C274.767 52.9375 275.621 53.1592 276.171 53.6107C276.721 54.0623 277 54.6698 277 55.4416C277 55.8932 276.934 56.3283 276.787 56.7552L272.494 71.1313C272.453 71.2955 272.436 71.4022 272.436 71.4679L272.428 71.4597ZM266.42 62.1001C265.837 62.1001 265.271 62.5352 264.704 63.4137C264.146 64.2922 263.695 65.3513 263.35 66.591C263.005 67.839 262.849 68.9556 262.866 69.9572C262.866 71.082 263.227 71.6403 263.949 71.6403C264.212 71.6403 264.425 71.5336 264.606 71.3201C264.786 71.1066 264.959 70.7536 265.115 70.261L267.462 62.527C267.142 62.2396 266.789 62.1001 266.412 62.1001H266.42Z" fill="white"/>
</svg>
