<svg width="45" height="42" viewBox="0 0 45 42" fill="none" xmlns="http://www.w3.org/2000/svg">
<g clip-path="url(#clip0_3_420)">
<path d="M0 41.1057C0.155548 37.9916 3.11096 37.289 4.66644 35.6281C11.7128 28.7293 15.5548 20.9042 11.9616 10.8274C10.4995 6.73917 12.8794 4.61522 15.4615 2.44336C17.0169 1.16579 18.5724 -0.87832 20.6723 0.431186C23.5655 2.25172 23.4255 5.58936 23.4877 8.68746C23.7988 22.1498 10.9817 39.8761 0 41.1057Z" fill="#447EF7"/>
<path d="M20.4701 42C25.0276 36.8897 28.4808 33.6 31.2185 29.7833C35.216 24.1939 37.6737 17.9818 33.785 11.2266C31.6073 7.42586 34.1428 5.47757 36.2115 3.35362C37.9381 1.58099 39.7891 -0.862355 42.6046 0.558938C45.42 1.98023 44.7978 4.96654 44.9222 7.47376C45.7155 21.4312 35.2316 37.3688 20.4701 42Z" fill="#447EF7"/>
</g>
<defs>
<clipPath id="clip0_3_420">
<rect width="45" height="42" fill="white"/>
</clipPath>
</defs>
</svg>
