<svg width="329" height="374" viewBox="0 0 329 374" fill="none" xmlns="http://www.w3.org/2000/svg">
<mask id="mask0_3_92" style="mask-type:alpha" maskUnits="userSpaceOnUse" x="0" y="0" width="305" height="374">
<rect width="305" height="374" rx="12" fill="white"/>
</mask>
<g mask="url(#mask0_3_92)">
<g opacity="0.1">
<path fill-rule="evenodd" clip-rule="evenodd" d="M280.499 0.17627L283.708 1.31411L283.923 1.39259C308.343 11.4174 359.491 35.0571 375.751 54.8321L378.804 58.5399L377.434 63.1501C375.947 68.1527 374.127 73.2141 372.288 78.099C367.611 90.6349 362.309 102.994 356.517 115.059C338.457 152.785 315.25 188.882 287.152 219.878C285.058 222.174 282.847 224.489 280.499 226.725C278.151 224.489 275.94 222.193 273.846 219.878C245.748 188.882 222.542 152.785 204.482 115.059C198.709 102.994 193.387 90.6349 188.711 78.099C186.891 73.2141 185.071 68.1527 183.565 63.1501L182.195 58.5399L185.247 54.8321C201.527 35.0767 252.675 11.437 277.095 1.39259L277.31 1.31411L280.519 0.17627H280.499Z" fill="#28245F"/>
<path d="M280.5 226.961L280.383 226.843C278.172 224.744 275.941 222.449 273.71 219.996C260.033 204.91 247.08 188.117 235.242 170.088C223.932 152.883 213.542 134.383 204.306 115.138C198.338 102.661 193.016 90.2232 188.535 78.1582C186.755 73.3714 184.896 68.2511 183.389 63.1896L182 58.5009L185.111 54.7146C192.253 46.0239 206.693 35.7833 228.021 24.2871C248.802 13.1244 269.21 4.45329 277.037 1.23593L277.252 1.15746L280.52 0L283.787 1.15746L284.002 1.25555C291.81 4.47291 312.218 13.1441 332.979 24.3263C354.307 35.8225 368.747 46.0631 375.889 54.7539L379 58.5401L377.611 63.2288C376.104 68.2707 374.245 73.4106 372.465 78.1974C367.984 90.2429 362.681 102.681 356.694 115.177C347.478 134.423 337.068 152.922 325.758 170.127C313.92 188.156 300.987 204.949 287.29 220.036C285.079 222.488 282.828 224.783 280.617 226.882L280.5 227V226.961ZM182.411 58.599L183.761 63.1111C185.268 68.153 187.107 73.2733 188.888 78.0404C193.368 90.0859 198.671 102.504 204.639 114.981C223.697 154.766 247.021 190.02 273.965 219.761C276.137 222.154 278.328 224.41 280.48 226.47C282.633 224.41 284.824 222.154 286.996 219.761C313.959 190.02 337.283 154.786 356.322 114.981C362.29 102.504 367.592 90.0663 372.073 78.0404C373.854 73.2536 375.713 68.1333 377.2 63.1111L378.55 58.599L375.556 54.9697C368.434 46.3181 354.033 36.1168 332.744 24.6402C312.061 13.4383 291.653 4.76718 283.846 1.56944L283.631 1.49097L280.5 0.39236L277.35 1.51059L277.154 1.58906C269.347 4.78679 248.939 13.458 228.198 24.6402C206.928 36.0971 192.527 46.2985 185.405 54.95L182.411 58.5794V58.599Z" fill="white"/>
<path fill-rule="evenodd" clip-rule="evenodd" d="M280.5 9.75049C280.5 9.75049 350.706 38.589 368.806 60.5808C368.806 60.5808 344.073 143.722 280.5 213.817C216.947 143.722 192.194 60.5808 192.194 60.5808C210.313 38.589 280.5 9.75049 280.5 9.75049Z" fill="#D8EFFC"/>
<path fill-rule="evenodd" clip-rule="evenodd" d="M280.497 198.907C304.114 171.187 323.857 139.66 339.531 106.898C345.068 95.3433 350.155 83.5137 354.636 71.5075C355.654 68.7609 356.691 65.9556 357.65 63.1306C341.487 48.0835 301.082 29.1325 280.497 20.4222C259.913 29.1325 219.507 48.0835 203.345 63.1306C204.303 65.9556 205.34 68.7609 206.358 71.5075C210.839 83.5137 215.926 95.3433 221.464 106.898C237.137 139.66 256.88 171.187 280.497 198.907ZM280.497 203.674C305.347 175.11 326.01 142.348 342.348 108.252C347.925 96.6185 353.051 84.6908 357.552 72.6061C358.804 69.2121 360.076 65.7398 361.23 62.2674C345.283 46.2591 301.747 25.9544 280.517 17.0479C259.287 25.9544 215.731 46.2591 199.803 62.2674C200.938 65.7398 202.21 69.2121 203.482 72.6061C207.982 84.7104 213.128 96.6185 218.685 108.252C235.004 142.348 255.686 175.11 280.536 203.674H280.497Z" fill="#28245F"/>
<path d="M280.5 203.929L280.363 203.772C256.491 176.327 235.672 144.192 218.492 108.311C212.72 96.2461 207.594 84.2595 203.269 72.6456C202.037 69.3498 200.745 65.8185 199.591 62.3069L199.552 62.2088L199.63 62.1303C218.571 43.1205 274.141 19.52 280.402 16.8716H280.461H280.52C286.801 19.5004 342.371 43.1205 361.292 62.1303L361.37 62.2088L361.331 62.3069C360.177 65.8185 358.885 69.3498 357.652 72.6456C353.328 84.2595 348.221 96.2461 342.429 108.311C325.25 144.192 304.43 176.327 280.559 203.772L280.422 203.929H280.5ZM199.982 62.3069C201.117 65.7793 202.408 69.2713 203.621 72.5279C207.946 84.1221 213.053 96.1087 218.825 108.174C235.966 143.977 256.707 176.013 280.5 203.4C304.293 176.013 325.054 143.957 342.175 108.174C347.947 96.1284 353.054 84.1221 357.379 72.5279C358.592 69.2713 359.864 65.7793 361.018 62.3069C342.116 43.4344 287.075 19.9908 280.5 17.2443C273.926 20.0105 218.864 43.4344 199.982 62.3069ZM280.5 199.162L280.363 199.005C257.646 172.364 237.785 141.387 221.29 106.977C215.557 95.0101 210.47 83.0824 206.185 71.5666C205.206 68.9182 204.15 66.0736 203.171 63.1897L203.132 63.072L203.211 62.9935C217.866 49.359 253.948 31.4478 280.422 20.2655H280.48H280.539C306.994 31.4674 343.095 49.3786 357.75 62.9935L357.829 63.072L357.789 63.1897C356.811 66.0736 355.754 68.9182 354.776 71.5666C350.491 83.0824 345.404 94.9905 339.67 106.977C323.195 141.407 303.315 172.364 280.598 199.005L280.461 199.162H280.5ZM203.563 63.1897C204.541 66.0343 205.559 68.8397 206.537 71.4489C210.822 82.9647 215.91 94.8532 221.623 106.82C238.059 141.152 257.861 172.03 280.5 198.632C303.139 172.05 322.941 141.152 339.377 106.82C345.11 94.8532 350.178 82.945 354.463 71.4489C355.441 68.8397 356.459 66.0343 357.437 63.1897C342.782 49.614 306.857 31.8009 280.48 20.6186C254.104 31.7813 218.179 49.614 203.524 63.1897H203.563Z" fill="white"/>
<path fill-rule="evenodd" clip-rule="evenodd" d="M280.501 42.8633C251.894 42.8633 225.733 64.2273 225.733 93.8701C225.733 123.513 251.894 144.877 280.501 144.877C309.108 144.877 335.269 123.513 335.269 93.8701C335.269 64.2273 309.108 42.8633 280.501 42.8633ZM280.501 48.9056C253.577 48.9056 231.76 69.0337 231.76 93.8701C231.76 118.707 253.577 138.835 280.501 138.835C307.425 138.835 329.242 118.707 329.242 93.8701C329.242 69.0337 307.425 48.9056 280.501 48.9056Z" fill="#28245F"/>
<path fill-rule="evenodd" clip-rule="evenodd" d="M307.859 45.9896C308.622 46.225 309.404 46.5978 310.109 46.9705C311.889 47.9122 313.553 49.1285 315.001 50.5214C315.509 50.129 316.018 49.4228 316.37 48.8735C317.368 47.2648 317.857 45.3815 318.014 43.4981C318.131 41.9091 318.249 40.32 318.327 38.7113C318.327 38.4563 318.347 38.1816 318.347 37.9266C318.347 37.7697 318.464 37.6323 318.621 37.6323L371.686 33.0613C372.508 32.9436 373.506 33.2771 374.152 33.7676C376.147 35.3174 376.167 38.7309 375.952 41.0066C375.58 44.7929 373.995 48.3045 371.686 51.2865C370.649 52.6205 369.358 54.0526 368.008 55.0728C368.81 55.3082 369.749 55.9948 370.316 56.6226C371.921 58.3882 372.156 60.7816 371.784 63.0573C371.275 66.1177 370.375 68.8054 368.36 71.1988C365.953 74.0434 362.333 76.0444 359.007 77.5942C359.457 78.1632 359.848 78.8694 360.161 79.5364C360.866 81.0078 361.276 82.6557 361.237 84.3036C361.179 86.3831 360.005 88.443 358.674 89.9928C357.207 91.7192 355.211 93.2298 353.097 94.093C351.376 94.7992 349.634 95.427 347.873 95.9959C347.149 96.2313 346.425 96.4668 345.701 96.6629C345.623 96.6826 345.564 96.761 345.564 96.8395C345.525 97.0945 345.877 97.428 346.034 97.585C346.777 98.2716 347.501 99.4683 347.893 100.39C348.538 101.842 348.812 103.49 348.245 105.001C346.953 108.395 341.905 110.847 338.677 111.945C336.113 112.828 333.296 113.77 330.556 113.77C331.104 114.084 331.672 114.613 332.083 115.104C332.865 116.085 333.12 117.203 332.435 118.321C331.456 119.91 328.893 121.499 327.269 122.382C324.96 123.638 322.299 124.736 319.716 125.266C317.27 125.756 314.629 124.422 312.653 123.069C311.694 122.402 310.774 121.656 309.894 120.872C309.346 120.381 308.837 119.871 308.309 119.381C307.839 118.949 307.193 118.341 306.861 117.792L302.243 126.227L298.427 137.351L304.454 145.002L304.513 145.041C304.513 145.041 304.532 145.061 304.552 145.08L315.079 158.715C315.079 158.715 315.079 158.715 315.098 158.734C315.901 160.088 316.507 162.05 316.723 163.6C317.251 167.327 316.136 170.662 313.514 173.35C310.833 176.077 307.428 177.489 303.613 177.587C302.028 177.626 300.012 177.43 298.506 176.901C298.33 177.587 298.036 178.293 297.743 178.941C297.038 180.51 296.099 182.001 294.984 183.296C293.457 185.081 291.599 186.513 289.466 187.514C286.648 188.828 283.557 189.26 280.465 189.123C280.465 189.123 280.426 189.123 280.406 189.123L280.25 189.083L280.093 189.123C280.093 189.123 280.054 189.123 280.035 189.123C276.943 189.26 273.851 188.828 271.034 187.514C268.901 186.513 267.042 185.081 265.516 183.296C264.401 181.982 263.461 180.51 262.757 178.941C262.463 178.293 262.17 177.587 261.994 176.901C260.487 177.43 258.491 177.626 256.887 177.587C253.071 177.489 249.686 176.077 246.986 173.35C244.344 170.682 243.229 167.327 243.777 163.6C243.992 162.05 244.599 160.088 245.401 158.734C245.401 158.734 245.401 158.734 245.421 158.715L255.948 145.08C255.948 145.08 255.967 145.061 255.987 145.041L256.045 145.002L262.072 137.351L258.257 126.227L253.639 117.792C253.326 118.341 252.66 118.949 252.191 119.381C251.662 119.871 251.154 120.381 250.606 120.872C249.725 121.656 248.825 122.402 247.847 123.069C245.871 124.422 243.249 125.756 240.783 125.266C238.2 124.736 235.539 123.638 233.23 122.382C231.606 121.499 229.043 119.91 228.065 118.321C227.38 117.203 227.615 116.085 228.417 115.104C228.808 114.613 229.395 114.103 229.943 113.77C227.204 113.77 224.386 112.828 221.823 111.945C218.594 110.847 213.526 108.375 212.255 105.001C211.687 103.49 211.961 101.822 212.607 100.39C213.018 99.4683 213.742 98.2716 214.466 97.585C214.622 97.428 214.974 97.0945 214.935 96.8395C214.935 96.761 214.857 96.6826 214.798 96.6629C214.074 96.4668 213.35 96.2313 212.626 95.9959C210.865 95.427 209.124 94.7796 207.402 94.093C205.289 93.2298 203.313 91.7192 201.825 89.9928C200.514 88.443 199.321 86.3831 199.262 84.3036C199.223 82.6557 199.634 81.0274 200.338 79.5364C200.651 78.8694 201.043 78.1632 201.493 77.5942C198.166 76.0248 194.547 74.0434 192.14 71.1988C190.124 68.8054 189.224 66.1177 188.716 63.0573C188.344 60.7816 188.579 58.3882 190.183 56.6226C190.751 55.9948 191.67 55.3082 192.492 55.0728C191.142 54.0526 189.85 52.6205 188.813 51.2865C186.505 48.2849 184.92 44.7929 184.548 41.0066C184.333 38.7113 184.352 35.3174 186.348 33.7676C186.994 33.2771 187.992 32.9436 188.813 33.0613L241.879 37.6323C242.035 37.6323 242.153 37.7697 242.153 37.9266C242.153 38.1816 242.153 38.4563 242.172 38.7113C242.231 40.3004 242.368 41.9091 242.486 43.4981C242.623 45.3815 243.131 47.2648 244.129 48.8735C244.462 49.4228 244.99 50.129 245.499 50.5214C246.947 49.1089 248.61 47.9122 250.391 46.9705C251.095 46.5978 251.878 46.225 252.641 45.9896C256.182 38.5936 261.857 33.0417 269.644 30.2952C271.992 29.4712 274.458 28.9219 276.943 28.7061C277.941 28.6081 278.997 28.5492 280.015 28.6277H280.191H280.367C281.385 28.5492 282.422 28.6277 283.439 28.7061C285.924 28.9219 288.39 29.4712 290.738 30.2952C298.525 33.0417 304.18 38.5936 307.741 45.9896H307.859Z" fill="#222161"/>
<path d="M281.621 189.337C281.249 189.337 280.897 189.337 280.505 189.318C280.466 189.318 280.447 189.318 280.427 189.318H280.31H280.192C280.153 189.318 280.133 189.318 280.114 189.318C276.748 189.475 273.696 188.925 271.035 187.689C268.902 186.689 267.024 185.257 265.458 183.432C264.343 182.118 263.404 180.646 262.68 179.018C262.445 178.488 262.151 177.821 261.956 177.135C260.606 177.586 258.747 177.821 256.966 177.782C253.092 177.684 249.629 176.213 246.948 173.505C244.267 170.779 243.132 167.365 243.68 163.618C243.935 161.872 244.58 159.949 245.343 158.694C245.343 158.694 245.363 158.655 245.383 158.655L255.91 145.02C255.91 145.02 255.949 144.981 255.968 144.961L256.007 144.922L261.956 137.369L258.179 126.344L253.699 118.163C253.327 118.673 252.779 119.183 252.388 119.536C252.172 119.733 251.977 119.929 251.761 120.125C251.448 120.419 251.135 120.733 250.803 121.027C249.844 121.89 248.924 122.616 248.024 123.244C245.285 125.127 242.878 125.873 240.843 125.461C237.869 124.853 235.071 123.558 233.251 122.577C231.744 121.753 229.044 120.125 228.027 118.457C227.361 117.359 227.479 116.162 228.379 115.044C228.672 114.671 229.064 114.298 229.475 113.984C226.853 113.867 224.211 112.964 221.863 112.16C217.969 110.826 213.371 108.276 212.177 105.097C211.512 103.332 212.001 101.547 212.53 100.35C212.901 99.4867 213.625 98.2312 214.447 97.4857C214.878 97.0933 214.878 96.9364 214.858 96.8971C214.858 96.8971 214.858 96.8775 214.839 96.8775C214.075 96.6617 213.312 96.4263 212.667 96.2105C210.906 95.6416 209.145 94.9942 207.423 94.2879C205.388 93.464 203.333 91.9534 201.787 90.1485C200.848 89.0499 199.244 86.8135 199.185 84.3612C199.146 82.7918 199.518 81.1046 200.281 79.5156C200.613 78.8093 200.966 78.2012 201.337 77.7107C198.324 76.2786 194.606 74.2776 192.121 71.3545C190.302 69.2161 189.245 66.6658 188.658 63.1345C188.208 60.4076 188.736 58.1319 190.165 56.5625C190.654 56.0328 191.456 55.405 192.239 55.0715C190.83 53.9533 189.597 52.5016 188.775 51.4422C186.31 48.2445 184.823 44.6544 184.471 41.0643C184.118 37.3957 184.745 34.9042 186.33 33.6683C187.054 33.0994 188.11 32.8051 188.932 32.9228L241.978 37.4938C242.232 37.5134 242.408 37.7096 242.408 37.9646C242.408 38.1608 242.408 38.357 242.408 38.5336V38.7297C242.487 40.2599 242.584 41.7313 242.721 43.5165C242.878 45.5372 243.426 47.3617 244.326 48.8134C244.522 49.1273 244.991 49.8531 245.539 50.324C246.987 48.9311 248.611 47.7736 250.353 46.8516C250.959 46.5377 251.761 46.1257 252.564 45.8707C256.262 38.2197 262.151 32.7855 269.626 30.1567C272.013 29.3131 274.479 28.7834 276.983 28.548C277.922 28.4695 279.018 28.391 280.075 28.4695C280.075 28.4695 280.094 28.4695 280.114 28.4695H280.251H280.407C280.407 28.4695 280.407 28.4695 280.447 28.4695C281.523 28.391 282.618 28.4695 283.538 28.548C286.023 28.7638 288.508 29.3131 290.895 30.1567C298.37 32.7855 304.26 38.2197 307.958 45.8707C308.76 46.1257 309.562 46.5181 310.169 46.8516C311.91 47.7736 313.534 48.9311 314.982 50.324C315.51 49.8531 316 49.1273 316.195 48.8134C317.095 47.3617 317.643 45.5372 317.8 43.5165C317.937 41.7509 318.054 40.2796 318.113 38.7297V38.5336C318.113 38.3374 318.132 38.1608 318.132 37.9646C318.132 37.7096 318.328 37.5134 318.563 37.4938L371.628 32.9228C372.431 32.8051 373.487 33.0994 374.211 33.6683C375.796 34.9042 376.422 37.3957 376.07 41.0643C375.718 44.6544 374.231 48.2445 371.765 51.4422C370.963 52.482 369.711 53.9533 368.302 55.0715C369.085 55.3854 369.887 56.0328 370.376 56.5625C371.824 58.1319 372.333 60.4076 371.883 63.1345C371.296 66.6658 370.239 69.2161 368.42 71.3545C365.954 74.2776 362.236 76.2786 359.203 77.7107C359.556 78.1816 359.908 78.7897 360.26 79.5156C361.023 81.1046 361.395 82.7722 361.356 84.3612C361.297 86.8135 359.693 89.0499 358.753 90.1485C357.208 91.9534 355.153 93.464 353.118 94.2879C351.416 94.9746 349.655 95.622 347.874 96.2105C347.229 96.4263 346.465 96.6617 345.702 96.8775C345.702 96.8775 345.702 96.8775 345.702 96.8971C345.702 96.9168 345.702 97.0933 346.113 97.4857C346.915 98.2312 347.639 99.5063 348.031 100.35C348.559 101.547 349.048 103.351 348.383 105.097C347.189 108.256 342.591 110.806 338.697 112.16C336.349 112.964 333.708 113.867 331.086 113.984C331.497 114.298 331.888 114.671 332.182 115.044C333.082 116.182 333.219 117.359 332.534 118.457C331.516 120.125 328.816 121.753 327.309 122.577C325.49 123.558 322.692 124.872 319.717 125.461C317.682 125.873 315.256 125.127 312.536 123.244C311.636 122.616 310.717 121.89 309.758 121.027C309.425 120.733 309.112 120.419 308.799 120.125C308.584 119.929 308.388 119.733 308.173 119.536C307.782 119.183 307.234 118.654 306.862 118.163L302.381 126.344L298.605 137.369L304.553 144.922L304.592 144.961C304.592 144.961 304.631 145 304.651 145.02L315.178 158.655C315.178 158.655 315.197 158.674 315.217 158.694C315.98 159.949 316.626 161.892 316.88 163.618C317.428 167.365 316.293 170.798 313.613 173.505C310.951 176.213 307.488 177.704 303.594 177.782C301.814 177.821 299.974 177.586 298.605 177.135C298.409 177.821 298.115 178.508 297.881 179.018C297.157 180.627 296.217 182.118 295.102 183.432C293.537 185.276 291.658 186.708 289.526 187.689C287.178 188.788 284.497 189.337 281.562 189.337H281.621ZM280.31 188.906L280.505 188.945C280.505 188.945 280.505 188.945 280.525 188.945C283.832 189.102 286.845 188.552 289.428 187.356C291.502 186.395 293.341 184.982 294.867 183.177C295.963 181.882 296.883 180.431 297.587 178.861C297.842 178.312 298.155 177.566 298.331 176.841L298.37 176.664L298.546 176.723C300.111 177.272 302.185 177.449 303.594 177.409C307.39 177.311 310.756 175.879 313.358 173.231C315.961 170.602 317.056 167.267 316.528 163.638C316.293 161.95 315.647 160.067 314.923 158.831L304.396 145.177L304.318 145.118L298.233 137.389L302.088 126.148L306.862 117.437L307.018 117.712C307.332 118.242 307.997 118.869 308.427 119.262C308.643 119.458 308.858 119.654 309.053 119.85C309.366 120.144 309.68 120.458 310.012 120.733C310.971 121.596 311.851 122.302 312.752 122.911C315.413 124.735 317.741 125.461 319.678 125.069C322.613 124.48 325.372 123.185 327.192 122.204C328.679 121.4 331.321 119.811 332.299 118.222C332.906 117.241 332.788 116.221 331.966 115.201C331.575 114.71 331.008 114.22 330.499 113.906L329.951 113.572H330.597C333.356 113.572 336.173 112.611 338.658 111.748C342.474 110.434 346.974 107.942 348.129 104.901C348.755 103.253 348.285 101.547 347.776 100.409C347.405 99.5848 346.72 98.3685 345.957 97.6622C345.565 97.3091 345.389 97.0148 345.428 96.7598C345.448 96.6225 345.565 96.4852 345.702 96.4459C346.465 96.2301 347.209 95.9947 347.874 95.7789C349.635 95.21 351.377 94.5626 353.079 93.876C355.075 93.0716 357.071 91.5807 358.577 89.815C359.497 88.736 361.043 86.5977 361.101 84.2435C361.141 82.7329 360.769 81.1046 360.045 79.5548C359.673 78.7701 359.282 78.1227 358.91 77.6519L358.773 77.4753L358.969 77.3772C361.982 75.9647 365.778 73.9637 368.263 71.021C370.024 68.9219 371.081 66.45 371.648 62.9776C371.942 61.1531 371.942 58.5832 370.22 56.6998C369.711 56.1505 368.811 55.4443 367.989 55.2089L367.656 55.1108L367.93 54.895C369.417 53.7767 370.728 52.2269 371.57 51.1283C373.996 47.9894 375.464 44.4582 375.796 40.927C376.129 37.4349 375.542 34.9827 374.074 33.8449C373.429 33.3348 372.47 33.0601 371.746 33.1582L318.661 37.7292C318.661 37.7292 318.543 37.7881 318.543 37.8469C318.543 38.0431 318.543 38.2393 318.543 38.4355V38.6316C318.465 40.1815 318.367 41.6528 318.23 43.4184C318.074 45.4979 317.506 47.3813 316.567 48.8722C316.352 49.2254 315.784 50.0886 315.158 50.5594L315.041 50.6575L314.923 50.5594C313.476 49.1469 311.832 47.9698 310.071 47.0282C309.445 46.6946 308.643 46.3023 307.84 46.0473H307.762L307.723 45.9492C304.083 38.357 298.233 32.962 290.817 30.3528C288.469 29.5289 286.023 28.9796 283.558 28.7638C282.638 28.6853 281.562 28.6068 280.525 28.6853H280.329H280.133C279.077 28.6068 278.001 28.6853 277.081 28.7638C274.616 28.9796 272.17 29.5289 269.822 30.3528C262.406 32.962 256.575 38.357 252.916 45.9492L252.877 46.0276H252.798C251.996 46.3023 251.194 46.6946 250.568 47.0282C248.807 47.9502 247.183 49.1469 245.715 50.5594L245.598 50.6575L245.48 50.5594C244.854 50.0689 244.287 49.2058 244.072 48.8722C243.152 47.3813 242.565 45.4783 242.408 43.4184C242.271 41.6528 242.154 40.1619 242.095 38.6316V38.4355C242.095 38.2393 242.076 38.0431 242.076 37.8469C242.076 37.7881 242.017 37.7292 241.958 37.7292L188.893 33.1582C188.169 33.0601 187.21 33.3348 186.564 33.8449C185.097 34.9827 184.49 37.4349 184.842 40.927C185.175 44.4582 186.643 47.9894 189.069 51.1283C189.91 52.2269 191.241 53.7571 192.708 54.895L192.982 55.1108L192.65 55.2089C191.828 55.4443 190.928 56.1505 190.419 56.6998C188.697 58.5832 188.697 61.1531 188.991 62.9776C189.558 66.45 190.615 68.9415 192.376 71.021C194.861 73.9637 198.637 75.9647 201.67 77.3772L201.866 77.4753L201.729 77.6519C201.337 78.1423 200.966 78.7701 200.594 79.5548C199.87 81.1046 199.498 82.7133 199.537 84.2435C199.596 86.5977 201.142 88.736 202.061 89.815C203.568 91.5807 205.583 93.052 207.56 93.876C209.262 94.5626 211.003 95.21 212.764 95.7789C213.41 95.9947 214.173 96.2301 214.917 96.4459C215.054 96.4852 215.171 96.6225 215.191 96.7598C215.23 96.9952 215.054 97.2895 214.662 97.6622C213.899 98.3685 213.195 99.5848 212.843 100.409C212.334 101.547 211.864 103.253 212.491 104.901C213.645 107.942 218.145 110.434 221.961 111.748C224.446 112.592 227.264 113.572 230.023 113.572H230.668L230.12 113.906C229.612 114.22 229.044 114.71 228.653 115.201C227.831 116.221 227.714 117.241 228.32 118.222C229.299 119.831 231.94 121.4 233.427 122.204C235.227 123.185 237.986 124.46 240.941 125.069C242.878 125.461 245.206 124.735 247.868 122.911C248.768 122.302 249.648 121.577 250.607 120.733C250.94 120.439 251.253 120.144 251.566 119.85C251.781 119.654 251.977 119.458 252.192 119.262C252.622 118.85 253.288 118.242 253.601 117.712L253.757 117.437L258.532 126.187L262.367 137.408L256.262 145.157L256.203 145.197L245.676 158.831C244.933 160.067 244.306 161.95 244.052 163.638C243.524 167.287 244.619 170.602 247.222 173.231C249.824 175.879 253.209 177.311 256.986 177.409C258.395 177.449 260.449 177.272 262.034 176.723L262.21 176.664L262.249 176.841C262.445 177.566 262.758 178.312 262.993 178.861C263.697 180.431 264.617 181.902 265.713 183.177C267.239 184.982 269.078 186.375 271.152 187.356C273.755 188.572 276.748 189.102 280.055 188.945C280.055 188.945 280.055 188.945 280.075 188.945L280.27 188.906H280.31Z" fill="white"/>
<path fill-rule="evenodd" clip-rule="evenodd" d="M226.343 40.7297C220.727 40.2196 215.111 39.7095 209.496 39.2191C205.484 38.8659 201.454 38.5324 197.442 38.1989C196.034 38.0812 194.625 37.9831 193.216 37.885C192.766 37.8654 192.335 37.8262 191.885 37.8066C191.651 37.8066 191.435 37.787 191.201 37.8066C189.674 37.9243 189.107 38.8463 189.537 40.2784C190.418 43.2211 191.651 45.8696 193.392 48.4003C194.507 50.0482 195.877 51.5588 197.364 52.8732C197.834 53.2852 199.438 54.58 200.006 54.58C200.162 54.58 200.299 54.5407 200.436 54.5211C200.769 54.4623 201.082 54.4034 201.415 54.3446C202.491 54.1484 203.567 53.9522 204.643 53.756C207.793 53.1871 210.944 52.5986 214.094 52.01C218.536 51.1861 222.977 50.3621 227.399 49.5381C227.556 49.5185 227.654 49.3616 227.634 49.2046L226.597 40.9651C226.597 40.8277 226.46 40.71 226.323 40.71L226.343 40.7297Z" fill="#D8EFFC"/>
<path fill-rule="evenodd" clip-rule="evenodd" d="M278.607 77.7302C278.529 77.3183 278.431 76.9063 278.353 76.4943C278.02 74.9249 277.668 73.375 277.277 71.8252C276.162 67.4308 274.792 63.0167 272.894 58.8969C271.739 56.3662 269.92 52.5603 267.787 50.7947C266.241 49.5392 264.715 49.4803 262.856 49.9511C260.939 50.4416 259.373 51.7952 258.571 53.6197C257.593 55.8562 257.945 58.328 258.982 60.4664C261.565 65.8025 272.913 75.0818 278.138 78.0834C278.255 78.1422 278.392 78.1422 278.49 78.0834C278.588 78.0049 278.647 77.8872 278.627 77.7499L278.607 77.7302Z" fill="#D8EFFC"/>
<path fill-rule="evenodd" clip-rule="evenodd" d="M282.5 78.0825C287.724 75.0809 299.073 65.8016 301.656 60.4655C302.693 58.3271 303.045 55.8553 302.067 53.6188C301.265 51.8139 299.699 50.4407 297.782 49.9502C295.923 49.4794 294.397 49.5186 292.851 50.7938C290.699 52.5594 288.898 56.3849 287.744 58.8961C285.846 63.0355 284.476 67.4299 283.361 71.8243C282.97 73.3741 282.617 74.924 282.285 76.4934C282.206 76.9054 282.109 77.3174 282.03 77.7293C282.011 77.8667 282.05 77.9844 282.167 78.0629C282.265 78.1413 282.402 78.1413 282.52 78.0629L282.5 78.0825Z" fill="#D8EFFC"/>
<path fill-rule="evenodd" clip-rule="evenodd" d="M280.307 36.5713C278.8 36.4928 277.235 36.5909 275.748 36.7675C272.421 37.1402 269.095 37.9446 266.003 39.2393C265.886 39.2786 265.827 39.3767 265.808 39.4944C265.808 39.6121 265.827 39.7102 265.925 39.7886C267.256 40.9461 268.508 42.2017 269.702 43.4768C271.874 45.8114 274.339 48.8326 275.474 51.8341C276.55 54.6983 277.489 57.6018 278.272 60.5445C278.976 63.2322 279.544 65.9395 280.013 68.6664C280.033 68.8233 280.17 68.941 280.346 68.941C280.522 68.941 280.64 68.8233 280.679 68.6664C281.148 65.9395 281.716 63.2322 282.42 60.5445C283.183 57.5822 284.142 54.6787 285.218 51.8341C286.353 48.8326 288.819 45.8114 290.99 43.4768C292.184 42.2017 293.436 40.9461 294.767 39.7886C294.865 39.7102 294.904 39.5925 294.884 39.4944C294.884 39.3767 294.786 39.2786 294.689 39.2393C291.577 37.9642 288.271 37.1402 284.944 36.7675C283.457 36.6105 281.892 36.4928 280.385 36.5713H280.307Z" fill="#D8EFFC"/>
<path fill-rule="evenodd" clip-rule="evenodd" d="M291.734 139.055C291.226 143.744 291.03 148.511 291.206 153.239C291.284 155.358 291.421 157.496 291.734 159.615C291.95 161.106 292.243 162.734 292.85 164.108C293.75 166.207 295.256 168.051 297.291 169.149C298.876 170.013 300.833 170.385 302.574 169.797C304.394 169.189 305.49 167.698 305.881 165.854C306.488 163.029 305.49 159.694 304.375 157.104C303.435 154.946 302.261 152.906 301.009 150.905C299.698 148.825 298.309 146.805 296.88 144.823C295.413 142.802 293.926 140.821 292.341 138.899C292.263 138.8 292.126 138.761 291.989 138.781C291.852 138.82 291.773 138.918 291.754 139.055H291.734Z" fill="#D8EFFC"/>
<path fill-rule="evenodd" clip-rule="evenodd" d="M280.327 181.432C285.395 181.255 287.822 178.803 288.565 174.938C289.211 171.466 288.487 167.856 288.056 164.384C287.802 162.363 287.176 160.342 286.452 158.4C285.708 156.419 284.828 154.457 283.849 152.554C282.852 150.592 281.795 148.65 280.621 146.767C280.562 146.669 280.445 146.629 280.327 146.629C280.21 146.629 280.093 146.688 280.034 146.767C278.86 148.65 277.803 150.592 276.805 152.554C275.827 154.477 274.947 156.419 274.203 158.4C273.479 160.342 272.853 162.363 272.598 164.384C272.148 167.856 271.424 171.466 272.09 174.938C272.814 178.803 275.24 181.255 280.327 181.432C280.327 181.432 280.327 181.432 280.347 181.432H280.327Z" fill="#D8EFFC"/>
<path fill-rule="evenodd" clip-rule="evenodd" d="M268.294 138.899C266.729 140.822 265.222 142.823 263.754 144.824C262.306 146.805 260.917 148.826 259.626 150.905C258.373 152.887 257.199 154.947 256.26 157.105C255.145 159.694 254.127 163.029 254.754 165.854C255.145 167.698 256.241 169.189 258.06 169.797C259.802 170.386 261.759 170.013 263.343 169.15C265.359 168.051 266.885 166.207 267.785 164.108C268.372 162.735 268.666 161.107 268.9 159.616C269.214 157.517 269.35 155.378 269.429 153.24C269.605 148.531 269.429 143.764 268.9 139.056C268.9 138.919 268.803 138.821 268.666 138.781C268.529 138.742 268.411 138.781 268.313 138.899H268.294Z" fill="#D8EFFC"/>
<path fill-rule="evenodd" clip-rule="evenodd" d="M265.866 52.9907C263.675 52.9907 261.914 54.7563 261.914 56.9536C261.914 59.1508 263.675 60.9164 265.866 60.9164C268.058 60.9164 269.819 59.1508 269.819 56.9536C269.819 54.7563 268.058 52.9907 265.866 52.9907Z" fill="#222161"/>
<path fill-rule="evenodd" clip-rule="evenodd" d="M294.746 52.9907C296.938 52.9907 298.699 54.7563 298.699 56.9536C298.699 59.1508 296.938 60.9164 294.746 60.9164C292.555 60.9164 290.794 59.1508 290.794 56.9536C290.794 54.7563 292.555 52.9907 294.746 52.9907Z" fill="#222161"/>
<path fill-rule="evenodd" clip-rule="evenodd" d="M231.724 41.4963C231.724 41.7121 231.724 41.9475 231.724 42.1633C231.724 52.1881 238.064 61.1339 247.515 64.4102C247.671 64.469 247.847 64.3905 247.887 64.2336L249.785 58.819C249.785 58.819 249.804 58.6621 249.785 58.5836C249.745 58.5051 249.687 58.4659 249.608 58.4267C242.917 56.5237 238.299 50.3833 238.299 43.4189C238.299 42.948 238.318 42.4968 238.357 42.0456C238.357 41.9671 238.357 41.8887 238.279 41.8298C238.22 41.771 238.162 41.7317 238.083 41.7317L232.076 41.202C232.076 41.202 231.92 41.202 231.842 41.2805C231.783 41.3394 231.744 41.4178 231.744 41.4963H231.724ZM232.331 59.6626C231.998 58.4659 231.215 56.5433 230.237 55.7782C229.494 55.1897 228.594 55.0916 227.674 55.1308C226.245 55.1701 224.817 55.4839 223.428 55.7194C221.432 56.0725 219.417 56.3864 217.401 56.7199C214.134 57.2496 210.885 57.7793 207.618 58.3089C203.274 59.0152 198.93 59.7018 194.586 60.4081C194.469 60.4081 194.39 60.5062 194.351 60.6043C194.077 61.4282 194.019 62.5464 194.077 63.4292C194.273 65.9011 195.506 67.961 197.326 69.6089C199.321 71.3942 201.611 72.8655 204.057 73.9445C205.074 74.3957 206.17 74.8273 207.246 75.0627C207.246 75.0627 207.246 75.0627 207.266 75.0627C207.892 75.1412 208.694 75.0039 209.261 74.7488C210.944 73.9641 212.568 73.1009 214.173 72.1985C216.129 71.0999 218.066 69.9817 220.004 68.8242C223.565 66.6858 227.106 64.4886 230.55 62.1345C231.294 61.6244 232.389 60.7023 232.35 59.7214C232.35 59.7018 232.35 59.6822 232.35 59.6626H232.331ZM235.912 64.6652L206.033 82.3214C205.641 82.5568 205.231 83.008 205.015 83.42C204.448 84.4598 204.839 85.4603 205.563 86.3039C206.855 87.7948 209.555 89.2466 211.316 90.149C212.431 90.7179 213.586 91.2476 214.74 91.6988C215.542 92.0127 216.403 92.3658 217.264 92.5424C217.988 92.6797 218.908 92.8955 219.632 92.7974C220.18 92.7386 220.532 92.5031 220.962 92.1893C221.921 91.483 222.88 90.816 223.839 90.149C225.795 88.7561 227.752 87.3632 229.709 85.9507C231.998 84.3028 234.268 82.6157 236.518 80.9285C238.455 79.4572 240.392 77.9858 242.251 76.436C243.582 75.3178 246.282 73.0028 246.849 71.3942C247.163 70.4917 246.771 70.0209 246.106 69.4912C245.871 69.3146 245.617 69.1773 245.362 69.04C244.932 68.8046 244.501 68.5888 244.071 68.373C242.956 67.8041 241.821 67.2744 240.666 66.7447C239.179 66.0581 237.673 65.3714 236.185 64.6848C236.088 64.6456 235.99 64.6456 235.912 64.6848V64.6652ZM245.969 79.1825C242.525 81.7917 239.101 84.4401 235.696 87.0886C232.996 89.2073 230.296 91.3457 227.615 93.5037C226.461 94.4453 225.326 95.387 224.211 96.3287C223.369 97.0545 222.528 97.7608 221.745 98.5259C220.61 99.6245 218.145 101.979 218.066 103.607C217.988 105 219.671 105.745 220.747 106.197C221.706 106.589 222.626 107.06 223.584 107.452C224.7 107.923 225.835 108.315 227.009 108.551C230.237 109.237 233.329 108.766 236.381 107.589C236.655 107.531 236.988 107.354 237.223 107.197C238.005 106.726 238.71 106.04 239.316 105.353C241.645 102.646 243.993 99.958 246.341 97.2703C246.341 97.2703 246.341 97.2507 246.36 97.2311C247.123 96.0344 247.632 94.2295 247.632 92.7974C247.632 91.0122 247.573 89.2466 247.495 87.4809C247.417 85.5584 247.319 83.6554 247.182 81.7329C247.143 81.2032 247.045 79.261 246.595 79.006C246.556 78.9863 246.517 78.9667 246.478 78.9667C246.321 78.9667 246.145 79.0648 246.008 79.1433C246.008 79.1433 246.008 79.1433 245.989 79.1433L245.969 79.1825ZM234.346 116.104C233.877 116.535 234.503 117.418 234.816 117.791C236.792 120.125 239.277 121.44 242.349 120.557C244.325 119.988 246.106 118.517 247.515 117.065C248.532 116.006 249.393 114.848 250.254 113.671C250.43 113.436 250.782 113.024 250.822 112.729C250.861 112.415 250.606 111.748 250.508 111.435C250.019 109.865 249.608 107.55 249.726 105.922C249.785 105.235 249.667 104.49 249.511 103.823C249.432 103.489 249.256 102.94 249.08 102.665C249.021 102.587 248.963 102.548 248.865 102.528C248.767 102.528 248.689 102.528 248.63 102.606L234.366 116.084C234.366 116.084 234.366 116.084 234.346 116.084V116.104ZM326.272 116.104C326.741 116.535 326.115 117.418 325.802 117.791C323.826 120.125 321.341 121.44 318.269 120.557C316.293 119.988 314.512 118.517 313.103 117.065C312.086 116.006 311.225 114.848 310.364 113.671C310.188 113.436 309.835 113.024 309.796 112.729C309.757 112.415 310.012 111.748 310.109 111.435C310.599 109.865 311.009 107.55 310.892 105.922C310.833 105.235 310.951 104.49 311.107 103.823C311.186 103.489 311.362 102.94 311.538 102.665C311.596 102.587 311.655 102.548 311.753 102.528C311.851 102.528 311.929 102.528 311.988 102.606L326.252 116.084C326.252 116.084 326.252 116.084 326.272 116.084V116.104ZM314.649 79.1825C318.093 81.7917 321.517 84.4401 324.922 87.0886C327.622 89.2073 330.322 91.3457 333.003 93.5037C334.157 94.4453 335.292 95.387 336.407 96.3287C337.249 97.0545 338.09 97.7608 338.873 98.5259C340.008 99.6245 342.473 101.979 342.551 103.607C342.63 105 340.947 105.745 339.871 106.197C338.912 106.589 337.992 107.06 337.034 107.452C335.918 107.923 334.783 108.315 333.609 108.551C330.381 109.237 327.289 108.766 324.237 107.589C323.963 107.531 323.63 107.354 323.395 107.197C322.613 106.726 321.908 106.04 321.302 105.353C318.973 102.646 316.625 99.958 314.277 97.2703C314.277 97.2703 314.277 97.2507 314.258 97.2311C313.494 96.0344 312.986 94.2295 312.986 92.7974C312.986 91.0122 313.044 89.2466 313.123 87.4809C313.201 85.5584 313.299 83.6554 313.436 81.7329C313.475 81.2032 313.573 79.261 314.023 79.006C314.062 78.9863 314.101 78.9667 314.14 78.9667C314.297 78.9667 314.473 79.0648 314.61 79.1433C314.61 79.1433 314.61 79.1433 314.629 79.1433L314.649 79.1825ZM334.255 40.7116C339.871 40.2015 345.486 39.6915 351.102 39.201C355.113 38.8479 359.144 38.5144 363.155 38.1809C364.564 38.0632 365.973 37.9651 367.382 37.867C367.832 37.8474 368.262 37.8081 368.712 37.7885C368.947 37.7885 369.162 37.7689 369.397 37.7885C370.923 37.9062 371.491 38.8283 371.06 40.2604C370.18 43.2031 368.947 45.8515 367.206 48.3822C366.09 50.0301 364.721 51.5407 363.234 52.8551C362.764 53.2671 361.16 54.5619 360.592 54.5619C360.436 54.5619 360.299 54.5227 360.162 54.5031C359.829 54.4442 359.516 54.3853 359.183 54.3265C358.107 54.1303 357.031 53.9341 355.955 53.7379C352.804 53.169 349.654 52.5805 346.504 51.9919C342.062 51.168 337.621 50.344 333.198 49.5201C333.042 49.5005 332.944 49.3435 332.964 49.1866L334.001 40.947C334.001 40.8097 334.138 40.692 334.275 40.692L334.255 40.7116ZM328.268 59.643C328.6 58.4463 329.383 56.5237 330.361 55.7586C331.105 55.1701 332.005 55.072 332.924 55.1112C334.353 55.1504 335.781 55.4643 337.17 55.6997C339.166 56.0529 341.182 56.3668 343.197 56.7003C346.465 57.23 349.713 57.7596 352.981 58.2893C357.324 58.9956 361.668 59.6822 366.012 60.3885C366.13 60.3885 366.208 60.4865 366.247 60.5846C366.521 61.4086 366.58 62.5268 366.521 63.4096C366.325 65.8815 365.093 67.9414 363.273 69.5893C361.277 71.3745 358.988 72.8459 356.542 73.9249C355.524 74.3761 354.429 74.8077 353.352 75.0431C353.352 75.0431 353.352 75.0431 353.333 75.0431C352.707 75.1216 351.904 74.9843 351.337 74.7292C349.654 73.9445 348.03 73.0813 346.426 72.1789C344.469 71.0803 342.532 69.962 340.595 68.8046C337.034 66.6662 333.492 64.469 330.048 62.1148C329.305 61.6048 328.209 60.6827 328.248 59.7018C328.248 59.6822 328.248 59.6626 328.248 59.643H328.268ZM324.687 64.6456L354.566 82.3018C354.957 82.5372 355.368 82.9884 355.583 83.4004C356.15 84.4401 355.759 85.4407 355.055 86.2842C353.763 87.7752 351.063 89.2269 349.302 90.1294C348.187 90.6983 347.032 91.228 345.878 91.6792C345.076 91.9931 344.215 92.3462 343.354 92.5228C342.63 92.6601 341.71 92.8759 340.986 92.7778C340.438 92.7189 340.086 92.4835 339.655 92.1696C338.697 91.4634 337.738 90.7964 336.779 90.1294C334.822 88.7365 332.866 87.3436 330.909 85.9311C328.62 84.2832 326.35 82.596 324.1 80.9089C322.163 79.4375 320.226 77.9662 318.367 76.4164C317.036 75.2981 314.336 72.9832 313.768 71.3745C313.455 70.4721 313.847 70.0013 314.512 69.4716C314.747 69.295 315.001 69.1577 315.256 69.0204C315.686 68.785 316.116 68.5692 316.547 68.3534C317.662 67.7844 318.797 67.2548 319.952 66.7251C321.439 66.0384 322.945 65.3518 324.432 64.6652C324.53 64.6259 324.628 64.6259 324.706 64.6652L324.687 64.6456ZM328.855 41.4571C328.855 41.6729 328.855 41.9083 328.855 42.1241C328.855 52.1489 322.515 61.0947 313.064 64.3709C312.907 64.4298 312.731 64.3513 312.692 64.1944L310.794 58.7798C310.794 58.7798 310.775 58.6228 310.794 58.5444C310.833 58.4659 310.892 58.4267 310.97 58.3874C317.662 56.4845 322.28 50.344 322.28 43.3796C322.28 42.9088 322.26 42.4576 322.221 42.0064C322.221 41.9279 322.221 41.8494 322.3 41.7906C322.358 41.7317 322.417 41.6925 322.495 41.6925L328.502 41.1628C328.502 41.1628 328.659 41.1628 328.737 41.2413C328.796 41.3001 328.835 41.3786 328.835 41.4571H328.855Z" fill="#D8EFFC"/>
<path fill-rule="evenodd" clip-rule="evenodd" d="M217.927 39.967C217.927 39.967 215.423 47.6376 213.094 52.2282C210.277 52.7579 207.479 53.268 204.661 53.7781C203.585 53.9742 202.509 54.1704 201.433 54.3666C201.1 54.4254 200.787 54.4843 200.454 54.5432C200.317 54.5628 200.161 54.602 200.024 54.602C199.456 54.602 197.852 53.3072 197.382 52.8952C195.876 51.6005 194.525 50.0703 193.41 48.4223C191.669 45.8916 190.455 43.2236 189.555 40.3005C189.125 38.8488 189.673 37.9267 191.219 37.8286C191.453 37.8286 191.669 37.8286 191.903 37.8286C192.353 37.8482 192.804 37.8678 193.234 37.9071C194.643 38.0052 196.052 38.1033 197.46 38.221C201.472 38.5349 205.502 38.888 209.514 39.2411C212.331 39.4765 215.129 39.7316 217.947 39.9866L217.927 39.967ZM224.678 55.5044C224.737 57.172 224.248 62.1157 218.064 69.9629C216.773 70.728 215.482 71.4735 214.171 72.1994C212.566 73.1018 210.922 73.965 209.259 74.7497C208.692 75.0244 207.89 75.1421 207.263 75.0636C207.263 75.0636 207.263 75.0636 207.244 75.0636C206.168 74.8086 205.072 74.377 204.054 73.9454C201.609 72.8664 199.3 71.4146 197.323 69.6098C195.504 67.9815 194.271 65.902 194.075 63.4301C194.017 62.5669 194.075 61.4487 194.349 60.6051C194.388 60.4874 194.467 60.4089 194.584 60.4089C198.928 59.7223 203.272 59.0161 207.616 58.3098C210.883 57.7801 214.131 57.2504 217.399 56.7208C219.415 56.3873 221.41 56.0734 223.426 55.7202C223.856 55.6418 224.267 55.5633 224.698 55.4848L224.678 55.5044ZM235.89 64.6857H236.183C236.183 64.6857 237.083 66.0393 239.51 66.9614C241.936 67.8834 239.686 73.7688 238.492 75.6325C237.729 76.8292 233.972 81.5179 231.409 84.696C230.842 85.108 230.274 85.52 229.707 85.932C227.75 87.3445 225.793 88.7374 223.837 90.1302C222.878 90.8169 221.9 91.4839 220.96 92.1705C220.53 92.4844 220.158 92.7198 219.63 92.7787C218.906 92.8571 217.986 92.661 217.262 92.5236C216.401 92.3471 215.54 92.0136 214.738 91.6801C213.564 91.2092 212.429 90.6795 211.314 90.1302C209.553 89.2474 206.833 87.7957 205.561 86.2851C204.837 85.4415 204.465 84.441 205.013 83.4012C205.229 82.9893 205.639 82.5577 206.031 82.3026L235.89 64.6464V64.6857ZM240.136 83.6563C240.136 83.6563 242.601 85.9516 242.738 87.933C242.895 89.9144 243.091 94.1519 240.782 97.6243C238.473 101.097 237.729 104.961 237.807 106.825C237.612 106.982 237.416 107.119 237.201 107.237C236.966 107.374 236.633 107.571 236.36 107.63C233.307 108.807 230.215 109.277 226.987 108.591C225.813 108.336 224.678 107.943 223.563 107.492C222.604 107.1 221.684 106.649 220.726 106.237C219.669 105.785 217.967 105.06 218.045 103.647C218.123 102.019 220.589 99.6646 221.723 98.566C222.526 97.8009 223.347 97.075 224.189 96.3688C225.304 95.4075 226.459 94.4658 227.594 93.5438C230.255 91.3662 232.955 89.2474 235.675 87.1287C237.142 85.9712 238.629 84.8334 240.116 83.6759L240.136 83.6563ZM243.012 107.943L245.028 119.263C244.206 119.832 243.306 120.303 242.367 120.577C239.295 121.46 236.81 120.126 234.833 117.811C234.52 117.438 233.894 116.556 234.364 116.124C234.364 116.124 234.364 116.124 234.383 116.124L243.012 107.983V107.943ZM342.706 39.967C342.706 39.967 345.21 47.6376 347.539 52.2282C350.357 52.7579 353.155 53.268 355.972 53.7781C357.048 53.9742 358.125 54.1704 359.201 54.3666C359.533 54.4254 359.846 54.4843 360.179 54.5432C360.316 54.5628 360.473 54.602 360.61 54.602C361.177 54.602 362.782 53.3072 363.251 52.8952C364.758 51.6005 366.108 50.0703 367.223 48.4223C368.965 45.8916 370.178 43.2236 371.078 40.3005C371.508 38.8488 370.961 37.9267 369.415 37.8286C369.18 37.8286 368.965 37.8286 368.73 37.8286C368.28 37.8482 367.83 37.8678 367.399 37.9071C365.991 38.0052 364.582 38.1033 363.173 38.221C359.162 38.5349 355.131 38.888 351.12 39.2411C348.302 39.4765 345.504 39.7316 342.686 39.9866L342.706 39.967ZM335.955 55.5044C335.897 57.172 336.386 62.1157 342.569 69.9629C343.86 70.728 345.152 71.4735 346.463 72.1994C348.067 73.1018 349.711 73.965 351.374 74.7497C351.941 75.0244 352.744 75.1421 353.37 75.0636C353.37 75.0636 353.37 75.0636 353.389 75.0636C354.466 74.8086 355.561 74.377 356.579 73.9454C359.025 72.8664 361.334 71.4146 363.31 69.6098C365.13 67.9815 366.362 65.902 366.558 63.4301C366.617 62.5669 366.558 61.4487 366.284 60.6051C366.245 60.4874 366.167 60.4089 366.049 60.4089C361.705 59.7223 357.361 59.0161 353.018 58.3098C349.75 57.7801 346.502 57.2504 343.234 56.7208C341.219 56.3873 339.223 56.0734 337.208 55.7202C336.777 55.6418 336.366 55.5633 335.936 55.4848L335.955 55.5044ZM324.743 64.6857H324.45C324.45 64.6857 323.55 66.0393 321.124 66.9614C318.697 67.8834 320.947 73.7688 322.141 75.6325C322.904 76.8292 326.661 81.5179 329.224 84.696C329.792 85.108 330.359 85.52 330.927 85.932C332.883 87.3445 334.84 88.7374 336.797 90.1302C337.755 90.8169 338.734 91.4839 339.673 92.1705C340.103 92.4844 340.475 92.7198 341.004 92.7787C341.728 92.8571 342.647 92.661 343.371 92.5236C344.213 92.3471 345.093 92.0136 345.895 91.6801C347.069 91.2092 348.204 90.6795 349.319 90.1302C351.081 89.2474 353.8 87.7957 355.072 86.2851C355.796 85.4415 356.168 84.441 355.6 83.4012C355.385 82.9893 354.974 82.5577 354.583 82.3026L324.724 64.6464L324.743 64.6857ZM320.497 83.6563C320.497 83.6563 318.032 85.9516 317.895 87.933C317.738 89.9144 317.543 94.1519 319.852 97.6243C322.161 101.097 322.904 104.961 322.826 106.825C323.022 106.982 323.217 107.119 323.432 107.237C323.667 107.374 324 107.571 324.274 107.63C327.326 108.807 330.418 109.277 333.646 108.591C334.82 108.336 335.955 107.943 337.071 107.492C338.029 107.1 338.949 106.649 339.908 106.237C340.964 105.785 342.667 105.06 342.588 103.647C342.51 102.019 340.045 99.6646 338.91 98.566C338.108 97.8009 337.286 97.075 336.444 96.3688C335.329 95.4075 334.175 94.4658 333.04 93.5438C330.379 91.3662 327.678 89.2474 324.959 87.1287C323.491 85.9712 322.004 84.8334 320.517 83.6759L320.497 83.6563ZM317.621 107.943L315.606 119.263C316.427 119.832 317.328 120.303 318.267 120.577C321.339 121.46 323.824 120.126 325.8 117.811C326.113 117.438 326.739 116.556 326.27 116.124C326.27 116.124 326.27 116.124 326.25 116.124L317.621 107.983V107.943Z" fill="#B4E0D9"/>
<path d="M291.288 125.443C290.408 123.442 289.273 121.637 288.158 119.891C287.786 119.302 287.395 118.675 287.023 118.066C286.318 116.909 285.536 115.653 284.773 114.437C283.873 113.005 282.953 111.534 282.131 110.16L280.585 107.571L279.039 110.16C278.315 111.377 277.592 112.652 276.887 113.907C276.104 115.3 275.283 116.732 274.5 118.047C274.128 118.655 273.737 119.263 273.365 119.871C272.25 121.617 271.115 123.422 270.234 125.423C268.082 130.347 269.139 134.918 273.306 138.626C274.52 137.253 274.735 135.232 273.776 133.682C272.661 131.878 272.485 129.935 273.209 127.777H288.334C289.058 129.955 288.882 131.878 287.766 133.682C286.808 135.232 287.023 137.253 288.236 138.626C292.404 134.918 293.46 130.347 291.308 125.423L291.288 125.443ZM277.572 119.95C278.394 118.596 279.216 117.125 280.018 115.712C280.213 115.359 280.429 115.006 280.624 114.633C280.996 115.222 281.348 115.791 281.72 116.379C282.464 117.576 283.246 118.812 283.951 119.95C284.342 120.578 284.733 121.225 285.125 121.833C285.634 122.618 286.103 123.403 286.573 124.168H274.97C275.42 123.403 275.909 122.618 276.418 121.833C276.809 121.225 277.2 120.597 277.592 119.95H277.572Z" fill="#D8EFFC"/>
<path d="M295.789 72.2573C294.283 73.9641 294.107 76.436 295.281 78.3781C296.768 80.85 296.826 83.5181 295.496 86.5588C294.576 88.6776 293.324 90.6394 292.013 92.7189C291.543 93.4644 291.054 94.2295 290.584 95.0142C289.743 96.4071 288.804 97.8981 287.884 99.3694C287.454 100.076 287.004 100.782 286.554 101.488C286.299 101.057 286.065 100.625 285.81 100.193C284.988 98.7416 284.167 97.2703 283.306 95.8578C283.462 95.6028 283.619 95.3477 283.775 95.1123C285.125 92.9936 286.515 90.7963 287.571 88.3637C287.923 87.5594 288.197 86.755 288.413 85.9703C285.654 85.9703 283.129 87.5005 281.877 89.9528C281.466 90.7571 281.055 91.5026 280.723 92.0127C280.39 91.483 279.979 90.7375 279.568 89.9528C278.296 87.5005 275.772 85.9703 273.033 85.9703C273.248 86.755 273.522 87.5594 273.874 88.3637C274.931 90.7963 276.32 92.9936 277.67 95.1123C277.827 95.3477 277.983 95.6028 278.14 95.8578C277.435 97.0153 276.672 98.212 275.929 99.389C275.498 100.095 275.048 100.802 274.598 101.508C274.344 101.076 274.109 100.645 273.855 100.213C272.876 98.4866 271.878 96.7014 270.881 95.0535C270.411 94.2883 269.922 93.5036 269.452 92.7581C268.141 90.6786 266.889 88.7168 265.969 86.5981C264.639 83.5573 264.697 80.8892 266.184 78.4174C267.358 76.4752 267.182 74.0033 265.676 72.2966C260.608 76.8087 259.316 82.3802 261.938 88.3637C262.995 90.7963 264.384 92.9936 265.734 95.1123C266.204 95.8382 266.674 96.5837 267.124 97.3291C268.102 98.9378 269.08 100.684 270.039 102.371C270.9 103.882 271.781 105.451 272.661 106.922L274.54 110.081L276.418 106.922C277.396 105.274 278.531 103.47 279.627 101.724C279.96 101.174 280.312 100.625 280.664 100.076C281.094 100.841 281.525 101.606 281.955 102.351C282.816 103.862 283.697 105.431 284.577 106.903L286.456 110.061L288.334 106.903C289.313 105.255 290.448 103.45 291.543 101.704C292.463 100.233 293.422 98.722 294.283 97.2899C294.733 96.5444 295.202 95.7989 295.672 95.0731C297.022 92.9543 298.411 90.7571 299.468 88.3245C302.09 82.341 300.798 76.7891 295.731 72.2573H295.789Z" fill="#D8EFFC"/>
</g>
</g>
</svg>
