<svg width="1280" height="285" viewBox="0 0 1280 285" fill="none" xmlns="http://www.w3.org/2000/svg">
<mask id="mask0_1_1464" style="mask-type:alpha" maskUnits="userSpaceOnUse" x="0" y="0" width="1280" height="285">
<rect width="1280" height="285" rx="30" fill="url(#paint0_linear_1_1464)"/>
<rect width="1280" height="285" rx="30" fill="#447EF7"/>
</mask>
<g mask="url(#mask0_1_1464)">
<path fill-rule="evenodd" clip-rule="evenodd" d="M1594.79 162.043L1522.56 135.569C1450.34 109.096 1305.89 56.1493 1144.58 74.6783C983.272 93.2072 805.096 183.212 637.46 228.544C469.825 273.877 312.73 274.537 168.284 221.59C23.8383 168.643 -107.959 62.0899 -173.857 8.81313L-239.756 -44.4636L-303 223.57L-228.669 241.109C-154.338 258.648 -5.67571 293.726 142.987 328.804C291.649 363.881 440.311 398.959 588.973 434.037C737.635 469.115 886.297 504.192 1034.96 539.27C1183.62 574.348 1332.28 609.426 1406.62 626.965L1480.95 644.504L1594.79 162.043Z" fill="#4B66EA"/>
</g>
<defs>
<linearGradient id="paint0_linear_1_1464" x1="-179" y1="263.206" x2="2115.78" y2="-190.156" gradientUnits="userSpaceOnUse">
<stop offset="0.0984052" stop-color="#222161"/>
<stop offset="0.74708" stop-color="#D8EFFC"/>
<stop offset="1" stop-color="#B4E0D9"/>
</linearGradient>
</defs>
</svg>
