<svg width="52" height="52" viewBox="0 0 52 52" fill="none" xmlns="http://www.w3.org/2000/svg">
<path fill-rule="evenodd" clip-rule="evenodd" d="M1 26C1 12.1929 12.1929 1 26 1C39.8071 1 51 12.1929 51 26C51 39.8071 39.8071 51 26 51C12.1929 51 1 39.8071 1 26Z" stroke="white" stroke-width="2"/>
<path fill-rule="evenodd" clip-rule="evenodd" d="M26.0013 12.6666C22.3801 12.6666 21.9257 12.6825 20.5034 12.7472C19.084 12.8122 18.1151 13.0369 17.2673 13.3666C16.3903 13.7072 15.6464 14.1628 14.9053 14.9041C14.1636 15.6453 13.7081 16.3892 13.3664 17.2658C13.0359 18.1139 12.8109 19.0831 12.747 20.502C12.6834 21.9242 12.6667 22.3789 12.6667 26.0001C12.6667 29.6212 12.6828 30.0743 12.7472 31.4965C12.8125 32.916 13.0372 33.8849 13.3667 34.7327C13.7075 35.6096 14.1631 36.3535 14.9045 37.0947C15.6453 37.8363 16.3892 38.293 17.2656 38.6336C18.114 38.9633 19.0831 39.188 20.5023 39.253C21.9246 39.3177 22.3787 39.3336 25.9996 39.3336C29.621 39.3336 30.0741 39.3177 31.4963 39.253C32.9158 39.188 33.8858 38.9633 34.7341 38.6336C35.6108 38.293 36.3536 37.8363 37.0944 37.0947C37.8361 36.3535 38.2917 35.6096 38.6333 34.733C38.9611 33.8849 39.1861 32.9157 39.2528 31.4968C39.3167 30.0746 39.3334 29.6212 39.3334 26.0001C39.3334 22.3789 39.3167 21.9245 39.2528 20.5023C39.1861 19.0828 38.9611 18.1139 38.6333 17.2661C38.2917 16.3892 37.8361 15.6453 37.0944 14.9041C36.3528 14.1625 35.6111 13.7069 34.7333 13.3666C33.8833 13.0369 32.9138 12.8122 31.4944 12.7472C30.0721 12.6825 29.6194 12.6666 25.9971 12.6666H26.0013ZM24.8051 15.0694C25.1601 15.0688 25.5562 15.0694 26.0012 15.0694C29.5613 15.0694 29.9832 15.0822 31.389 15.1461C32.6891 15.2055 33.3946 15.4227 33.8646 15.6052C34.4869 15.8469 34.9305 16.1358 35.3969 16.6025C35.8635 17.0691 36.1524 17.5136 36.3947 18.1358C36.5772 18.6053 36.7947 19.3108 36.8538 20.6108C36.9177 22.0164 36.9316 22.4386 36.9316 25.997C36.9316 29.5554 36.9177 29.9776 36.8538 31.3832C36.7944 32.6832 36.5772 33.3888 36.3947 33.8582C36.153 34.4804 35.8635 34.9235 35.3969 35.3899C34.9302 35.8566 34.4871 36.1454 33.8646 36.3871C33.3952 36.5705 32.6891 36.7871 31.389 36.8466C29.9835 36.9105 29.5613 36.9243 26.0012 36.9243C22.4409 36.9243 22.0189 36.9105 20.6134 36.8466C19.3134 36.7866 18.6078 36.5693 18.1375 36.3868C17.5153 36.1452 17.0708 35.8563 16.6042 35.3896C16.1375 34.9229 15.8486 34.4796 15.6064 33.8571C15.4239 33.3876 15.2064 32.6821 15.1472 31.3821C15.0833 29.9765 15.0705 29.5543 15.0705 25.9937C15.0705 22.4331 15.0833 22.0131 15.1472 20.6075C15.2067 19.3075 15.4239 18.6019 15.6064 18.1319C15.8481 17.5097 16.1375 17.0652 16.6042 16.5986C17.0708 16.1319 17.5153 15.843 18.1375 15.6008C18.6075 15.4175 19.3134 15.2008 20.6134 15.1411C21.8434 15.0855 22.3201 15.0688 24.8051 15.0661V15.0694ZM33.1185 17.2833C32.2352 17.2833 31.5185 17.9991 31.5185 18.8828C31.5185 19.7661 32.2352 20.4828 33.1185 20.4828C34.0019 20.4828 34.7185 19.7661 34.7185 18.8828C34.7185 17.9994 34.0019 17.2833 33.1185 17.2833ZM26.0013 19.1528C22.2199 19.1528 19.154 22.2186 19.154 26.0001C19.154 29.7815 22.2199 32.846 26.0013 32.846C29.7827 32.846 32.8475 29.7815 32.8475 26.0001C32.8475 22.2186 29.7827 19.1528 26.0013 19.1528ZM26.0012 21.5556C28.4557 21.5556 30.4457 23.5453 30.4457 26.0001C30.4457 28.4545 28.4557 30.4446 26.0012 30.4446C23.5465 30.4446 21.5568 28.4545 21.5568 26.0001C21.5568 23.5453 23.5465 21.5556 26.0012 21.5556Z" fill="white"/>
</svg>
